<<<<<<< HEAD
<mxfile host="app.diagrams.net" modified="2024-05-08T09:42:02.859Z" agent="Mozilla/5.0 (Windows NT 10.0; Win64; x64) AppleWebKit/537.36 (KHTML, like Gecko) Chrome/124.0.0.0 Safari/537.36" etag="b9zcHygvrjJoxzYLK6AZ" version="24.2.5" type="device">
  <diagram name="페이지-1" id="D9u9Lj1Fh6GgVe7wLwOT">
    <mxGraphModel dx="5187" dy="2429" grid="1" gridSize="10" guides="1" tooltips="1" connect="1" arrows="1" fold="1" page="1" pageScale="1" pageWidth="827" pageHeight="1169" math="0" shadow="0">
=======
<mxfile host="app.diagrams.net" modified="2024-05-08T09:36:32.150Z" agent="Mozilla/5.0 (Windows NT 10.0; Win64; x64) AppleWebKit/537.36 (KHTML, like Gecko) Chrome/124.0.0.0 Safari/537.36" etag="Nr47Px3OgCOYZHYYCiYy" version="24.2.5" type="device">
  <diagram name="페이지-1" id="D9u9Lj1Fh6GgVe7wLwOT">
    <mxGraphModel dx="1660" dy="1415" grid="1" gridSize="10" guides="1" tooltips="1" connect="1" arrows="1" fold="1" page="1" pageScale="1" pageWidth="827" pageHeight="1169" math="0" shadow="0">
>>>>>>> f0d729b158176bc7844aacfcc1b2bf5e1a6e25d8
      <root>
        <mxCell id="0" />
        <mxCell id="1" parent="0" />
        <mxCell id="-X6ACY5F_YXX9V9hznT9-47" style="edgeStyle=orthogonalEdgeStyle;rounded=0;orthogonalLoop=1;jettySize=auto;html=1;strokeWidth=5;" edge="1" parent="1" source="-X6ACY5F_YXX9V9hznT9-1" target="-X6ACY5F_YXX9V9hznT9-4">
          <mxGeometry relative="1" as="geometry" />
        </mxCell>
        <mxCell id="-X6ACY5F_YXX9V9hznT9-1" value="" style="rounded=0;whiteSpace=wrap;html=1;" vertex="1" parent="1">
          <mxGeometry x="120" y="400" width="150" height="640" as="geometry" />
        </mxCell>
        <mxCell id="-X6ACY5F_YXX9V9hznT9-2" value="" style="shape=image;imageAspect=0;aspect=fixed;verticalLabelPosition=bottom;verticalAlign=top;image=data:image/jpeg,/9j/4AAQSkZJRgABAQAAAQABAAD/2wCEAAkGBxIPEhIQEBIQFRUVFxMWFhYTGBcSEhEVFhIXFxUXExUYHSkgGBolGxcVITEhJSktLi4uGB8zODMsNygtLisBCgoKDg0OGhAQGy0mICYtLS0vMC0rLS0tLS0tLS0tLS4tLS0tLS0tLS0tLS0tMC0tLS0tLTAtLy0tLS0tLS0tLv/AABEIAOEA4QMBEQACEQEDEQH/xAAbAAEAAQUBAAAAAAAAAAAAAAAABQECAwYHBP/EAEIQAAIBAgEJAgsGBQQDAQAAAAABAgMRBAUGEiExUWFxgUGRBxMiMkJScpKhsdEUFSNiosFTgrLh8ENzwvGDo9Jj/8QAGwEBAAIDAQEAAAAAAAAAAAAAAAQFAQMGAgf/xAAzEQACAQMBBAgHAQACAwAAAAAAAQIDBBExBRIhQRMUMlFhcZGxIoGhwdHh8EIGI0NSU//aAAwDAQACEQMRAD8A7iAAAAAAAAAAAA2AQmUs6sJh7qVVSfq0/Lffs+JqlXhHmTaOz69XSOF48DWcd4RnsoUVzqO/6Va3eR5XfciypbF/+kvQg8VntjZ7Kiit0YpfG1/iaXcVHzJ0Nl20eWfMja2W8TPzq9Z/zP6nh1JvmSY2tGOkF6Hlli6j2zk+bPO8zYqcFoikcTNbJyXUbzMunF8j00ss4iHm16y5SaMqpJczXK2oy1ivQkcNnljaf+rpLdJKV+rVzYriouZGnsy2l/nHkTeC8I01qrUYvjBuL7ne5tjdvmiFU2LH/EvU2XJueOEr2XjPFy3VPJ/Vs+JIjcQlzK2ts24p8srwJ+Mk1dNNPY1rTNxBaxwZUGAAAAAAAAAAAAAAAAAAAAACjdtbANVy5nzQoXhR/Fnwf4aftdvTvI1S5jHguJa22yqtTjP4V9TQsr5yYnFXVSo1H1I+TDu7epDnWnPVl7QsaNHsrj3vUiDUSwDIAAAAAAAAAAABI5Ly5iMK70qkku2L1xfOL1GyFSUdGRq9pSrL40b1kPP6nUtDEx8XL1lrpvmtsfiTKd0nwkUdzsicONJ5XdzNypVFNKUWpJ6007prg0Sk8lO4uLwy4GAAAAAAAAAAAAAAAAAR2Wss0cHDTrSt6sVrnN8F+54nUjBZZIt7apXluwX4RzDOHOutjG430KfZCL2+0+0r6leU/I6a02fTocdZd/4IA0FgAAAAAAAAAAAAAAAAAAACXyFnFXwcvw5Xh2wlri/o+KNtOrKGhDubKlcL4lx7zqGb+cVHGx8h6M151OXnLlvXH5FhTqxmuBzF1ZVLd/Fp3kwbSIAAAAAAAAAAAAADXs686aeBjoq060l5MOyP5p8OHaaa1ZQXiT7KxlcPL4R7/wAHJ8fj6mIm6tWTlJ7+zgl2IrZScnlnU0qUKUd2CwjAjybSoMgAAAAAAAAAAAAAAAAAAAAGTDYiVKSnTk4yWtNOzRlNp5R4nCM1uyWUdQzRzujirUa1o1ux7I1eW6XD/osKNff4PU5m/wBnOj8cOMfY2sklUAAAAAAAAAADXc8c544CnaNpVpryI+qvXlw+ZprVlBeJPsbJ3EsvsrX8HH8TiZ1ZyqVJOUpO7b2tlY228s6qEIwioxWEWpmD2XpgyXAyAAAAAAAAAAAAAAAAAAAAAACsJNNNNprWmtTT4GTDSawzqWZOdP2pKhWa8dFan/FS7faXb3lhQrb/AAepy+0bDoX0kOz7fo2wklUAAAAAAACMziyzDA0ZVp63shHtnN7Evm+CZ4qVFCOWSLa3lXqKC+fgjiGUcfUxNSVarK8pO73LcluS2FVKTk8s66lSjSgoR0RhTMG0uRgyXpgF6BkqDIAAAAAAAAAAAAAAAAAAAAAAL6FaVOUZwbjKLTTWpprYZTaeUeZRUk4y0OwZp5ejjaOk7KpCyqR49klwf1LSjV34+JyF9aO3qY5PQnDaQgAAAAUbtrYBxPPnL7xuIum/FQvGkux+tLm9T5WK+5bcvAuf+P3dCvSnudpPj5cn5fs19MjHQF6YMl6BkuTBkvRgyXIAqDIAAAAAAAAAAAAAAAAAAAAAAJLN/K8sHWjWje2ycfXg9q59q4o2U6jhLJGureNxTcH8vBnaMNXjVhGpB3jJKSe9NXRapprKOMnBwk4y1RlMnkAAA1Dwj5a8RQVCDtOtdO22NNed37O88TeEVm07jcp7i1l7c/wcnq09JW7uD7P84keUd5YK/ZV+7K5jU5aPy/Wp5qc77dpCawfWKdRTimjKmYNpcmDJejAL0wZLkwZLgZABRu20GD24LJWIr66VCrNb1HRg+U5Wj8TZGlOWiI1S8oU+1JEnTzMxslfxdOPCVSN/03NqtZkWW17daZfyL5ZkY1ejRfKp9UYdtNHlbYt/H0PJXzYxdPzqVlvTcl1cU0R5qUO1F+mfY2x2nQlozyLJVXdD3v7EfrVLx9Dd1yPcV+6K26HvP6DrVLx9B1yPcV+5626HvP6DrdLx9B1yPcV+5q26n7z+g63S8fQdcj3FfuWtup+8/oY63S8fQdcj3FfuOvup+8/oOuUvH0HW49w+4q+6n7z+g65S8fQdbj3FfuGvup+8/oY65S8fQdbj3FfuCvup+8/oOu0fH0HW49xVZvYjdT95/wDyOu0fH0HW49xvmYEq1KEsNW0bLyqbUr2T86Ozfr6ssLG9p1H0afiUe1IxnJVYrz+xt5aFQAA2AcQzoyp9rxNSrfyb6MPYjqj365fzGiTyzk7qt01Vy5aLyX9kijyRzy4qnZ6S7dvPsf8An7mirHmd1/xjaO/TdtN8Y8Y+Xd8vbyKU53I7R2MZZMqMHsuTBkvTMGS9AyXIAmsgZtVsZ5UfIpfxJLU9/i4+lz1Lj2G+lQlPjyK+72jTofDrLu/Jv+SM1sNhrOMFOa9Oracr/lWyPRInQowhojnq99Wrdp4XcibNpDLZyUdrS56jKTegbwUhUUtjT5NMNNamE0y8wZPHjMmUq3nwV/Wj5Mu/t6ketaUq3aXHv5m2nXnT7LNcylkSdG8o+XDevOj7S3cV8CiutnVKXxR4r6osaN3GfB8GRyRWksuSMAvSALkjAMsabPOTJeqR5yC9QMZBdYAy4eq4SjNbU7896NlGq6U1OPI8TipxcWbjTmpJSWxpNdTuITU4qUdGUMk4vDLj0YIHPjKP2fB1ZJ2lP8OPOep24qOk+h5k8Ih39Xo6EmtXw9TjJoOXABSUU009jDWVg3W1xO3qxqw1Tz+vnoeBpxdntX+JkOUcPB9YtLmFzRjWho1/L5aGeErnhonRlkyJmD0XIGS9MGTb8zc1ftFsRiF+F6ENnjrdsvyf1ctsqhQ3viloU20do9HmlS15vu/fsdHjFJJJJJaklqSS2JInnON5Ndy1ndSoNwpJVZrU7O1OL4y9J8F3lnbbMqVFvT4L6kOteRhwjxf0NRx2cWJredVlFerT8iPw1vq2XFKxoU9I58+JAnc1Z6v04EVLW7vW971slLhwRofEJGTBI4LLmJo+ZWnb1ZPTj3SvboRqlpRqdqK9vY3Qr1IaM2rI+ecJ2hiIqm/XWum+a2x+K5FTcbKlH4qTz4c/2TqV6nwnw9ja4u9mndPWmtj5FRoTyByxkbbUpLjKC/qj+6/x0m0NnrDq0l5r7r8E+2uf8T9SJhh+K6azn98ssGWNBI87zBkUTBkrYGBYArYArYAWANjyDW0qei9sXbo9a/c6jY9bfobj/wAv6PT7lTeQxPPeSRbEQ5z4VsbedCgnsUqkur0Y/KfeaqjKPa9TjGHz+y+5oJrKcAAAwYqndaW7by/tt7zVVjlZOp/4ztHoqrtpvhLTwl3fP38zzpkY79GeEjyzbF5MiYPRPZoZD+21rSv4qFpVOK9GCf5mn0T4G6hS35cdCBtC76vT4dp6fk65CKSSSSSsklqSS2JIszk28mi52Zyuo5UKErQWqc1tqPtUX6vz5bb+wsFBKpUXHku79+3mVd1dbz3IaGqFuQQAAAAAAAT+bOcUsK1TqNyot83S4x4b13ca69sVWW9Hte/n+SVbXLpvD09jo0JqSUotNNJprWmnsaZzbTTwy3TyQeVMJ4uWlHzZfpl2rk9vecvtWz6KfSR0f0f7La0r763Xqjx2KgmFbAFbAwLAFbAFbGDAsASWQ6mjU0fWT71r+pbbHq7tfd/9l7cfyRLyOaee42A6kqzjefmJ8Zjq2vVDQguGjBX/AFORonqcxtCe9cS8MI188kIAAAAym001qjxVIaLt2dnLd0IlSO6z6nsjaCvbZVP9LhLz/epVHgtTLGR5ZsTydjzOyX9lwtOLVpz/ABJ79KSVk+SsujLSjDcgkclf1+mrN8lwXkvzqefPXKzoUlSg7Tq3V1tjBec+b2d+4t9m23S1N+Wi9ynvK25HdWr9jnh0hUgAAAAAAAAAA3bMPKzknhZvzU5U7+r6Uem1c3uKLatth9NHyf5LKyrZ/wCt/I2vFUPGQlHfs4PsfeUFxRVam6b5/wAizpzcJKSNeS39eD7TiJJxbT1LxPKyitjyCtgBYArYGCtgBYAzYSWjOD3SXdfWb7We5XhLxRrqreg14G0ncFKcIy1V08RiJ+tVqv8A9jsR3qchXeasn4v3PEYNQAAAAMdenpLVtWtfTr9DxOO8i52HtHqdyt5/BLg/s/l7ZPLFkQ+oIk83sH4/E0KT2SqR0uMU9Ka91M9U4700jTc1Ojoyl4fpHcy1OQOW50Yzx2Jqy7IvQjyhq+L0n1OrsaXR0Irv4+pSXM9+q38vQiiWaAAAAAAAAAAAenJ2LdCrTqr0JJvivSXVXXU1Vqaq05QfNHunPckpdx11O+tHHF+QeOp6NSa32l3rX8UzkdqU9y5l48f75ltay3qa8DDYriQVsDAsAACoAAKGAbJ9rR2fW0VPQs4RVlpSk97b73c2HCyeW2WAwAAAAAAeavCzv2P5/wB9veRqsMPJ9F/43tLrFDoZv4ofWPJ/LR/LvNk8HFNSx0G/RhUkuejo/wDIzbL/ALC12o8W780dbnKyb3JvuLJLLwcy+BxrSb1va9b5s7TGOCOdzkGQAAAAAAAAAAAAdZyHUc8NQk9rp0789FJnIXUd2tNeL9y9ovNOL8EefKy8uL3x+T/ucrtyP/ZB+Ba2T+Fo8hRk0AAAAAAAFAD0eOZM6xLvNW4jkdSNm1ubXczqj5o1h4LQYAAAAAAKTjdNP/riYkt5YJlheTs7iNaPLVd65r+5k74Np6OOinqbhVj1spf8TTbrFTDPpN9UjWs1Ug8p4fyOtVI6Sa3prvRYp4eTnWso40lbadqc6AZAAAAAAAAAAAAOsZAho4bDp/w6fxin+5yN2815vxZe0FinHyRhys/Lj7L+LX0OV24/jgvBlrZaM8ZRE0AAAAAAAAAyeKJHQs8b5y/K1PQr14erVqruqNHXvU+bVlirJeL9zyGDUAAAAAAAD3ZvYjxGMw1Z7FUjGXCM/wAO75aX+WPDWJqR1mwb7fo1LKb5Nx+XFr7r5naiYSDlOcOE8Tia0OzSco+zPylbvt0Ots6vSUYy8MenAoriG5UaI4kmoAAAAAAAAAAGbB4Z1akKUds5KPK7tfptPFSapwc3yWT1CO9JRXM6/CKiklsSSXJbDjW23lnQLgRGUJ3qPgkv3fzOT2vU3rjHcsFpaxxTPOVZJAAAAAAABRmGCe+xHX9TKvpjk+e+H8XjsQrapSU1x04KT+LZKlqcdfw3biXr9CDPJDAAAAAAAAauGsnulVnSmqkHhp5XyOyZtZS+1YanVveVtGftx1S79vU3xeUdbSrRrQVSOj+nh8iIz7yXpwWIgtdNWnvcL6n0d+je4uNlXG7J0paPTz/ZFvaW8t9cvY0M6AqwAAAAAAAAAAbfmFku8nipLVG8afGT1SkuS1dXuKbatxhKiufF/Yn2NLL6R/I3WrUUU5PsOfqVFTg5vRFrGLk0kQLd7t7XrfU4arN1JuT5lzGO6kkDwegAAAAAAAX0IaUox3tL4m63hv1YR72vc8VHiLfgbUdyUpzPwq4PRrUay2Tg4PnCV13qfwNVRFFtanicZ96x6GjmsqAAAAAAAAADZ8xcuLDVXSqO1OrZNvZCeyMuCex9Nx7hLBY7Ouuinuy7L+jOoSV9T2bGnsfM3aHRnOc6M3nhpOpTTdGT5+Kb9GXDc+nPpbG9VZbsu17+P5Ke5t3Te8tPY18sSKAAAAAAACWzfyHPFz7Y04vy5/8AGO+Xy+cO7u428fHkv7kb6FB1X4HTcPQjTjGEElGKSSXYkcvObnJylqy6jFRWER2UMTpPQi9Sevi1tXT58jntsXX/AIY/Mn2dP/bPGc+TwAAAAAAAAD2ZHp6VVP1U3+37lnsilv3Kfcm/t9yNdSxTx3mwnWFWa14Qsn+Pwc5JeVSaqrlG6n+lyfQ8zWUQdo0t+g/Dj+focgNBzIAAAAAAAAAAN/zKzqTUcNiJWasqc3skuyE3v3Pt2c9sZcmXdhf6Uqj8n9n/AH73ecE04ySaepp6012po2ptPKLlrPBmoZZzLTbnhWl/+cn5P8kuzk+9FxbbVa+Gt6r7lfWss8afoaljcBVoO1WnOHtLU+Utj6FxTrU6qzBplfOnKHaWDzG08gAzYXCzqvRpQnN7opytztsPE6kKazN48zMYSk8RWTacj5lydpYl6K/hxd5P2pLUul+aKm42qlwpLPi/wTqVi3xqehumHoRpxUIRUYrUktSRSTnKb3pPLLKMVFYRAZby9+KsFhpXrS11JrWsNTXnS/3NaSXY2m9ziXVwqFNz/smtS6SqqMNefgvyIRUUklZJJJbkthxc5ucnJ6s6CMVFJIuPJ6AAAAAAAAAJrIVK0ZT9Z2XJf3v3HTbFo7tJ1H/p/RfvJXXk8yUe4ky5IZbOCknFq6aaaexp7UA1k4XlzJzwterQfoSei98Hrg/da63I7WGcjcUXSqOH9jkeEwaQAAAAAAAAAAbZm5npOglTxCdSmtSl/qQXXzlwff2GyM8alna7SlT+GpxX1X5OgZOynRxMdKjUjLelqlH2ovWjYmmXlKvTqrMHk9bV9TMm08VXI2Gm7yoUW9+hFPvSN8bqtHSb9WanRpvWK9C2nkTDR1rD0esIv5oy7uu9Zv1CoUl/leh7oRUVZJJblqXcaG23lm1LBgx2OpYeOnWqQhHfJ2vyW1vgjGTxOpGCzJ4OfZzeECU06eDvCOx1ZaptfkXo89vI1uXcVdxtBv4aXr+D1ZnZKdCj4yafjK1pSvtjHbCL467vi+BzG07npKm4tF7l9sm06Glvy7UuJPlWWwAAAAAAAAAjFtpLa2kub2HqEHOShHV8DDaSyzaaFJQjGK7Elz4nc0qapwUFolgpZScm2zIbDyADRfCdkbThHFwWun5NS3bTb8l9JPuk9xrmuZU7Ut96CqLVa+X6OamooQAAAAAAAAAAAC+lUlBqUW4tbGnZrk0ZMptPKJ3B55Yylq8YprdUSl+rzn3npTZMp7RuIc8+f9klKXhDqrzqNJ8nKPzbM9ISVtefOKK1PCHU9GhTXNyf0HSGXtefKK9SJx+fOMnqjONP/bik++V2ujG+zU9o15rXHkvzk1nFYmdWTlUnKcn2ybk+9nkjSlKTzJ5JPNPJP2qutJXp07Snuk/Qh1a7kyFfXPQ0srV6Fnsq06xWy+yuL+yOltnKN5O1AAAAAAAAAABJZEw+lJ1HsjqXtNa+5fPgXmxrbMnWly4Lz5kK7qYW4ibOjK8AAAsr0ozjKE0nGScZJ7GmrNPoDDSawziWcmR5YKvKi7uPnU5P04PZ1Wx8VxRoksM5W6t3QqOPLl5EWeSMAAAAAAAAAAAAAAAUbAPPNno3JGOzbSSbbaSS1tt6klxMZxqe4xbeEdSzfyWsJRjT1aT8qo12ze3otSXI5S+uemqt8lod3YWqt6Kjz5+ZJEMmgAAAAAAAAF1Km5yUY7W7LhxfBG2hRlWqKEeZ4nNQi5M2fD0VTioLYvjvbO2o0o0oKEdEU85OTbZkNh5AAAABB53ZAWOo6KsqkLypSfY+2LfqytZ9H2HmUcoi3dsq9PHPkcarUpQlKE04yi2pJ7YtbUzQcvKLi3GWqLAeQAAAAAAAAAAAAAY5syekjBJmTajZsxcleMqPEzXk03aH5qltv8qfe1uKvadz0cOjWr9i/wBiWe/PppaLTz/X9ob4c2dWAAAAAAAAAUbAJ7JOC8WtOS8qXZ6q3c9/9jrNm2XQQ3pdp/Tw/JV3FbfeFoiQLMjAAAAAAAA07PrNT7UvtFBfjRXlR2eOiti9tdj7dm63icclbfWXTLfh2vc5a1bU7prU09TTW1NGk55pp4ZQGAAAAAAAAAAAUkwZMNRmT3FDC4aVacKVNXlNpLdxb4JXb5Hmc1CLlLREihSlVmoR1Z1bAYONCnCjDzYK1+2T2uT4t3fU5C4rOtUc2d/b0I0aapx5HoNJuAAAAAAABRsAlck4C9qs1xin/U/2XXl0Wy9n7uK1RceS+5Aua+fgj8yZL0ggAAAAAAAAAA03PTM5Ym+IwySrbZR2Rrddinx2Pt3rxKGdCtvbFVfjh2vc5fUg4txknGUW04yVpRa2pp7GaTnpRcXh6loMAAAAAAAAMAxyYPSMM2ZPaN0zDyVoxeKmtc7xp8IX8qXVq3JcSj2rc/8Aij8zq9h2e7Hp5avTy/v7ibaUh0IAAAAAAAKN2C4glcm5MvadVcYwfzl9P8XRbP2Xu4qVlx5L8/gr69zn4YEyXpCAAAAAAAAAAAAABr+c+atHHLSfkVUrRqRW3cpr0l8V2M8yimRLqzhXXHg+85XlnI1fBz0K8LX82a105+zL9nZ8DS4tHPV7apReJL58iPMEcAAAAAAtkwZMcmD0j0ZGyc8VWjRV0nrm16MF5z57EuLRquKyo03N/wAydY2ruKygtOfkdTpwUUoxSUYpJJbEkrJLochObnJyZ30IqEVFaIuPJ6AAAAAAK04Ob0YJye5dnFvsRuo29StLdgsnic4wWZE3k/Jap2lO0p9nqx9njx+R01ls2FD4pcZe3l+SurXDnwXBEiWZGAAAAAAAAAAAAAAAABhxWFhWi6dWEZxe2Mkmn0YPMoqSxJZRoWXvB3tngpf+Ko/6Km3pLvNbh3FRcbKT40n8maNjsFVw8tCtTnTlumrX9l7JLirmtpoqKlKdN4msHnMGsAFGwDHJg9IxTZk9o6Hmdkr7PR05q1SraTvtjD0I/G74vgc3tO56Se5HRHa7Is+go70u1Lj+CeKwtwAAAAUTu9FJt7krvuR7p051HuxWWYclFZZI4XJE5a6j0F6q1zfN7F0uXVtsaT+Ks8eCIdS7S4QJjD4eNNaMIpLh28W+1l9SpQpR3YLCIMpuTyzKbDyAAAAAAAAAAAAAAAAAAAAAYcVhYVYuFWEJxe2M0pRfRg8yipLDWTU8p+DvDVLujKpRe5fiU/dlr6KSPDgivq7Moz4x4GsY/wAH+Mp66fiqy/LLQn7s7L9R4cGQKmyqsey0/oa/jMjYmlfxmHrxt26EnH3opr4mMMiSta0NYsi5VFsujya8NEvmpkxYmunKzp07Snuk7+RDq1fkmQ7646Glw1ehbbJs+sVsvsx4v7I6Q5cTlnlnblrqx9Zd6MYBfCMpebGcuUW132sb4WtafZi/Q8OpBas9VLJlaXoqPtP9o3JtLZFxLtYXn+jTK7prTie2jkSP+pOUuEfIj9fiWdHY1KPGbb+i/vmRp3kn2eBJUKEaatCKiuCtfnvLWnShTWILBGlJyeWzIezyAAAAAAAAAAAAAAAAAAAAAAAAAAAAAAa/nT5vQ8s0VdDUMj7K3+4v6EUe1O0vL8kzZnZl5/ZEphdqK6jqWUjZ8lHQWpAqkoTyOAAAAAAAAAAAAAAAAAAf/9k=;" vertex="1" parent="1">
          <mxGeometry x="157.5" y="670" width="75" height="75" as="geometry" />
        </mxCell>
        <mxCell id="-X6ACY5F_YXX9V9hznT9-3" value="&lt;font style=&quot;font-size: 30px;&quot;&gt;Web browser&lt;/font&gt;" style="rounded=0;whiteSpace=wrap;html=1;" vertex="1" parent="1">
          <mxGeometry x="135" y="790" width="120" height="60" as="geometry" />
        </mxCell>
        <mxCell id="-X6ACY5F_YXX9V9hznT9-4" value="" style="rounded=0;whiteSpace=wrap;html=1;" vertex="1" parent="1">
          <mxGeometry x="330" y="400" width="500" height="640" as="geometry" />
        </mxCell>
        <mxCell id="-X6ACY5F_YXX9V9hznT9-6" value="" style="shape=image;imageAspect=0;aspect=fixed;verticalLabelPosition=bottom;verticalAlign=top;image=data:image/png,iVBORw0KGgoAAAANSUhEUgAAANkAAADoCAMAAABVRrFMAAAA8FBMVEX////0dCiZRCAAAACTQB7zdCjrcSmRQB/3dijjczPZcjyVQyH0bhX5vKKiTyr07euRLwDvdzObSCScTzCGhobc3Ny4uLjvezqiUjBSUlJhYWGYQx5mZmampqb39/eQKgDQ0NB2dnYUFBRISEjw497p6enFxcXzaACUlJScnJwTExN9fX0zMzNZWVmvr6+Li4s9PT3+8Oj95tv3oXYfHx/70r37yLCUOAP5spDo19GWPRT1hkkrKytwcHCpZErpYwDbwrjOqp7Hno+/jXv5t5b4qYO3gG383Mz2jVSub1j2l2bex76lWz3oiFjryLj5lF7T6cC/AAAHaklEQVR4nO3deVfaWBgGcOCqg52oMAWUJSkIYQtgtLRIFFtr1Vo70+//beauSVBQLFmA8zx/VAnX5P6yvFl6Tm4igSAIgiAIgiAIgiAIgiDIZubxavTl8FPcvQg+X39lnPfZtJbdMNv1/qicSr3PJpPU9jnu3gQW47rMXEK2QbaDb9KlZJtiu3GUy5Nx254Rd9eWzAfX5Zdtgu1DaraMhtpO4+7eEnlBxmzf19f2oozZztfV9oqM2rbXx9b45Ovqq7L1sTXunJ30Rxe3gIzZbs9i7fQCGd+NnK3dtKZlb+95UV9IRm3p1bYxVzm1tcv72ro4P1tYRttrq2sb32Ucdl4WMnYybv3YcxaVMdvH1bQ9CJcn47i/FpetrM3d73yy5PabZGwf/rl6tkBkK2kLSMZt93FjpvK67J+dhWT08Gz9jt02frg4l50IUMZsP2K1PV5l9g+1Vuv33lnAMma7iO1h0OOvjJM6OkzyM1f61glWxmzxPMT7epRhpy8uY/HOXEHJmC2Gh3iNkdhGriwdgiyWh0GNcjkKWQy2yGTCFsHDIOP+NGpZJA+6jOv3u+nDn5/vTw9SEcpCtx1cH4223qXpfaWWfSd7G5EsGeqDrm9Ho3Lq73dp7tiJXJZMtvbCgR3wx71SllSyfXWVG4FMC0uWSUEGGWSQQQYZZJBBBhlkkEEGGWSQQQYZZJBBBhlkkEEGGWSQQQYZZJBBBhlkkEEGGWSQQQYZZJBBBhlkkEEGGWSQQQYZZJBBBhlkkEEGGWSQQQYZZJBBBhlkkEEGGWSQebKNffua8c3Z0Dfm0a1248i3HLay/0b7/sZk2K/Nbtw4u9rFx72z00bEMk0L+5XZjf9O+bsvI32baAQunzBCWbSv3Y9OFvVwAo2RGAEhbJmWjnyYhK9X3BauLAaXa5NvNNe2f28FLovJJW37h2xwGDbyTcBvoY/TxfL4kL34LjoQrGwFhsZx334cpEzTbldoqKbARuhYMVdwMq21akNrBSNbPVcicZRxnsveNnoRc63isIqPV8LmyjR6wLxhxCna/vsquljGD8wmZGl6P/XpDaOEMVfc/X8pzEZllHUhhrRcVKZtr+z2UhnfZXZa2XN1ml1Ilta212LY0sa57y5xAdmaDsf6qiyikUWCzyuydOtwPV2vyNKti3V1vShba9f8UZy5K+7OLZUbx5kx8jatG2vuSvCHr86T0dKp60dso7YFmcadtEnZprhYpI3LNsnFQm2ZTDnZam2Yi6UxHo/vaeLuB4IgCIIgCIIgCPInMfLVqhnWzPV6vRnWvN3k60Uv9YGaavUIIZdFb/mmXitO9ICsdOalYOb0QvLEn7aYqFNVv9K/JORENhuI74eFIJZZJX2bhLZDqFDZIO9GLK5Diew344SQDp/SpCu5mm8WCakGsMwJaXbUSgwv+eedrRKiy19rRKzbntx76qS4/CJNcmzkSW/q+bthGvKn6Z9omvOe0htPvnr6eaasRCZue0Isf6MmOV5+L9JJLZEoEnUMVyZVozYkw4mRMCdD0q3IJeRrNt3/eyW25PykpmLxLzt1emj0xSw6k5NEgX6ud16RTU3JWezIag6JWCF0c+aXlvXY/AuqhtCV1xkSmxaViil+2nxZ9ADo2uwjWwVNrxR02d/QyT1blYESqevk0h6S6T38uYy2erYLGNJTIN2lt1mV2PRfqpBzor0t0QXSY3pYN3mtGghw3+StSZ22boqUxIFSJ8eUa7RF0wrp9qjBpJvN3/HnMuuFitwP4DiriVU7kcUpITYDowhrkR8MBbV3tH39pZuuJn5UZVfZRqgQsWfnCfGfJflHQ4VNqfO/nhlaNJcu+4bsclPVEEJy/GdXHt4ltpFoO9F5RlQy2le+YmuiBd1MXWapeHNSlU+29oVNuSTWnE4NyNyvFo9O+uIXW65h1Z9jKSxN7Rem5coMW9avunua7bENX1HQP5YNSBA1v0f6HR6bVGR/BjNlRuFkUuS9krKK2gk9AZ/HfNmTalfxiv5U6G5RXP7/gKu+9Siq0RyZLtpUJkrWVg2nZJOXZNXpZbdnVxBdlLBlY5GiLtMTHZktY+tRZ9dE6jgreIfCUBUfKsu9Qdb0F0/z8sSUPZqzKd8Ww1e/dNKbL7NVHdNFd2g/++oPS+o7euoYvEFmHPuKpy5Lcc27OF4qA3Esi34J5UyZtwaKXGbQixT3TNpRMxGnhoVlXlFNsFXH15QeEIzWD1956vMaMls2lNvFEhWkT7peOTDkTRAt+mwGi8tMdYbh882LKcHcT03XK3FFM3tvpJckk0Khc0n4CTxHS0mzICKOPXtQaMsaNF/WLrgRyxiwexb2XUXexbB5dLuiWC113WiJQ0vGYKXAUDJVIfqiozWxOKvAVn3PV1FZa3ohyzIxxaqw58ientD4OiHd4TFRt2dDX4vlZNbUNYxutdm0Kv+Qk9/pllhoXs+1myab3ky0c25Ea6PatgZmYuoP6Jz8V1emlfNFHQRmu0hdtiUZNV+L0O+FQ4+8ikQQBEEQBEEQBEHWOP8DR1lX7mQKQ0QAAAAASUVORK5CYII=;" vertex="1" parent="1">
          <mxGeometry x="300" y="350" width="137" height="146.47" as="geometry" />
        </mxCell>
        <mxCell id="-X6ACY5F_YXX9V9hznT9-7" value="" style="rounded=0;whiteSpace=wrap;html=1;" vertex="1" parent="1">
          <mxGeometry x="410" y="520" width="360" height="460" as="geometry" />
        </mxCell>
        <mxCell id="-X6ACY5F_YXX9V9hznT9-5" value="" style="shape=image;imageAspect=0;aspect=fixed;verticalLabelPosition=bottom;verticalAlign=top;image=data:image/png,iVBORw0KGgoAAAANSUhEUgAAAPMAAADQCAMAAADlEKeVAAAAbFBMVEX///8kl+0AjuwAkOz8//8XlO2/3PkAkuwble0Ajey72fjb6/uZyPV5ufKUxvXn8fy01ffv9/7n8vymz/aHv/P1+v52t/LK4vrV6PvX6fsvm+5irvGQw/RSp/BCoe+jzfZfrPA6n+5Lpe9ssvFIIBcuAAAOgUlEQVR4nO1da4OqLBBOiMAum+attSyt//8fXy+AyCXtvCrubs/5co6H1McZhmEYhtXKHq7E6YI8Lb7NPHAdGe7J9jtNDaBwhkfb7zQ1NJz/opz/Iue/qNt/kfNHt38hPpz/rG7/Rc5/Ubf/Iudfr9vqvOr3y9nBMty17XeaGr4n49eL+YMfjLWEl5flqz+yN++QbJVgUl4+Q/ky2pWXD/JlmNkm8A/YY3n0QXF5+YDky/i60sYAf6AR2yvk0GGl44y+Vr/FD/vfnH+gHzYf58ifjsV7mE+3n+59OhpvYTY5b6ED0/OETIZjLs5RPT6A65RchmIu3Y6bG8JsAV7MTJx3bGRHRTQpnyGYSbdzvohLUuuk55HzTvghSW2r9zycO7dDtn30WXQ7gt3fhBOT6sEsnD1pIgOSiVm9hoazfl5Vc/7HGGAmpaEQZ2JWr+G5UAKoyO2Vy65XXnbkqxgMsMKRoh7Yrm+SbCVs6ssb+XKtjr58dTtEtTfKHN0Bi5lwTIRQzrAqe4plMzY5HipnB9sepCeGYg8rzt4cT764oAs3L6/uIJBR9dxEbgzgd3k5Vi4/qlvflFsfhAf7UMOZzOGYqMazNiTDY4D6sarKA9ypt8bCk791nJ0hBv9/c1afDP1xfM+demskPDlRzXb1VTY/l/Opl7NmqKpazDBE25OznjPJ/cTbh/Hz8ozDvXeeQtXn5Sz2Z71uOwRijAgihCCEMIRFOLoXbk+39TZMBYI4HNc9s6fb2rHKQBuEY/oq9jhrfRITcDriYpBFzvJU8jXc8bq1vf68+npH0A5cPucBcj4P79DjxhMscl6RN5R7TF/Fom6vrm8oNxxxuLIp55P6OxNGjRppOAM95xcxwH/kzFar+jFydFCJ38HKQdyqwb59efmujwGmagxwXU1TsXy96D57sFsychTY38ioe85Zvto8NdFejvT3OCmX5RlDOEzQ+PeEyZJsGGWU237TcRBtDgQOG6vQY5xHKol7syHyvzf3OIXlhHEQYwePEiILlODcnChNGRrKtwSMx6D8eMfnswwERwn+5m+59lZBYD6K+5UMd34sA8HHSMOyZpVogSAIgudoaWOXJXMmdegPY+DE2xGjQfmCOZNLnl/ia5CMvCS7YM7o0P/6/4QF63a93jcFnssdqor+t/83qFPgpWAc90OH5Y5V0+UYvBdhnRETrkgG+qUx+5gwZ2i7UM5owrJMhiVQ6wC76ThropFLwKTJM5rg7hIw4nKUBou022SkmJcBN9v8dJhWzIt0PicWs2ZZxj4mFvNqszwjRvJpKa9Oy+M85djcYHGc0Sgh7Jd4L3dlBoy5nm7AO8v7cwDvJ6e8OI87nZ7y0rzPeXZVLcoTm8GAVVhShyZonl0nbyWjTQwwQ15+jeXIeSbNXr2RozQ95qK8Spai3GCqlQsNFiJnOGdpkoF5WRMDXWakPHgvxLSYwwETsAS3ZO46TJ59Qc+/k9/6PAPMsgO2A9tRMTjDBFKG5cmVnbocVicaeKrMkddYW+zReDYvW0JgTbuhHSlXSG1Rtph1f7aT+Wm3/p+NKSWBcwUJDLBAGc04e9Ridu3GN+vV4Fb3eW03sGewBVxm7NLWuzLDbTbSMFtK0ah1Os+KHYGBbaotojlIk+UIuUZUTK7e2NnaZikjm3a6geqyekvDYcJxGsHDotSaY4sn0m/kxoutMu/nAzepvgNSynjRNea3zsi9mmC0t+9p9uCOR2SNQLY4W61FkI6i4aVOp/vFdmMFycXF/492Sdi52p4wvonIyyB8Y092lzCGj/3kSX1TINoeHPju6EUQBkWoVKb4STh6hwIOKjpASrYYoss++cl8Gdbf3vVS11vBqC5B0Fa/d1i5PgjTLBx9I6t1nM6b4Ct85o+0dCSB65ZfIC0e+TP8CjbnRfscH3zwwQcffPDBBx988MEHH3zwwTAEt/Qy5Zmdpzi9LeUkVIoYEkLc6RIcjhA5Dpx1w0EfmvNnCJnsAc0mY8unynVBKw1NtyWgOepnjtNbBoNxnmpVZd2sYpMlFVH+cB4fH87LwIfz+PhwXgY+nMfHh/My8OE8Pj6cLcHf7XantuTJa87+sWw8NCOkanyUG/dwXn8bJnT+8XgyFmZZ77qvW3PSv+Z6cyhAcwhP+vSabA8z5yR80MO8yTPom2qerw9Y3xrg/C7e6zXnqwvdh/yyp+CZ1scGAXS563Ks9tWvfJkTQN0nVzgecJvqRBCGdTl+A+foitp8MEIwyF5EUtZ7R0geIwjc2gzHV5zPafVw1K2wvckAT0wiBMFC2b4QVLdEqcLJKV/zIn7AdQzk3C4E8pOB815JgCPwZgqaBVjOEiQ4ZXGRF5xZgri48+ZcKImWkEib3+kbe6tIwwm3yUoJ0mWzEeB5SOW8S7V5ra5WP/2btjGIezgnDnsj1Gbsa/PkpX0bftMG3Te6hMy2qvEXMKSxYboPVuS8UU9upo01G94SUwIsKvwXnEu147/DTHsj/ecr7yVuLqRnepHUsPWNfb7enXEC58BEuXy2I6e5bU0fkx2dpue8EdWO1dg+mY8cJEKlKXaOmaFxqlKuchI1yYstZ0+kLDcmTlfSHZWozu0QDyeq5afjHF0E5UCE2glfpEykewmBU/XsNpETPb2s3f9IMMzCwAuuOZZ+yDknLQsEb+HdC/ZP1L4i6ZSJEUpYlwb2UDWOHd4YhXrOnpgpCw50FBb2sRGM8us9+Ho6sG3Jy33KnDHMryWnrxyVvGFa367d54qdgIlpvS06fYdxjrhdQPjKB+Uka4kIVQfWAuOQK8qZ7eKobZPC2c+Fd8YOHwzaTZow5zL9Fro966hdzrDwuOuyiXO6YNJ+qW6MuVO6gHHmZzrBZ0eLE8L+Q4jO8+3h8NLp59Qku0cN50C0eaCV/pa9DUo7Y+Ix4/8RazjrNx/uqTwJlsfXk2AGKGdeQwzI91o/GEGu3VyBgLwctc4BxvWBixLnk3g0GE4FJ4v1XahU0L/yd/qWORNH6zJHTIWh6sX5ipwLdnvNVhFGGjMXgZV+Vb5PieRO3dUO570gZALEojNMMrqCHcwe0aLFopz12dJ3ejNtYecj/3nDmYkZavf1sbZU0Dsq5tfnPAqcd4Uo5EdHRNRm6wvoHygHcOxyNlUxpj6Hoawg79MNZ9ZBb9rGTJfpqTusxNrrA2lazlfBHBGpGBwrhY31gqPqVw8ELWdTeVsmSWiYELJyJA1n1tjgWdNi7HS9jVqDnsrgjPNF9LGUTcD0vB1kYEH1r/FyWp/E8EiveZLxECiPqX7FmZb4NNZ0Z8Nx/f/sa/acO0Q5d7wmrFTMYt/PNGOm1dzq1VPGGZsW8qkCmiTHK0nVnOkcCxs3n1Mdg9XfqToan0yxVmYNpFCY0WmDc9t6Wmyf9JtsBM7GYtX0MC5sfCdqfGvOofB3LUJhEkZrjWmGgx7OGjHzGrLYAKolte77fQpWkJfa2uXJvqaxMe0JuOrCtAuCnsq6Gs5q0sEWqo10qLso5Wwu9krVyXxUzl0QXSNzYq68SIt01yrGbPxrylrOinJ4hjmkwjkWOBszF4S2eohxkl7OVAdh5bE0RvxFY5VzO7dA3b449CipOiDAOBvr6DVj0Qs5s25ZWUR6+qA5n4bKGQtyRsbGMufS1eTHlZK00yUGy/kqcDbWQ7g1NMwDCu2W9fgd93XRQOjP1J6Bnkgw51zPcDz2L9RxewaezkFqU93LmZkl45ux2FD1d1oN0Hy6YSx0/rvAfwDnounCez5LEjPGuN1WjpEXAZo5SS9netAcNkVqT6IbwhwY492QYNipnqOeBQp5LsljNmItPOYl3I67F6DT+V7OVGuM56hQ0TZvfhJdPN3NGprNRICF4no6tBIz4LEBsZhnQS8NyVLr5cy+oKGmddSddTEX0FBNlb4ZtZjUHzR7bTXU2BAv4CQUbaXGYVCB9V7OzM8i+qkSG2SpsKjUCdZ2/6AzpeOzVH1jBpVzG/hyuS1gHRoMSLbt58xnabp+x4oSs055pAYH6aaxbIbB5rgR6P5bD00M0Ocxt9Y3oSrkONoxo7Na18+5nS2qkwE+XHJ3nR3dpQlXHHn0hkmHHbiqORAxuj/Ds4mzEC4l7MFshNbp4xVAcQllAGc+9ikVNAM+WPL/ObFIL5aTj/nZMK1YeXVfnEnSOVdhV3dv4rzS+CZM0KiQ7Ng6r54sWPkBnNtQJr6JhuwkxFzbqzzghhxxeIsOPMghrnjwxki0euuwaayNezZofRM2++EBRSmEwpa1XO6tDuEctcsBMNs2P42SZxupcUXDceMLsPDGVp3PYespd4KrGbtMcBrQb7G7ssbGdYyV6Jvk9MqV+5/YYbVbou0Dyj1qEOfVuV2aIBCm+fNSiEU3umFLXwhoYOhkz8sNC6sJ3Y4u1tDDkGSX5wO1jetwgmldUvVNuD7WFVyyOK4qRfD7A65egzivNuJ8rjoRXvinA6U52RG/aCx38+4ak9TY/X7BWfBNmC7fOvfqrFaJtm0Y59XGNa74AWVKdjSXH1ED7r6DTI1x3di85s4XCVwmwodxekVQa9lkzkn4pfUQvon+1QjUBO/9Qv9sAjTT9Ehcmeg0bliaOfOO0YbUnob5FS4EVhJn7+u8y7Wko4vmdgTf9KGvULeqjB39FEq7no8QM/t0P4bGJfLZ+N6qmgc1siHdBIfI7fwqP14vR0P8YCOXxCKYGF3lXSY/HOvXNiocczmtA4GQj9iN86ut1krDxeK44cdA6loIZlIkqaivs6BafjrEJ2PMJLnUpYLqPwiC7OW5DN9xaa4RaRpjUNxfedW7A2oa13WGYCqWgttV6Tgw1/7uXNkZ2PX5TiHho0p1s1hxwctfkda0BHv/nL+o8hMl+zgr0iJ7fm36iwGdg0N+S4vH87rtzxJsGqe3Z+hJjY/P4mEKgu+eaaYq23dwyEphpo94n+j87115x/ZXm/DaeeJ/sWToJRlk4p8AAAAASUVORK5CYII=;" vertex="1" parent="1">
          <mxGeometry x="360" y="510" width="120" height="102.71" as="geometry" />
        </mxCell>
        <mxCell id="-X6ACY5F_YXX9V9hznT9-8" value="" style="shape=image;imageAspect=0;aspect=fixed;verticalLabelPosition=bottom;verticalAlign=top;image=data:image/png,iVBORw0KGgoAAAANSUhEUgAAAS4AAACnCAMAAACYVkHVAAAAolBMVEX///8A2P////4J2f8A1v8A0/sA0/kA1foA1P0A1Pj9///k/v30///5//8I2v4A0vnu//9N3vmI5vdY4Pbh//7Y+/3K9frq/v5u4/d+5fnF9fum6/ir8PqV6/m08PrQ+fzj9/sn2Pad7fl+5/c33fq/9vzG9/pl4vdW3/li4fWo8fkoz+9E2PeR6Pq69/x03vF06vqH4PNP0u7S8fWA7vux6PObefI6AAAVHElEQVR4nO1dDYOaSNKmm6YREBBnEGRAA+pgsib77uX2//+1q6puEAGdMXfvJBt5spmMiNj9UF3fzRrGhAkTJkyYMGHChAkTJkyYMGHChAkTJkyYMGHChAkTJkyYMGHChAkTJkyYMGHChAkfCQ5/9H+3z+PD3x4PvOWJd36/ch5vaX1YxrjhZrvPUVQvD8kbNCSb9bE8lXWVPC5dxqq0GEHK48G9dhY3slpKoc508o8c4C8EbuQhM03GTOLBKvP5UHBckMBDpEnFM00rdTm/Su1vCqDByC1miqAlgs3KL+7lmkRWDnvJWECUkoCZs/XPGvTPA6jvZ4kkyWNaR45gAb6w9vGFoeTGPLUUm7PyuCtSR+BZ2SOqrxpZiDwiJUsdfGUyWfjdcw6lMEGmhKyzOb72dxYs3+jnDPgnghvPoLhYOW8OLCqHVqXYx9oX40gOkGgKZ+m1H0xBvqzN44lXhQbxtXNgXoTKSh6IK9dITgKXqPU56Zzl4UnHjx7sz8cR9Py+8xoEJo5mzAxYWJApiEu0BMLJ4L2OJayBQWfx4cP9ueBzWHuiOr9GgrjxhdQ/+grGN1qcs7rPzMFCZf+xo/3p4LEF1m51qYNQwEpU+OLog0+Gmv+LPn4+ZeEAoZXxYNgIwZxkqLLnR4F8kbPFcCH2PFJu7EEs0w8a5S+DAlhx/DELt7a0ry9Oz8jWBV/wgRTeejhdv4NJ/zE8zDk3qlC5+ZEKivp0LdFde7QoKAVGTmNvAF87Ac6WGSRjbysPpHxAutgIXegyHGx08ANRDxQX4QXc/NIfeeN3BmqgEbpcg29DU2AwbYrdaG7rBfz6h6NrB4SM6C6DJw7qrdLGXM2ov1CJB1yMS6BjjK45+gmsXBQWxj8HY5hl/Ypa79HoeoFJO5f5QLSKxhFTNCU4ZCn6X443SOJz1HoPl5PYABvhMPFeoNaSWwyKyF8t/YHj/wRn1B830F8DMSw2KzZ64nVAlyvMKX8zLzGfcxwwiocfLqGahCwQm+YVVz88iQpeJSSAUYkxdnVZL8PY3BTviRmHVpXqc+4/slbpg5CIguak8s2gvP3IDGih6Ql9mwUskJ6aplZiPA5NU25uXFmBG59WCtmqRbzoVjf/QeDGsauC1AzWqLiCbzDD1wwnua0xh6Myru0cNyBzdvyOL1irUpvAP/irEMJ29rvtP5OuJRYNtT/ge1m+TCMJYTWsNEsICXMTM4GpZ1D36To/fGryXuiwOfOrFz5jjR/uA6iO3ub61wLd3gOaRs/wsiqNHGmhEDBhBm0ZjUpDSB+JiAjlqS4yzzdOGGGr1XkbaypLdhHQS6zsfrT+cn3Af/WdHspSdAI5onwNUiVIukx2hmnSnFvSpINrWCyVj3YbSrpYF8QXGJPdR3u5tVOWf4xk994DF8XL+8JMfftRrijBZUKwKKzwDFiWLX/wZqBruCz13v4WRdf+pYNdJJW4gY35WESMltIPIskjKSgHSFSYQoY2UiGXm0MWPzeIV4dDjrlmMwgtvUpN4jaMije/fI2176fLY89rieJlyucfHfoPgUdwjzBCue9TtIb8zZH6Q9TUhSyjP1+yT/8nruSUNzO0jqvV339FpbRwQRHLQh7zReOHjAKlq08XN1YOydcHp2MjvEV3Shf5V/OilK1mguDv8Ey5mK0q0o70lGC1G7WVQQZ0pxtQ0CYIZ5kY4zkxxBhd6LeBmxuYMv5QfwKkK7ibLiCrKoVuDQlL7BMpKSPIfbR31mZEf3O+wIyO9JRyB1kz7VIKtY6FU8yvWrkrdBkF6cvlh/bVgXTdT5excbSNC/d/fTcqsISh6iEpUOIGU1Mf4hurKVy7WMxle997iULlhM6c6pqBHqfLMOY2vvGx2f676UJjeFT6Wjhr9BQ5RohoozimBMVZ/TbhDlX+1ZcxZuV4AL0PEAy8WOFIWs+ijI1RSblGl3FE5dUs/DYm8pNtlsULd/RaKk5beCt1CjdUFbl3CsBN4izbJv75CFczMAMn6Zz3Nl5Vz4h0ioX+DJrXvY5XgtmIcdfhMCk2So4VIJBypd6c56VUXTvV6Biu0vUXrkY9eGUsuJ+tSylRWE/LeDArOicuwJu24Qyn3K0GZKmrrOAqNhO2XabfdODhb142eb6HcdoV/JLnn95mCr+xonq+cF7mbQMzFinCLUbNwFubfudGXKT/qpcHvx3SGrvmIB53kfFznt7/+0RuxSwdS91fpesr0mU3SwMnDsSDLjaVJyhPh54+5NzdnCTFBeocOqUvXW5e2m0UAROtaGnMHeU00mcxssuv2qaLwc9wKPZ63vmWBKUmNSjaPve4xcrPEFbZ5B0oacNAHjJLLV81S1wSFfWFieMIX1fo4kq67Ea6XCM5KmcMZxVgpDTw+r2jDPA9mrQJ/lwgMePWPYs/Nz6wOg9ilCghus7xKv14s7cWeags9Jec18t3nihczkKVTnbp3IPTxizWTgU7Ls8tE52JNS7my/JjHBG3I+nVq3RhD49pL9rb45BfIp0yAs9OUs3u2HFpuJE5ZEzhFMeWtgrNLgMDbmz1Ocx2HLxIAMJUevpON9EcjjR/U33BxVBFz46XM3U5ugWiOul8M6a00Aw2cV7AxM5QqUL3BF8nX214K+1lYN2lRDFfDxyKK44E98nx2ruG0o0x3P4gsNMVKhs32RxtnNnRby7n8oONAmM/vXxPFovke1GSmDirAVuB6dRwUuKtvp5wwqxcGP7nY318QoFjT/UTIHu7D3mOfTXos/eWu4+SFNgYBRpKo3mSnaNiAa4Ypj9R5mYkAuCcrQb3pkKDa237h8fpgnuE956tuRLmBCfPyq3RNsVucPlgFK9jBn6A+2EfYzVCOOYX2PFpnpvTuOE5SIg8eoa+ivsFOGZlol+jUWuMy1tsceofAU+nX9MxjKWKHFmTMkUbKToJCdTrar/GnjI66kDvIkbROmZv08UXJWZynMxQLkNNorZos7WGkjdTduhP0fg2POB5ha0CgxZHlC2b1icsEnS8jW0Ji5FrX0jFjJ0h34JfKk3dPw/uraRQSMU4hrIjFzkXFC96Z2upM0dzCTVwGfazfpd0cTVVI9mTGlFeKjjOuJIdr+Mjwd8MF31bYoe44o+XXpNZhBFJa3OM3G7SHJ2zVk+L9podN/VNv4uD38RENer9pUSCllOXZzPWQ9q4RjWlCp3FyPdxKoL0iUS6go7MEWHfSpSmINyqI+7epMz/QO2xQHY6FPvJW56jpP/ZXrYk1XR5lYu1dFfMiFGMPdZPw4lJU9fBQHJz0acragZBlDDU6COLH0JOs28cMZtqPiXJp0/6vzgrUAMDW2RCEFv0pqKBPqHGg+stdzBsXK9Pzai36Gb06wcX+d576OIbwZgzzDZw1zVcNALWa3PlLwO6yvbbQXsFVjZWyeEYZAyUF9HF7A6UYwXLpnb1TJfoNRyG8UyKQcu8c6CH2FI0G8Q0dpyZfXYvPnNXzHgAwZCX+zGaa1J8o/Nc8G7OurrL7EgXX8lg3L/CIZfauHbRL20EyhcFOSiaheKiWYT13ZdXnoEJUguWLCbdzUW83XpzlbRDA65zZvDZEi4tV/1rdGd7l3TFIQXGRj+2cGlXgdJdKqrezrrZdbNdpwYZHzhEGYw+WWgHTPYypCugZCI7+9QYWJxWzUC4Byo6iMiY0esWHlqAjWYL4UHE6Ni2Ux4rtAv4QU0X2Ctcmc78lhK/S7rcPU10xDJiUoIFgpxMHPOFZcRfIDZSn8pCVRlaj40KUxZhP7e7PrvSLWdltNy657pIJoHRejHEs6NSYopEY760hQ5t4N6mHijSdjGCCbTBx7nd5HIPXZxiGMyVDhyvpdDhBc4VHaGiq7yE2v5Dnyq12I3oQHTWRjQzWUYqbVRVlR8pUHzVuRh9jQ0eDKRWbbL5B8QIeUmbUcYl7nnDYVIIxJzcQzqP6l10RliQ3qyO35fvQvEydRzcvSg6ZOSrs5QrN5X6SJqih8laZ3EzMwXb45GL/UD0+9KCycjn/mgv/S5aMdTQ07lpOdPx8BhUjZ2jY0uyKZ+KQ3Yoasc25b/t9tocr2KyP286VHc5EhgkoLCckt5hLFuICs0aaEo1DXCpVR4FxUy3D3Ll6Mq4Kcl2L+KnM3AOZtVAX/e8+txCAVlfqGByny794g4aOlKq2tWN1pznJVXzzAu6RpXEma47s6kHi1T6RZpIpZLl/DUMOg1uXimYDvplm+yoJLn+XwV4793QFmMN7J+jNtabITanLwMD1j1vI7AUubwC/e3kVclCJYxIoP2d7FaTNihq6c3K+N2ljYoyDXLdzYwkIWUYMI9jUl8lyf586WALwMypvWYECxROMPiYR7xQUj7uUjPNWTrijvVjRlDP4KHu3c6JmXyzhqYDD2wz0+KLhmLXvfbWVnss/2d04YU2NqVknI1vNFfGbKq15ZhNvYid51n+tTokzSep8VJFi1SvSxpHwH8paS1Zu+FXjsSMhTDP9o7gSVN1UY/OVB0EPRCY9la/1DcwxrSYXhA8wZRP+b9zJNR3b0sqA83KvCEsaprF0UCK7jza/ACNb2UpLU15HFOoRcLnX1QRDu7A6Eh70uVyF8k2w3MGiLvoYBIV1x8zkGD2od+Y7oWBFkv0eCnwvLkJ7t7FiIm4hCpBARBWUawOTlegKkGqlBhf3OV2AhTimLMN1SMdslhAZlKg0oJxWpE33o7To4trLcT2/vkQLaqdcSsJhbGqGfWuj3QFjarHUMpkg2xeF5HJ7qJLRUAbh7ZWs5mTbhYcG+SlqnpVM6aWfyeR0oiXkeOAj+rwcoZKbPEShaoNRZS5248WNPqLkeu4qJO64CubikI3+nl4jF1UfSe0sxg5vTKDmy16P1TFxg3EtrbSlqzRxTqpqbqqlKhjkc5f+LGQOluGEoAle1ZKobw14RT+1Xs6SA9yPqdMixO31waH0MRcxvmRMfQvyZoWOKWZ/LN2wB+xbZ5jehXhYwqNd84B78doL4rrw/GMWwI4jmTtdB33J0/V0UDkhdozzJuRch3L1azpMHLnqwL3C6lIEGS0uLXJeCybekBTiMuxmVeOB2zaZOo2ko239ZwP9JV+a+lykRUvvDCp3yyVHjyfBAPPTotWJZJ0PRutNLwXQMCiKmklEWsidKI/i7+/zzENLT63p50/Af48BFDfv78s6xKbDLEkhZ8Oo/z2juwhXbxxORurwg1S/8zZGG3YTatrLw/tINZaMxkd+VoHF3S5R7yH9teueGUOVoL0SwzB7IyS0mMZqFt8oZFcO5YSES0nEKehJpK7b5vDKvYShBevDptN5VCfHBAl2rgbVF75NVaplXvoMqjIggm2rZYkkBNKr9ppW0eDoGdn09LRF8f40LSXZ70KgQQJacdhgzgJtUPUJvjnS9RubVa7VmPB1fLpLvnSSsnP0jaQDsymLQ6c09nMQoTwBzDD7kFmtjzpJ+Ycz9rnBl3miHQZ+czUDSX6s1uHVrdTxGQx53ArKUI8+zVr9NdE2siye1Ax5IXVVWVG0z7m8WKeZMtSUAJEf4bSkKa9Sxar+gd3f6EbAdY1FOeYum0nVJXMQOUBGjJRCmHpBtrHfgOcXynL0upjxdkYqqKryewyOh33Nm2mNMOilSY+39M4nPQl22Yv63JmhhhimxdOyqtaBYGQ0pGqns3K50Z5rahOzmxbUnT8A3RheC29+epljbVjtdRMTUzT/6zq8OiKWjCKz8sNSABmeu33NoqP0EVrC1OlDRtGUiuKmhQiThQDU21wYKlFOrcoJbHpZBQOdMsm6FUiheyc4ZBPi7Mqe6JcJR3/sW33ayCl1Esi2W6qdb2Hm4KPbJG0HGczGdr0aKUyXb8c4sZq4t4r+/ubl+fwBUDzSNG/ohrJOWgBi7gppck0XaDZypdOGYd8YOw/o/Q1pQcX1ARz6YyhV1nKc/ZHOpXRUeuLkzBVB0Y4vqn1LURM9Ilektf/bfWqEf+bduu1okR6z8Oc/dubXGCRFVVRjJzoV1UFb33qPNEQVstyb0sUYWe/zEb6UzD5DEtJOk/FM1qDouheWytkN1uXsBLhMmWdzw3ePiMQlXUBa8gOnTr7kaZ+DGfYYCcUtpgw7b+jzy0pNrq8OjYtXcSXd+KqpvWTeBVjI9uV6czj1ffmbaX5+ufh67m3+k5NdcMvhut/8m+N4DrI0Zv1HsTF6QkkqgjocrXNeFb0zsHE/Dseu6GnM5g51wUMcDf7F9afuHbvz44E777uXaMTGwy++M1BX8fKYgPBAfsC7nEQVmo+EWNjPaQpe/cjlkbuI32jC+gf59dnSh8h/inOcTvFkf73NSWlka/W7/yQH8FzipUHQ65mqGspGZJi372z6I0LO5ff9WCEN4c1uPCd/va1Y/8vPcLFladBtFuwKwusMu6n7a8ZbAwo3+NJ/E7YgWEc2+nvR2rvOnWHz5Qx7sLFtP/jPcDrylNKXCxTwSIMsCvWXrcF5hacHuD1cHQd+35ei9hp2jiPSsN2+eJUz246nB4Hx2HJEIHa9lXFJCwaS/25YD0fT7p4Pb4YiaAKc1/MfubuGJ+PqLvoWSN/DF09fK2Ce8b2Y+bvQS0jeU9uXy/hy1zqjATu9hnxbr6C6dw/2jNwqKNw4KZyirNN1T1uYpPA0B/8PNIp+LsDG99YkwNu4OKTGmfUH+59oyfqWYPdURw7BcWjPdQFK7H9jATI1oqq+OKU4GYXdCdk3YuC+FaqnSIPhifcyHl+SVnLP6lENKupqveMmxyZqtI0ETBXj5X78U3z/1BwfMibab3qgihlRTaqAmkVOnhfRDN6jP1TW8/kqq1t1AP5zUG7f9AhUEbO36gnywrqATNop4hLfYFM2Gu9IZZTCI47Zx/MMgIZ2LsuTtRZ4K+WjnqMv5UmOpVC0WLmUPOqCI8bejgSPu0fhGvEff3NoRswWRil9ZNj6QYR59DmQRX8XagKa1a4r9dPErfNWq83rvvbgnbwtyVEahBZjsQ22d5i+rEvmrjR5rffG2ToNlTCMilCbB6iMTjPcLOj1GVHPNFa97MUDwGc8PYkBW0ukGGUn7e0d+CSp79NHf3/CVIbtMdS4b85FDOrZR1F9Tr3ejrr4jyO7apFHe2P680oqY+De+b+eAbxCt7RIfIRw/jlQc/lfF/Bij+ihv+vMLE1YcKECRMmTJgwYcKECRMmTJgwYcKECRMmTJgwYcKECRMmTJgwYcKECRMmTPg98B9O9RDtaPK4wwAAAABJRU5ErkJggg==;" vertex="1" parent="1">
          <mxGeometry x="434.62" y="690" width="310.76" height="171.83" as="geometry" />
        </mxCell>
        <mxCell id="-X6ACY5F_YXX9V9hznT9-10" value="" style="rounded=0;whiteSpace=wrap;html=1;" vertex="1" parent="1">
          <mxGeometry x="990" y="387.5" width="880" height="640" as="geometry" />
        </mxCell>
        <mxCell id="-X6ACY5F_YXX9V9hznT9-12" value="" style="shape=image;imageAspect=0;aspect=fixed;verticalLabelPosition=bottom;verticalAlign=top;image=data:image/png,iVBORw0KGgoAAAANSUhEUgAAANkAAADoCAMAAABVRrFMAAAA8FBMVEX////0dCiZRCAAAACTQB7zdCjrcSmRQB/3dijjczPZcjyVQyH0bhX5vKKiTyr07euRLwDvdzObSCScTzCGhobc3Ny4uLjvezqiUjBSUlJhYWGYQx5mZmampqb39/eQKgDQ0NB2dnYUFBRISEjw497p6enFxcXzaACUlJScnJwTExN9fX0zMzNZWVmvr6+Li4s9PT3+8Oj95tv3oXYfHx/70r37yLCUOAP5spDo19GWPRT1hkkrKytwcHCpZErpYwDbwrjOqp7Hno+/jXv5t5b4qYO3gG383Mz2jVSub1j2l2bex76lWz3oiFjryLj5lF7T6cC/AAAHaklEQVR4nO3deVfaWBgGcOCqg52oMAWUJSkIYQtgtLRIFFtr1Vo70+//beauSVBQLFmA8zx/VAnX5P6yvFl6Tm4igSAIgiAIgiAIgiAIgiDIZubxavTl8FPcvQg+X39lnPfZtJbdMNv1/qicSr3PJpPU9jnu3gQW47rMXEK2QbaDb9KlZJtiu3GUy5Nx254Rd9eWzAfX5Zdtgu1DaraMhtpO4+7eEnlBxmzf19f2oozZztfV9oqM2rbXx9b45Ovqq7L1sTXunJ30Rxe3gIzZbs9i7fQCGd+NnK3dtKZlb+95UV9IRm3p1bYxVzm1tcv72ro4P1tYRttrq2sb32Ucdl4WMnYybv3YcxaVMdvH1bQ9CJcn47i/FpetrM3d73yy5PabZGwf/rl6tkBkK2kLSMZt93FjpvK67J+dhWT08Gz9jt02frg4l50IUMZsP2K1PV5l9g+1Vuv33lnAMma7iO1h0OOvjJM6OkzyM1f61glWxmzxPMT7epRhpy8uY/HOXEHJmC2Gh3iNkdhGriwdgiyWh0GNcjkKWQy2yGTCFsHDIOP+NGpZJA+6jOv3u+nDn5/vTw9SEcpCtx1cH4223qXpfaWWfSd7G5EsGeqDrm9Ho3Lq73dp7tiJXJZMtvbCgR3wx71SllSyfXWVG4FMC0uWSUEGGWSQQQYZZJBBBhlkkEEGGWSQQQYZZJBBBhlkkEEGGWSQQQYZZJBBBhlkkEEGGWSQQQYZZJBBBhlkkEEGGWSQQQYZZJBBBhlkkEEGGWSQQQYZZJBBBhlkkEEGGWSQebKNffua8c3Z0Dfm0a1248i3HLay/0b7/sZk2K/Nbtw4u9rFx72z00bEMk0L+5XZjf9O+bsvI32baAQunzBCWbSv3Y9OFvVwAo2RGAEhbJmWjnyYhK9X3BauLAaXa5NvNNe2f28FLovJJW37h2xwGDbyTcBvoY/TxfL4kL34LjoQrGwFhsZx334cpEzTbldoqKbARuhYMVdwMq21akNrBSNbPVcicZRxnsveNnoRc63isIqPV8LmyjR6wLxhxCna/vsquljGD8wmZGl6P/XpDaOEMVfc/X8pzEZllHUhhrRcVKZtr+z2UhnfZXZa2XN1ml1Ilta212LY0sa57y5xAdmaDsf6qiyikUWCzyuydOtwPV2vyNKti3V1vShba9f8UZy5K+7OLZUbx5kx8jatG2vuSvCHr86T0dKp60dso7YFmcadtEnZprhYpI3LNsnFQm2ZTDnZam2Yi6UxHo/vaeLuB4IgCIIgCIIgCPInMfLVqhnWzPV6vRnWvN3k60Uv9YGaavUIIZdFb/mmXitO9ICsdOalYOb0QvLEn7aYqFNVv9K/JORENhuI74eFIJZZJX2bhLZDqFDZIO9GLK5Diew344SQDp/SpCu5mm8WCakGsMwJaXbUSgwv+eedrRKiy19rRKzbntx76qS4/CJNcmzkSW/q+bthGvKn6Z9omvOe0htPvnr6eaasRCZue0Isf6MmOV5+L9JJLZEoEnUMVyZVozYkw4mRMCdD0q3IJeRrNt3/eyW25PykpmLxLzt1emj0xSw6k5NEgX6ud16RTU3JWezIag6JWCF0c+aXlvXY/AuqhtCV1xkSmxaViil+2nxZ9ADo2uwjWwVNrxR02d/QyT1blYESqevk0h6S6T38uYy2erYLGNJTIN2lt1mV2PRfqpBzor0t0QXSY3pYN3mtGghw3+StSZ22boqUxIFSJ8eUa7RF0wrp9qjBpJvN3/HnMuuFitwP4DiriVU7kcUpITYDowhrkR8MBbV3tH39pZuuJn5UZVfZRqgQsWfnCfGfJflHQ4VNqfO/nhlaNJcu+4bsclPVEEJy/GdXHt4ltpFoO9F5RlQy2le+YmuiBd1MXWapeHNSlU+29oVNuSTWnE4NyNyvFo9O+uIXW65h1Z9jKSxN7Rem5coMW9avunua7bENX1HQP5YNSBA1v0f6HR6bVGR/BjNlRuFkUuS9krKK2gk9AZ/HfNmTalfxiv5U6G5RXP7/gKu+9Siq0RyZLtpUJkrWVg2nZJOXZNXpZbdnVxBdlLBlY5GiLtMTHZktY+tRZ9dE6jgreIfCUBUfKsu9Qdb0F0/z8sSUPZqzKd8Ww1e/dNKbL7NVHdNFd2g/++oPS+o7euoYvEFmHPuKpy5Lcc27OF4qA3Esi34J5UyZtwaKXGbQixT3TNpRMxGnhoVlXlFNsFXH15QeEIzWD1956vMaMls2lNvFEhWkT7peOTDkTRAt+mwGi8tMdYbh882LKcHcT03XK3FFM3tvpJckk0Khc0n4CTxHS0mzICKOPXtQaMsaNF/WLrgRyxiwexb2XUXexbB5dLuiWC113WiJQ0vGYKXAUDJVIfqiozWxOKvAVn3PV1FZa3ohyzIxxaqw58ientD4OiHd4TFRt2dDX4vlZNbUNYxutdm0Kv+Qk9/pllhoXs+1myab3ky0c25Ea6PatgZmYuoP6Jz8V1emlfNFHQRmu0hdtiUZNV+L0O+FQ4+8ikQQBEEQBEEQBEHWOP8DR1lX7mQKQ0QAAAAASUVORK5CYII=;" vertex="1" parent="1">
          <mxGeometry x="940" y="340" width="137" height="146.47" as="geometry" />
        </mxCell>
        <mxCell id="-X6ACY5F_YXX9V9hznT9-14" value="" style="rounded=0;whiteSpace=wrap;html=1;" vertex="1" parent="1">
          <mxGeometry x="1090" y="650" width="170" height="210" as="geometry" />
        </mxCell>
        <mxCell id="-X6ACY5F_YXX9V9hznT9-13" value="" style="shape=image;imageAspect=0;aspect=fixed;verticalLabelPosition=bottom;verticalAlign=top;image=data:image/png,iVBORw0KGgoAAAANSUhEUgAAAPMAAADQCAMAAADlEKeVAAAAbFBMVEX///8kl+0AjuwAkOz8//8XlO2/3PkAkuwble0Ajey72fjb6/uZyPV5ufKUxvXn8fy01ffv9/7n8vymz/aHv/P1+v52t/LK4vrV6PvX6fsvm+5irvGQw/RSp/BCoe+jzfZfrPA6n+5Lpe9ssvFIIBcuAAAOgUlEQVR4nO1da4OqLBBOiMAum+attSyt//8fXy+AyCXtvCrubs/5co6H1McZhmEYhtXKHq7E6YI8Lb7NPHAdGe7J9jtNDaBwhkfb7zQ1NJz/opz/Iue/qNt/kfNHt38hPpz/rG7/Rc5/Ubf/Iudfr9vqvOr3y9nBMty17XeaGr4n49eL+YMfjLWEl5flqz+yN++QbJVgUl4+Q/ky2pWXD/JlmNkm8A/YY3n0QXF5+YDky/i60sYAf6AR2yvk0GGl44y+Vr/FD/vfnH+gHzYf58ifjsV7mE+3n+59OhpvYTY5b6ED0/OETIZjLs5RPT6A65RchmIu3Y6bG8JsAV7MTJx3bGRHRTQpnyGYSbdzvohLUuuk55HzTvghSW2r9zycO7dDtn30WXQ7gt3fhBOT6sEsnD1pIgOSiVm9hoazfl5Vc/7HGGAmpaEQZ2JWr+G5UAKoyO2Vy65XXnbkqxgMsMKRoh7Yrm+SbCVs6ssb+XKtjr58dTtEtTfKHN0Bi5lwTIRQzrAqe4plMzY5HipnB9sepCeGYg8rzt4cT764oAs3L6/uIJBR9dxEbgzgd3k5Vi4/qlvflFsfhAf7UMOZzOGYqMazNiTDY4D6sarKA9ypt8bCk791nJ0hBv9/c1afDP1xfM+demskPDlRzXb1VTY/l/Opl7NmqKpazDBE25OznjPJ/cTbh/Hz8ozDvXeeQtXn5Sz2Z71uOwRijAgihCCEMIRFOLoXbk+39TZMBYI4HNc9s6fb2rHKQBuEY/oq9jhrfRITcDriYpBFzvJU8jXc8bq1vf68+npH0A5cPucBcj4P79DjxhMscl6RN5R7TF/Fom6vrm8oNxxxuLIp55P6OxNGjRppOAM95xcxwH/kzFar+jFydFCJ38HKQdyqwb59efmujwGmagxwXU1TsXy96D57sFsychTY38ioe85Zvto8NdFejvT3OCmX5RlDOEzQ+PeEyZJsGGWU237TcRBtDgQOG6vQY5xHKol7syHyvzf3OIXlhHEQYwePEiILlODcnChNGRrKtwSMx6D8eMfnswwERwn+5m+59lZBYD6K+5UMd34sA8HHSMOyZpVogSAIgudoaWOXJXMmdegPY+DE2xGjQfmCOZNLnl/ia5CMvCS7YM7o0P/6/4QF63a93jcFnssdqor+t/83qFPgpWAc90OH5Y5V0+UYvBdhnRETrkgG+qUx+5gwZ2i7UM5owrJMhiVQ6wC76ThropFLwKTJM5rg7hIw4nKUBou022SkmJcBN9v8dJhWzIt0PicWs2ZZxj4mFvNqszwjRvJpKa9Oy+M85djcYHGc0Sgh7Jd4L3dlBoy5nm7AO8v7cwDvJ6e8OI87nZ7y0rzPeXZVLcoTm8GAVVhShyZonl0nbyWjTQwwQ15+jeXIeSbNXr2RozQ95qK8Spai3GCqlQsNFiJnOGdpkoF5WRMDXWakPHgvxLSYwwETsAS3ZO46TJ59Qc+/k9/6PAPMsgO2A9tRMTjDBFKG5cmVnbocVicaeKrMkddYW+zReDYvW0JgTbuhHSlXSG1Rtph1f7aT+Wm3/p+NKSWBcwUJDLBAGc04e9Ridu3GN+vV4Fb3eW03sGewBVxm7NLWuzLDbTbSMFtK0ah1Os+KHYGBbaotojlIk+UIuUZUTK7e2NnaZikjm3a6geqyekvDYcJxGsHDotSaY4sn0m/kxoutMu/nAzepvgNSynjRNea3zsi9mmC0t+9p9uCOR2SNQLY4W61FkI6i4aVOp/vFdmMFycXF/492Sdi52p4wvonIyyB8Y092lzCGj/3kSX1TINoeHPju6EUQBkWoVKb4STh6hwIOKjpASrYYoss++cl8Gdbf3vVS11vBqC5B0Fa/d1i5PgjTLBx9I6t1nM6b4Ct85o+0dCSB65ZfIC0e+TP8CjbnRfscH3zwwQcffPDBBx988MEHH3zwwTAEt/Qy5Zmdpzi9LeUkVIoYEkLc6RIcjhA5Dpx1w0EfmvNnCJnsAc0mY8unynVBKw1NtyWgOepnjtNbBoNxnmpVZd2sYpMlFVH+cB4fH87LwIfz+PhwXgY+nMfHh/My8OE8Pj6cLcHf7XantuTJa87+sWw8NCOkanyUG/dwXn8bJnT+8XgyFmZZ77qvW3PSv+Z6cyhAcwhP+vSabA8z5yR80MO8yTPom2qerw9Y3xrg/C7e6zXnqwvdh/yyp+CZ1scGAXS563Ks9tWvfJkTQN0nVzgecJvqRBCGdTl+A+foitp8MEIwyF5EUtZ7R0geIwjc2gzHV5zPafVw1K2wvckAT0wiBMFC2b4QVLdEqcLJKV/zIn7AdQzk3C4E8pOB815JgCPwZgqaBVjOEiQ4ZXGRF5xZgri48+ZcKImWkEib3+kbe6tIwwm3yUoJ0mWzEeB5SOW8S7V5ra5WP/2btjGIezgnDnsj1Gbsa/PkpX0bftMG3Te6hMy2qvEXMKSxYboPVuS8UU9upo01G94SUwIsKvwXnEu147/DTHsj/ecr7yVuLqRnepHUsPWNfb7enXEC58BEuXy2I6e5bU0fkx2dpue8EdWO1dg+mY8cJEKlKXaOmaFxqlKuchI1yYstZ0+kLDcmTlfSHZWozu0QDyeq5afjHF0E5UCE2glfpEykewmBU/XsNpETPb2s3f9IMMzCwAuuOZZ+yDknLQsEb+HdC/ZP1L4i6ZSJEUpYlwb2UDWOHd4YhXrOnpgpCw50FBb2sRGM8us9+Ho6sG3Jy33KnDHMryWnrxyVvGFa367d54qdgIlpvS06fYdxjrhdQPjKB+Uka4kIVQfWAuOQK8qZ7eKobZPC2c+Fd8YOHwzaTZow5zL9Fro966hdzrDwuOuyiXO6YNJ+qW6MuVO6gHHmZzrBZ0eLE8L+Q4jO8+3h8NLp59Qku0cN50C0eaCV/pa9DUo7Y+Ix4/8RazjrNx/uqTwJlsfXk2AGKGdeQwzI91o/GEGu3VyBgLwctc4BxvWBixLnk3g0GE4FJ4v1XahU0L/yd/qWORNH6zJHTIWh6sX5ipwLdnvNVhFGGjMXgZV+Vb5PieRO3dUO570gZALEojNMMrqCHcwe0aLFopz12dJ3ejNtYecj/3nDmYkZavf1sbZU0Dsq5tfnPAqcd4Uo5EdHRNRm6wvoHygHcOxyNlUxpj6Hoawg79MNZ9ZBb9rGTJfpqTusxNrrA2lazlfBHBGpGBwrhY31gqPqVw8ELWdTeVsmSWiYELJyJA1n1tjgWdNi7HS9jVqDnsrgjPNF9LGUTcD0vB1kYEH1r/FyWp/E8EiveZLxECiPqX7FmZb4NNZ0Z8Nx/f/sa/acO0Q5d7wmrFTMYt/PNGOm1dzq1VPGGZsW8qkCmiTHK0nVnOkcCxs3n1Mdg9XfqToan0yxVmYNpFCY0WmDc9t6Wmyf9JtsBM7GYtX0MC5sfCdqfGvOofB3LUJhEkZrjWmGgx7OGjHzGrLYAKolte77fQpWkJfa2uXJvqaxMe0JuOrCtAuCnsq6Gs5q0sEWqo10qLso5Wwu9krVyXxUzl0QXSNzYq68SIt01yrGbPxrylrOinJ4hjmkwjkWOBszF4S2eohxkl7OVAdh5bE0RvxFY5VzO7dA3b449CipOiDAOBvr6DVj0Qs5s25ZWUR6+qA5n4bKGQtyRsbGMufS1eTHlZK00yUGy/kqcDbWQ7g1NMwDCu2W9fgd93XRQOjP1J6Bnkgw51zPcDz2L9RxewaezkFqU93LmZkl45ux2FD1d1oN0Hy6YSx0/rvAfwDnounCez5LEjPGuN1WjpEXAZo5SS9netAcNkVqT6IbwhwY492QYNipnqOeBQp5LsljNmItPOYl3I67F6DT+V7OVGuM56hQ0TZvfhJdPN3NGprNRICF4no6tBIz4LEBsZhnQS8NyVLr5cy+oKGmddSddTEX0FBNlb4ZtZjUHzR7bTXU2BAv4CQUbaXGYVCB9V7OzM8i+qkSG2SpsKjUCdZ2/6AzpeOzVH1jBpVzG/hyuS1gHRoMSLbt58xnabp+x4oSs055pAYH6aaxbIbB5rgR6P5bD00M0Ocxt9Y3oSrkONoxo7Na18+5nS2qkwE+XHJ3nR3dpQlXHHn0hkmHHbiqORAxuj/Ds4mzEC4l7MFshNbp4xVAcQllAGc+9ikVNAM+WPL/ObFIL5aTj/nZMK1YeXVfnEnSOVdhV3dv4rzS+CZM0KiQ7Ng6r54sWPkBnNtQJr6JhuwkxFzbqzzghhxxeIsOPMghrnjwxki0euuwaayNezZofRM2++EBRSmEwpa1XO6tDuEctcsBMNs2P42SZxupcUXDceMLsPDGVp3PYespd4KrGbtMcBrQb7G7ssbGdYyV6Jvk9MqV+5/YYbVbou0Dyj1qEOfVuV2aIBCm+fNSiEU3umFLXwhoYOhkz8sNC6sJ3Y4u1tDDkGSX5wO1jetwgmldUvVNuD7WFVyyOK4qRfD7A65egzivNuJ8rjoRXvinA6U52RG/aCx38+4ak9TY/X7BWfBNmC7fOvfqrFaJtm0Y59XGNa74AWVKdjSXH1ED7r6DTI1x3di85s4XCVwmwodxekVQa9lkzkn4pfUQvon+1QjUBO/9Qv9sAjTT9Ehcmeg0bliaOfOO0YbUnob5FS4EVhJn7+u8y7Wko4vmdgTf9KGvULeqjB39FEq7no8QM/t0P4bGJfLZ+N6qmgc1siHdBIfI7fwqP14vR0P8YCOXxCKYGF3lXSY/HOvXNiocczmtA4GQj9iN86ut1krDxeK44cdA6loIZlIkqaivs6BafjrEJ2PMJLnUpYLqPwiC7OW5DN9xaa4RaRpjUNxfedW7A2oa13WGYCqWgttV6Tgw1/7uXNkZ2PX5TiHho0p1s1hxwctfkda0BHv/nL+o8hMl+zgr0iJ7fm36iwGdg0N+S4vH87rtzxJsGqe3Z+hJjY/P4mEKgu+eaaYq23dwyEphpo94n+j87115x/ZXm/DaeeJ/sWToJRlk4p8AAAAASUVORK5CYII=;" vertex="1" parent="1">
          <mxGeometry x="1040" y="600.01" width="120" height="102.71" as="geometry" />
        </mxCell>
        <mxCell id="-X6ACY5F_YXX9V9hznT9-15" value="" style="shape=image;imageAspect=0;aspect=fixed;verticalLabelPosition=bottom;verticalAlign=top;image=data:image/png,iVBORw0KGgoAAAANSUhEUgAAARwAAACxCAMAAAAh3/JWAAAAt1BMVEX///8AlTkBljqHxpkAkCYAlTcAkSz///4AkjNhs3bP6dmn1rYAkzYAljcAjyz///1XsnAun04AjiD//f8AjyhPrmoAlDAAjhwAkikDlDzm9+u638cAkiT6//uQyqPu/PGcz63Y7uBvu4bL6tUypVoWmkWPyJ15voyz3cBUsHXt+PTB4tDb8eVjt4Cr27gfnkxIpWY8qGCt07SPx6Gz2cRfsnwrnFR4vZDR6uDV8Nmh1q/G5NdqtYN+XvvlAAAP6ElEQVR4nO2djXabOBOGkYyAxMhOKCbIP4nj2HHiJHW8/brd7fb+r+vjH0mMBE7TWnb67jlbYgNGDzOj0SDAssyR67qWe+iDMFUZmOGhj8JUjfv920Mfg5FyrU3PcRx7Mc7964949fGAIkQG/rVl/Qk9tZI4c7e0fcQQQpSEq4dDH5A5StCMzwIPIVyIBqPbP8ZTaHYfeYhilOJJ/ocYiZz15tBHdXBl1vGwinFOJbMdhFNGMZoPrY+d9iRtPx8FBPNwMj4YE/ty8qHZWNbNIoiQKFz8y6Lg8fnQx3dIXQ8cUtEo4RRmRBmKgvUssZ4PmTRPVk4kkeHgZHKi/qGP8iC6fbT9GgOuyIic0HT5dOgj/e3arMMs2BDBdMpMpwzPKTTPPktGFNanQx/xb1LSzjmOpfgrwsFVv44Ri53e7NDH/Pv0dDklgo2UaFDVlZeg8sgcf4wRhTu0ni8CvxGGQb+qRezluXX6Q4qb9UDObEQwvCFxX0b2y/jQx/5LlZz4PnMwIl3gSOaDURRdn2zoSQtYd7vQb+LAop3wiIrl/AM/3Kah5xR9y7XGX/OxAuYl/SWAa1iUd7U7zTrqrBdGUtTdG06Cx17cZMZzKvYzHCYt+YynUoonQ5D8rEp0RC9DsXd96Aa9p9LCxM5m8gjzTcIMIXv7dEKXcMY/Qk/RRcltF0I0kPDgZLxBPXt0KqFndo3iTmSQkATC2WDxmeN8O4k66mTl5NcVkJTXIfVniE9zoCiNSUyPvJiRBpvXgDaaVodaNRzIpiqahCR47L+Pu5hxswg8JCV07wEnlz894jrqbB5FrNk4rsFqEjwU1VqERXHvSEPPZGv7KQBcUOBzPoGCYE8AKZlXBSyNzOxz0q0fVUaYJCG3FzbNL0Hhun18maZqch1lNXDk7LlYoti3d3dHlvXM1mFEud5YbraYy4jfVl8Jf1RgUU07l2efHYtvDYdDy51HTjOzwYDy1texlrMoOeERMNWelv7pTdM6qmu8d6XHN7kckLasTxNn+aZ3FHXwZ+sYBqO3j4lH4d8KJ9kZDXfnh265XsmZ2/QcRRWUb0rZcdW5j5AMib2X7Ijg7pLQEy4Mr6P2cUhbjaazRey3A+r4htZRM3e/W04pfOB8034ejnI0Zq8mhwah0PglIFipugW1VwHf5R31G5UkzcHrrYFxedYbOPAYAcsLSO1aUGgRQep/AbPIXpiU9WTpxedt3JhMouJQWIhoNMLKwFhVgTQP2fXqiVs79Lsxvbo7TKugA0rlQ1aKh8MNLOAVhW8YY401mnvOJoWZMqKYLaY+pb5IBQuLibyB4wwGno/KPlxqkowDaDd1wtAZ+I2RiHRxNOm4wrObQ1MptLDh6TWlaDo8DHfr+V/9L4tLO/RQmiNiDJJUikbB8lv/r/l6GaRTnkpDbUYhltJydoemkskdD6rMBm4kJvFqXp3JzcPIjlHjmkwrG/ulLKrfXgQRLf2rCSe3vuDuQDxE3U35gwLiL7Gl+TXPi5DqaTT2Q71JHmWzUPLgqdLw6hBCM0rM5zZ0BnHZQkbT4+R7j2T5aRW1p4s1mcSnREN4shVgqj+MgyMcaQUnmMs9a3L2ZyOnOxyE7M/SLuYAHSGKmQQHdqhU0aiRdWSVl4uoTupUyV35qffa6Jp3nj6RdEyBA+av5d/Bf4rtLuG4AYDCQXPI9L9A75cmWQ7XErGdiKm2G7OuYYeQ5ohgZpPqR/hzUSYVRwHHe9Ft2AkPJlDSsvWJGo5BbqWr4Dg91XZDq3+FgBSnGXy8M2DzCw/62YrUwBQ4tZ00D1YNx3Wtno1VG3LNxWo4mB94Yr5waIzlvA3OMPnv65TRXwPHGMvRuJUGTqrZMuowcWcPt6pkDBzVwCELjDo4btJl+XJQrkNr+a8KTiN9qLY3CY7acNrgWOcDwtW6YP/Swck2a/ysQXB05q13q0QPAaJMvBizLxxIpuU5GOp62uC41r0Et+koHWJOw7NMg4Mgv2iDkwyzzmKs9Khsp9reqjluyY7DQLfaH06qpMt6TzgZHWPgqHurtq48lWvdrAiqHFLYUf6Z1q3kUnPxgTFwICglrS6WY916VIkX6QKy0tjMsZyfhmNNAp1f6eAoNjIHji797wRnaF0HMttqSe9Wql82Bg6RGsQXrLpZjmX9mLIqdIkpYWuGzNlpvaUxcOQzzoWPDgG50E49r+cNYytz4NRH+RNwNitla4964CmcMikIdIZjnStNZ1846TEYkyHDJbnciDrDca1Jek8WH0UwzoOINiDzORa3aAwc+Oyp4bjQLQvJCH1+VW0oxOaucHhOhlUCYYFwLhXzi37EDOqau7iV3NUZE3OgNKf8CHSr1U7x4I5dxICk6agDsjTuE0aDIJxL+ys892qz9TAj8p70eQ74u+Z05ZqDVMDxA0Wcfo6k2SXtcDDExhw4RIyF7W51ieiV4rkmE4fyRpj9vy0gNyOPQXBApy9oKSyHkhCaju+6eZclpkuRvmRRWamRMecNcBDyqWI2/jqQ4bTUc8yGA3YbWFOySOEg7xKcjO9aowG3fSschYyBA5y4Sgo4ScNofAHdgOhas2JyCi4vfO8Px6CYo2GjgcNIqOiyxvmcuKofOupRuRgiMH/9WgeHErjLGlpPoqe2wCn6J/EUGQSHrzeJPbqqt8oz/fAOTpX7QfkMgw5woEtdZsFRWLfactLGsIiN4VS5V1xjboPTvE5+MnCSdi8V94+dObSE0zoFxWg4hc/LPqXLcyqXcB4t6xPQZ822XrWfvYtdyKB6zt7T3jg4zP4G3+AyplVLlWOr+iw08kBj4GjYtMIh6ApoRvoM7fOwdCzV8EEDx5xpb7pZa21wkmQwUDzqpR/mA/T93MrAUXl1WNVSZziMRoqyac/OO/SOcIRzZAwcVJj/2yyHsOhvRdn06zS7saot5kAyCs7+Yyt+pQt417NlRDsEZEimBWSZj/rSjAwHJV0WINfasEhjOfmPwohMgwOYj2LCZAMOCvpwpnxut8BRySi3QuBp7AxHedthegvAKcDBGDBy9cCzyqmzJeooHk52b3cZlTeSQGPg/EyGXJmOt9q4YKr81WmDI5iqaXB05t3VrVB2Sx8kdxnuAcc4y4F6jNLI9XAw713hAv6BjaPvyqVLOcbB4QpxEiltzOGCTrLM7Gv4IRT/XAAfN/IcLMgYOLWd8HExX1TC4TCW/9JgAo/QnwFk0uVgjE8LTn0/SBUwYvCVaEMLeAPhEcERXR7XNXYYDqH8/MZa0fam6+NL0oAs/KJIyRg4YqVbbK4Ojny2E8WjWcdn34iTl7DBMWdfONkdaAAbjFRdVkPHB4fHpIUDFMeLzYKOz58fedr7ro2B8x4ZciVy1e2JbccChz/xfC+E1L0VkXu1ag8Me/90+dlRHpDB9NNsOHWz2wae0nXcdJGuujxTaiTeaSPMu0MmziZtnseuJQtuIIFQ/NqhwxrlGTJoPCbBIdx0M1latxKtpu554h/tD7MrLUchg9zqfeDUU7PD+3Y4/rHAqZtWtbOLWykr5CRofU/cqK4EChf3imVj4Ag2gIXpOfo8p2E9Vd5Mwn9bxhFcVy7ZHzLLcvaH08hoy2blnzNM2Y3es2Q4yFQ40oHxh6qahyzi5NP/woK8nf7hxhIc7rexuW4lTUNRwJFmZQEig68WXFTOlcGRT0W9P2PgAAZTtVkBp1yd4yp5GWXTni7sjLK7gwXrM9JyyN5w/AYQsX3pHmh6pU+tUXHrdBMOMgoO0mignKQNSXQREt6pk8HG2Eo8P8ZkyEKskXKXCHja24ZS2cgkeytEvbHSs1ZURlLtJrNYU+AIZ12CQ7by+q71r90IoSAcRKO/Z1D9OCF2ExQzmxRwTHMrqYRcKJBffze0vji6ySMCX/CSVQp47gBv6OFkEBwsn/26obHkV+m8El+wEwWhvO32Ggw7mxWV1pZ2ZRAc6Rj59rIkqlatSxIX11qUhgNikdhieyHTSf960T4U10C3UtkC5edPDK3vg+oR4Uo4fLiOd8+NbHAd6tiYBgeqVpZLPuPn3syDllcYyXSYP12LcwZvHkOm3ke+vUlwOG8QSsNZgkbCdXlX3t1rAJNUhJ58EDsYvEyq0un43osQ1483d5V5Y2vN43fIna08CA5vASS6Wva+f5+/rIJIenODspEVnOyryA6XL/fz+ZeXbRAraxXVz2MSG/LKoifbqyvrcDsJI47jxB5jWKjf5U2vExSuhcIa6fwdGg3COGaJ0WDKYahHHvWZwV4wN+WlIbcXARGCAICIiN/Wi6DBKKWLbYUYQ/bSjBcb5Jpsp80nSygbyH0HroXVfwFw5A+og80IxoVca3btDRpT2bRJHgwN2KJwvA67ydbxnLRvM+RNM6U2iyufMaGIJS+J+YsCT/PrzogJxuTq0cy3dd8ug+IRrBgS30yut6+YQOspdwYrCramvhrNsh5WMTkMnLxMgeepixvmUoWS0HPvOah85SBWus/ekilzDliQRTgafFPcTWuMxi82odoI0bAKYA2JSgd8NByZGWwqZQZ9t7S1M2eE5naC04FNvDJiuNBBfTZlEgD+QgHCb3wzWrkXmTWKnY7TwQ6vYRJ67Kj9ofxiA9tXUa3jBT9aro6ao+wwx2e2h/knqyouEzTNgA+7/DeNfRRLxB6Bk5eN1t2yuvVZMg6x09kLDr+P7F8abo8l2HBKYvN37GChzULD+FG8Ekm9sbhUfhF5PTNfF9yixNBvFmFEsJzpAAMDuXcHEBXfcZc4EKb2oyFVm/2VGM/zKIzk11DLcNDb4CASLjUXRI1X+tCpyeUUbKXAQwFCu2GYvdx+aOZYobOuSfq0l5acGfwY4pItMuQNjjPYiBqmxYzQazYfC+2GvpCqXJy1+fbZ8xF7VK20Cee75oiC76LUXRawEvLDtDABPCjuWDVZxdBlh72FKYs9o6qg76IvjrPPiEKlaPrtBIKNqKRXSbKe9ALXmwmlj/mK7EfFvflHr/NdSDBrZDZcZEFCkVAMQixJ+gyugv68HlYhf/ENwV082LVjFPvXpxOEIc16g/RV7ATp4cgOlXwW2QtT3l7/i+SmxYyAJFlc0zzUQ0/EmB+8Hl9hYk9l75u+W05b3uUuy7ePsTCxv7KT32dxs8wMVnhSWyKOdz07dbPhdNOLGvPWGsWL4sNo+nK0hYk3yP1kWc8XoWqmtiAS7tKHtX8Ys0mVFTNCAqWE9bWJhF6MP0SwAfTdc4ArXDUc6oT3JzdW6KiZtVmHXoWES4/zj7wgCTbwa1c+hp5HU5/PBMuxBcPMXv536KM7uCaXtlQoTDssGps1Petguo4cIg1D8+lZnz6yT5VKixmsTHAYwjQ42cLEW3S+C4uneGFKplvFA5I/rB62Icmq6A6apy/kOfJLLu+s2bUXRZ4zWJ94YeItSosZPxh7vP1YI4VuypDMZtXiHxmu/wMRFt09T+uqxQAAAABJRU5ErkJggg==;" vertex="1" parent="1">
          <mxGeometry x="1108" y="702.72" width="124" height="77.28" as="geometry" />
        </mxCell>
        <mxCell id="-X6ACY5F_YXX9V9hznT9-18" value="" style="rounded=0;whiteSpace=wrap;html=1;" vertex="1" parent="1">
          <mxGeometry x="1374" y="510" width="386" height="200" as="geometry" />
        </mxCell>
        <mxCell id="-X6ACY5F_YXX9V9hznT9-16" value="" style="shape=image;imageAspect=0;aspect=fixed;verticalLabelPosition=bottom;verticalAlign=top;image=data:image/png,iVBORw0KGgoAAAANSUhEUgAAAPMAAADQCAMAAADlEKeVAAAAbFBMVEX///8kl+0AjuwAkOz8//8XlO2/3PkAkuwble0Ajey72fjb6/uZyPV5ufKUxvXn8fy01ffv9/7n8vymz/aHv/P1+v52t/LK4vrV6PvX6fsvm+5irvGQw/RSp/BCoe+jzfZfrPA6n+5Lpe9ssvFIIBcuAAAOgUlEQVR4nO1da4OqLBBOiMAum+attSyt//8fXy+AyCXtvCrubs/5co6H1McZhmEYhtXKHq7E6YI8Lb7NPHAdGe7J9jtNDaBwhkfb7zQ1NJz/opz/Iue/qNt/kfNHt38hPpz/rG7/Rc5/Ubf/Iudfr9vqvOr3y9nBMty17XeaGr4n49eL+YMfjLWEl5flqz+yN++QbJVgUl4+Q/ky2pWXD/JlmNkm8A/YY3n0QXF5+YDky/i60sYAf6AR2yvk0GGl44y+Vr/FD/vfnH+gHzYf58ifjsV7mE+3n+59OhpvYTY5b6ED0/OETIZjLs5RPT6A65RchmIu3Y6bG8JsAV7MTJx3bGRHRTQpnyGYSbdzvohLUuuk55HzTvghSW2r9zycO7dDtn30WXQ7gt3fhBOT6sEsnD1pIgOSiVm9hoazfl5Vc/7HGGAmpaEQZ2JWr+G5UAKoyO2Vy65XXnbkqxgMsMKRoh7Yrm+SbCVs6ssb+XKtjr58dTtEtTfKHN0Bi5lwTIRQzrAqe4plMzY5HipnB9sepCeGYg8rzt4cT764oAs3L6/uIJBR9dxEbgzgd3k5Vi4/qlvflFsfhAf7UMOZzOGYqMazNiTDY4D6sarKA9ypt8bCk791nJ0hBv9/c1afDP1xfM+demskPDlRzXb1VTY/l/Opl7NmqKpazDBE25OznjPJ/cTbh/Hz8ozDvXeeQtXn5Sz2Z71uOwRijAgihCCEMIRFOLoXbk+39TZMBYI4HNc9s6fb2rHKQBuEY/oq9jhrfRITcDriYpBFzvJU8jXc8bq1vf68+npH0A5cPucBcj4P79DjxhMscl6RN5R7TF/Fom6vrm8oNxxxuLIp55P6OxNGjRppOAM95xcxwH/kzFar+jFydFCJ38HKQdyqwb59efmujwGmagxwXU1TsXy96D57sFsychTY38ioe85Zvto8NdFejvT3OCmX5RlDOEzQ+PeEyZJsGGWU237TcRBtDgQOG6vQY5xHKol7syHyvzf3OIXlhHEQYwePEiILlODcnChNGRrKtwSMx6D8eMfnswwERwn+5m+59lZBYD6K+5UMd34sA8HHSMOyZpVogSAIgudoaWOXJXMmdegPY+DE2xGjQfmCOZNLnl/ia5CMvCS7YM7o0P/6/4QF63a93jcFnssdqor+t/83qFPgpWAc90OH5Y5V0+UYvBdhnRETrkgG+qUx+5gwZ2i7UM5owrJMhiVQ6wC76ThropFLwKTJM5rg7hIw4nKUBou022SkmJcBN9v8dJhWzIt0PicWs2ZZxj4mFvNqszwjRvJpKa9Oy+M85djcYHGc0Sgh7Jd4L3dlBoy5nm7AO8v7cwDvJ6e8OI87nZ7y0rzPeXZVLcoTm8GAVVhShyZonl0nbyWjTQwwQ15+jeXIeSbNXr2RozQ95qK8Spai3GCqlQsNFiJnOGdpkoF5WRMDXWakPHgvxLSYwwETsAS3ZO46TJ59Qc+/k9/6PAPMsgO2A9tRMTjDBFKG5cmVnbocVicaeKrMkddYW+zReDYvW0JgTbuhHSlXSG1Rtph1f7aT+Wm3/p+NKSWBcwUJDLBAGc04e9Ridu3GN+vV4Fb3eW03sGewBVxm7NLWuzLDbTbSMFtK0ah1Os+KHYGBbaotojlIk+UIuUZUTK7e2NnaZikjm3a6geqyekvDYcJxGsHDotSaY4sn0m/kxoutMu/nAzepvgNSynjRNea3zsi9mmC0t+9p9uCOR2SNQLY4W61FkI6i4aVOp/vFdmMFycXF/492Sdi52p4wvonIyyB8Y092lzCGj/3kSX1TINoeHPju6EUQBkWoVKb4STh6hwIOKjpASrYYoss++cl8Gdbf3vVS11vBqC5B0Fa/d1i5PgjTLBx9I6t1nM6b4Ct85o+0dCSB65ZfIC0e+TP8CjbnRfscH3zwwQcffPDBBx988MEHH3zwwTAEt/Qy5Zmdpzi9LeUkVIoYEkLc6RIcjhA5Dpx1w0EfmvNnCJnsAc0mY8unynVBKw1NtyWgOepnjtNbBoNxnmpVZd2sYpMlFVH+cB4fH87LwIfz+PhwXgY+nMfHh/My8OE8Pj6cLcHf7XantuTJa87+sWw8NCOkanyUG/dwXn8bJnT+8XgyFmZZ77qvW3PSv+Z6cyhAcwhP+vSabA8z5yR80MO8yTPom2qerw9Y3xrg/C7e6zXnqwvdh/yyp+CZ1scGAXS563Ks9tWvfJkTQN0nVzgecJvqRBCGdTl+A+foitp8MEIwyF5EUtZ7R0geIwjc2gzHV5zPafVw1K2wvckAT0wiBMFC2b4QVLdEqcLJKV/zIn7AdQzk3C4E8pOB815JgCPwZgqaBVjOEiQ4ZXGRF5xZgri48+ZcKImWkEib3+kbe6tIwwm3yUoJ0mWzEeB5SOW8S7V5ra5WP/2btjGIezgnDnsj1Gbsa/PkpX0bftMG3Te6hMy2qvEXMKSxYboPVuS8UU9upo01G94SUwIsKvwXnEu147/DTHsj/ecr7yVuLqRnepHUsPWNfb7enXEC58BEuXy2I6e5bU0fkx2dpue8EdWO1dg+mY8cJEKlKXaOmaFxqlKuchI1yYstZ0+kLDcmTlfSHZWozu0QDyeq5afjHF0E5UCE2glfpEykewmBU/XsNpETPb2s3f9IMMzCwAuuOZZ+yDknLQsEb+HdC/ZP1L4i6ZSJEUpYlwb2UDWOHd4YhXrOnpgpCw50FBb2sRGM8us9+Ho6sG3Jy33KnDHMryWnrxyVvGFa367d54qdgIlpvS06fYdxjrhdQPjKB+Uka4kIVQfWAuOQK8qZ7eKobZPC2c+Fd8YOHwzaTZow5zL9Fro966hdzrDwuOuyiXO6YNJ+qW6MuVO6gHHmZzrBZ0eLE8L+Q4jO8+3h8NLp59Qku0cN50C0eaCV/pa9DUo7Y+Ix4/8RazjrNx/uqTwJlsfXk2AGKGdeQwzI91o/GEGu3VyBgLwctc4BxvWBixLnk3g0GE4FJ4v1XahU0L/yd/qWORNH6zJHTIWh6sX5ipwLdnvNVhFGGjMXgZV+Vb5PieRO3dUO570gZALEojNMMrqCHcwe0aLFopz12dJ3ejNtYecj/3nDmYkZavf1sbZU0Dsq5tfnPAqcd4Uo5EdHRNRm6wvoHygHcOxyNlUxpj6Hoawg79MNZ9ZBb9rGTJfpqTusxNrrA2lazlfBHBGpGBwrhY31gqPqVw8ELWdTeVsmSWiYELJyJA1n1tjgWdNi7HS9jVqDnsrgjPNF9LGUTcD0vB1kYEH1r/FyWp/E8EiveZLxECiPqX7FmZb4NNZ0Z8Nx/f/sa/acO0Q5d7wmrFTMYt/PNGOm1dzq1VPGGZsW8qkCmiTHK0nVnOkcCxs3n1Mdg9XfqToan0yxVmYNpFCY0WmDc9t6Wmyf9JtsBM7GYtX0MC5sfCdqfGvOofB3LUJhEkZrjWmGgx7OGjHzGrLYAKolte77fQpWkJfa2uXJvqaxMe0JuOrCtAuCnsq6Gs5q0sEWqo10qLso5Wwu9krVyXxUzl0QXSNzYq68SIt01yrGbPxrylrOinJ4hjmkwjkWOBszF4S2eohxkl7OVAdh5bE0RvxFY5VzO7dA3b449CipOiDAOBvr6DVj0Qs5s25ZWUR6+qA5n4bKGQtyRsbGMufS1eTHlZK00yUGy/kqcDbWQ7g1NMwDCu2W9fgd93XRQOjP1J6Bnkgw51zPcDz2L9RxewaezkFqU93LmZkl45ux2FD1d1oN0Hy6YSx0/rvAfwDnounCez5LEjPGuN1WjpEXAZo5SS9netAcNkVqT6IbwhwY492QYNipnqOeBQp5LsljNmItPOYl3I67F6DT+V7OVGuM56hQ0TZvfhJdPN3NGprNRICF4no6tBIz4LEBsZhnQS8NyVLr5cy+oKGmddSddTEX0FBNlb4ZtZjUHzR7bTXU2BAv4CQUbaXGYVCB9V7OzM8i+qkSG2SpsKjUCdZ2/6AzpeOzVH1jBpVzG/hyuS1gHRoMSLbt58xnabp+x4oSs055pAYH6aaxbIbB5rgR6P5bD00M0Ocxt9Y3oSrkONoxo7Na18+5nS2qkwE+XHJ3nR3dpQlXHHn0hkmHHbiqORAxuj/Ds4mzEC4l7MFshNbp4xVAcQllAGc+9ikVNAM+WPL/ObFIL5aTj/nZMK1YeXVfnEnSOVdhV3dv4rzS+CZM0KiQ7Ng6r54sWPkBnNtQJr6JhuwkxFzbqzzghhxxeIsOPMghrnjwxki0euuwaayNezZofRM2++EBRSmEwpa1XO6tDuEctcsBMNs2P42SZxupcUXDceMLsPDGVp3PYespd4KrGbtMcBrQb7G7ssbGdYyV6Jvk9MqV+5/YYbVbou0Dyj1qEOfVuV2aIBCm+fNSiEU3umFLXwhoYOhkz8sNC6sJ3Y4u1tDDkGSX5wO1jetwgmldUvVNuD7WFVyyOK4qRfD7A65egzivNuJ8rjoRXvinA6U52RG/aCx38+4ak9TY/X7BWfBNmC7fOvfqrFaJtm0Y59XGNa74AWVKdjSXH1ED7r6DTI1x3di85s4XCVwmwodxekVQa9lkzkn4pfUQvon+1QjUBO/9Qv9sAjTT9Ehcmeg0bliaOfOO0YbUnob5FS4EVhJn7+u8y7Wko4vmdgTf9KGvULeqjB39FEq7no8QM/t0P4bGJfLZ+N6qmgc1siHdBIfI7fwqP14vR0P8YCOXxCKYGF3lXSY/HOvXNiocczmtA4GQj9iN86ut1krDxeK44cdA6loIZlIkqaivs6BafjrEJ2PMJLnUpYLqPwiC7OW5DN9xaa4RaRpjUNxfedW7A2oa13WGYCqWgttV6Tgw1/7uXNkZ2PX5TiHho0p1s1hxwctfkda0BHv/nL+o8hMl+zgr0iJ7fm36iwGdg0N+S4vH87rtzxJsGqe3Z+hJjY/P4mEKgu+eaaYq23dwyEphpo94n+j87115x/ZXm/DaeeJ/sWToJRlk4p8AAAAASUVORK5CYII=;" vertex="1" parent="1">
          <mxGeometry x="1330" y="450" width="120" height="102.71" as="geometry" />
        </mxCell>
        <mxCell id="-X6ACY5F_YXX9V9hznT9-19" value="" style="rounded=0;whiteSpace=wrap;html=1;" vertex="1" parent="1">
          <mxGeometry x="1374" y="770" width="386" height="200" as="geometry" />
        </mxCell>
        <mxCell id="-X6ACY5F_YXX9V9hznT9-20" value="" style="shape=image;imageAspect=0;aspect=fixed;verticalLabelPosition=bottom;verticalAlign=top;image=data:image/png,iVBORw0KGgoAAAANSUhEUgAAAPMAAADQCAMAAADlEKeVAAAAbFBMVEX///8kl+0AjuwAkOz8//8XlO2/3PkAkuwble0Ajey72fjb6/uZyPV5ufKUxvXn8fy01ffv9/7n8vymz/aHv/P1+v52t/LK4vrV6PvX6fsvm+5irvGQw/RSp/BCoe+jzfZfrPA6n+5Lpe9ssvFIIBcuAAAOgUlEQVR4nO1da4OqLBBOiMAum+attSyt//8fXy+AyCXtvCrubs/5co6H1McZhmEYhtXKHq7E6YI8Lb7NPHAdGe7J9jtNDaBwhkfb7zQ1NJz/opz/Iue/qNt/kfNHt38hPpz/rG7/Rc5/Ubf/Iudfr9vqvOr3y9nBMty17XeaGr4n49eL+YMfjLWEl5flqz+yN++QbJVgUl4+Q/ky2pWXD/JlmNkm8A/YY3n0QXF5+YDky/i60sYAf6AR2yvk0GGl44y+Vr/FD/vfnH+gHzYf58ifjsV7mE+3n+59OhpvYTY5b6ED0/OETIZjLs5RPT6A65RchmIu3Y6bG8JsAV7MTJx3bGRHRTQpnyGYSbdzvohLUuuk55HzTvghSW2r9zycO7dDtn30WXQ7gt3fhBOT6sEsnD1pIgOSiVm9hoazfl5Vc/7HGGAmpaEQZ2JWr+G5UAKoyO2Vy65XXnbkqxgMsMKRoh7Yrm+SbCVs6ssb+XKtjr58dTtEtTfKHN0Bi5lwTIRQzrAqe4plMzY5HipnB9sepCeGYg8rzt4cT764oAs3L6/uIJBR9dxEbgzgd3k5Vi4/qlvflFsfhAf7UMOZzOGYqMazNiTDY4D6sarKA9ypt8bCk791nJ0hBv9/c1afDP1xfM+demskPDlRzXb1VTY/l/Opl7NmqKpazDBE25OznjPJ/cTbh/Hz8ozDvXeeQtXn5Sz2Z71uOwRijAgihCCEMIRFOLoXbk+39TZMBYI4HNc9s6fb2rHKQBuEY/oq9jhrfRITcDriYpBFzvJU8jXc8bq1vf68+npH0A5cPucBcj4P79DjxhMscl6RN5R7TF/Fom6vrm8oNxxxuLIp55P6OxNGjRppOAM95xcxwH/kzFar+jFydFCJ38HKQdyqwb59efmujwGmagxwXU1TsXy96D57sFsychTY38ioe85Zvto8NdFejvT3OCmX5RlDOEzQ+PeEyZJsGGWU237TcRBtDgQOG6vQY5xHKol7syHyvzf3OIXlhHEQYwePEiILlODcnChNGRrKtwSMx6D8eMfnswwERwn+5m+59lZBYD6K+5UMd34sA8HHSMOyZpVogSAIgudoaWOXJXMmdegPY+DE2xGjQfmCOZNLnl/ia5CMvCS7YM7o0P/6/4QF63a93jcFnssdqor+t/83qFPgpWAc90OH5Y5V0+UYvBdhnRETrkgG+qUx+5gwZ2i7UM5owrJMhiVQ6wC76ThropFLwKTJM5rg7hIw4nKUBou022SkmJcBN9v8dJhWzIt0PicWs2ZZxj4mFvNqszwjRvJpKa9Oy+M85djcYHGc0Sgh7Jd4L3dlBoy5nm7AO8v7cwDvJ6e8OI87nZ7y0rzPeXZVLcoTm8GAVVhShyZonl0nbyWjTQwwQ15+jeXIeSbNXr2RozQ95qK8Spai3GCqlQsNFiJnOGdpkoF5WRMDXWakPHgvxLSYwwETsAS3ZO46TJ59Qc+/k9/6PAPMsgO2A9tRMTjDBFKG5cmVnbocVicaeKrMkddYW+zReDYvW0JgTbuhHSlXSG1Rtph1f7aT+Wm3/p+NKSWBcwUJDLBAGc04e9Ridu3GN+vV4Fb3eW03sGewBVxm7NLWuzLDbTbSMFtK0ah1Os+KHYGBbaotojlIk+UIuUZUTK7e2NnaZikjm3a6geqyekvDYcJxGsHDotSaY4sn0m/kxoutMu/nAzepvgNSynjRNea3zsi9mmC0t+9p9uCOR2SNQLY4W61FkI6i4aVOp/vFdmMFycXF/492Sdi52p4wvonIyyB8Y092lzCGj/3kSX1TINoeHPju6EUQBkWoVKb4STh6hwIOKjpASrYYoss++cl8Gdbf3vVS11vBqC5B0Fa/d1i5PgjTLBx9I6t1nM6b4Ct85o+0dCSB65ZfIC0e+TP8CjbnRfscH3zwwQcffPDBBx988MEHH3zwwTAEt/Qy5Zmdpzi9LeUkVIoYEkLc6RIcjhA5Dpx1w0EfmvNnCJnsAc0mY8unynVBKw1NtyWgOepnjtNbBoNxnmpVZd2sYpMlFVH+cB4fH87LwIfz+PhwXgY+nMfHh/My8OE8Pj6cLcHf7XantuTJa87+sWw8NCOkanyUG/dwXn8bJnT+8XgyFmZZ77qvW3PSv+Z6cyhAcwhP+vSabA8z5yR80MO8yTPom2qerw9Y3xrg/C7e6zXnqwvdh/yyp+CZ1scGAXS563Ks9tWvfJkTQN0nVzgecJvqRBCGdTl+A+foitp8MEIwyF5EUtZ7R0geIwjc2gzHV5zPafVw1K2wvckAT0wiBMFC2b4QVLdEqcLJKV/zIn7AdQzk3C4E8pOB815JgCPwZgqaBVjOEiQ4ZXGRF5xZgri48+ZcKImWkEib3+kbe6tIwwm3yUoJ0mWzEeB5SOW8S7V5ra5WP/2btjGIezgnDnsj1Gbsa/PkpX0bftMG3Te6hMy2qvEXMKSxYboPVuS8UU9upo01G94SUwIsKvwXnEu147/DTHsj/ecr7yVuLqRnepHUsPWNfb7enXEC58BEuXy2I6e5bU0fkx2dpue8EdWO1dg+mY8cJEKlKXaOmaFxqlKuchI1yYstZ0+kLDcmTlfSHZWozu0QDyeq5afjHF0E5UCE2glfpEykewmBU/XsNpETPb2s3f9IMMzCwAuuOZZ+yDknLQsEb+HdC/ZP1L4i6ZSJEUpYlwb2UDWOHd4YhXrOnpgpCw50FBb2sRGM8us9+Ho6sG3Jy33KnDHMryWnrxyVvGFa367d54qdgIlpvS06fYdxjrhdQPjKB+Uka4kIVQfWAuOQK8qZ7eKobZPC2c+Fd8YOHwzaTZow5zL9Fro966hdzrDwuOuyiXO6YNJ+qW6MuVO6gHHmZzrBZ0eLE8L+Q4jO8+3h8NLp59Qku0cN50C0eaCV/pa9DUo7Y+Ix4/8RazjrNx/uqTwJlsfXk2AGKGdeQwzI91o/GEGu3VyBgLwctc4BxvWBixLnk3g0GE4FJ4v1XahU0L/yd/qWORNH6zJHTIWh6sX5ipwLdnvNVhFGGjMXgZV+Vb5PieRO3dUO570gZALEojNMMrqCHcwe0aLFopz12dJ3ejNtYecj/3nDmYkZavf1sbZU0Dsq5tfnPAqcd4Uo5EdHRNRm6wvoHygHcOxyNlUxpj6Hoawg79MNZ9ZBb9rGTJfpqTusxNrrA2lazlfBHBGpGBwrhY31gqPqVw8ELWdTeVsmSWiYELJyJA1n1tjgWdNi7HS9jVqDnsrgjPNF9LGUTcD0vB1kYEH1r/FyWp/E8EiveZLxECiPqX7FmZb4NNZ0Z8Nx/f/sa/acO0Q5d7wmrFTMYt/PNGOm1dzq1VPGGZsW8qkCmiTHK0nVnOkcCxs3n1Mdg9XfqToan0yxVmYNpFCY0WmDc9t6Wmyf9JtsBM7GYtX0MC5sfCdqfGvOofB3LUJhEkZrjWmGgx7OGjHzGrLYAKolte77fQpWkJfa2uXJvqaxMe0JuOrCtAuCnsq6Gs5q0sEWqo10qLso5Wwu9krVyXxUzl0QXSNzYq68SIt01yrGbPxrylrOinJ4hjmkwjkWOBszF4S2eohxkl7OVAdh5bE0RvxFY5VzO7dA3b449CipOiDAOBvr6DVj0Qs5s25ZWUR6+qA5n4bKGQtyRsbGMufS1eTHlZK00yUGy/kqcDbWQ7g1NMwDCu2W9fgd93XRQOjP1J6Bnkgw51zPcDz2L9RxewaezkFqU93LmZkl45ux2FD1d1oN0Hy6YSx0/rvAfwDnounCez5LEjPGuN1WjpEXAZo5SS9netAcNkVqT6IbwhwY492QYNipnqOeBQp5LsljNmItPOYl3I67F6DT+V7OVGuM56hQ0TZvfhJdPN3NGprNRICF4no6tBIz4LEBsZhnQS8NyVLr5cy+oKGmddSddTEX0FBNlb4ZtZjUHzR7bTXU2BAv4CQUbaXGYVCB9V7OzM8i+qkSG2SpsKjUCdZ2/6AzpeOzVH1jBpVzG/hyuS1gHRoMSLbt58xnabp+x4oSs055pAYH6aaxbIbB5rgR6P5bD00M0Ocxt9Y3oSrkONoxo7Na18+5nS2qkwE+XHJ3nR3dpQlXHHn0hkmHHbiqORAxuj/Ds4mzEC4l7MFshNbp4xVAcQllAGc+9ikVNAM+WPL/ObFIL5aTj/nZMK1YeXVfnEnSOVdhV3dv4rzS+CZM0KiQ7Ng6r54sWPkBnNtQJr6JhuwkxFzbqzzghhxxeIsOPMghrnjwxki0euuwaayNezZofRM2++EBRSmEwpa1XO6tDuEctcsBMNs2P42SZxupcUXDceMLsPDGVp3PYespd4KrGbtMcBrQb7G7ssbGdYyV6Jvk9MqV+5/YYbVbou0Dyj1qEOfVuV2aIBCm+fNSiEU3umFLXwhoYOhkz8sNC6sJ3Y4u1tDDkGSX5wO1jetwgmldUvVNuD7WFVyyOK4qRfD7A65egzivNuJ8rjoRXvinA6U52RG/aCx38+4ak9TY/X7BWfBNmC7fOvfqrFaJtm0Y59XGNa74AWVKdjSXH1ED7r6DTI1x3di85s4XCVwmwodxekVQa9lkzkn4pfUQvon+1QjUBO/9Qv9sAjTT9Ehcmeg0bliaOfOO0YbUnob5FS4EVhJn7+u8y7Wko4vmdgTf9KGvULeqjB39FEq7no8QM/t0P4bGJfLZ+N6qmgc1siHdBIfI7fwqP14vR0P8YCOXxCKYGF3lXSY/HOvXNiocczmtA4GQj9iN86ut1krDxeK44cdA6loIZlIkqaivs6BafjrEJ2PMJLnUpYLqPwiC7OW5DN9xaa4RaRpjUNxfedW7A2oa13WGYCqWgttV6Tgw1/7uXNkZ2PX5TiHho0p1s1hxwctfkda0BHv/nL+o8hMl+zgr0iJ7fm36iwGdg0N+S4vH87rtzxJsGqe3Z+hJjY/P4mEKgu+eaaYq23dwyEphpo94n+j87115x/ZXm/DaeeJ/sWToJRlk4p8AAAAASUVORK5CYII=;" vertex="1" parent="1">
          <mxGeometry x="1330" y="740" width="120" height="102.71" as="geometry" />
        </mxCell>
        <mxCell id="-X6ACY5F_YXX9V9hznT9-21" value="" style="shape=image;imageAspect=0;aspect=fixed;verticalLabelPosition=bottom;verticalAlign=top;image=data:image/png,iVBORw0KGgoAAAANSUhEUgAAAOEAAADhCAMAAAAJbSJIAAAAkFBMVEVtsz///////v////1ttD5us0DO5cGAvlZtsj9lsDJusj6/27DC37JqsjposTb9///q8+Ot05ZgrSny+O2SxXKey4F5uU36/Pin0ZLb7NGSxW3M5LmJwmjm8t6jzoiy1p/W6cm826mCvV58ulDq9N9driPt9em42KKUxXj3/PTf7dW/2rGDvGDb7c6azH7C3q4Z63B3AAAWjElEQVR4nO1dDXeiOhMmkChQExC/qtW22q2t3d7u//9370xAJRTIRGS7fU/nnt6792xFnmQymY8nE4/9v4v31S/Qu/wg/P7yg/D7yw/C7y8/CL+//CD8/tINYQA/SXCdN/n88CDBx3d9TCeEvn6PgPWGEX4Sv+NDOiEMYIR9HyH2gzFJOs9gR4QJYuxrArUE3dW04xzqyUvfBv3IW5qD/DqEKL9eprsn4Yk+ZLibvmy6vuClCAO9CtOtzCIpeU8iuYwytU1hNSQJmNbgEqtzIUJtydOHufLi2OtNQDVCHkbzhxQgBoDvEo29GCFjdzslQ3iLHoXD43ko1W6UL/q/iNBn6Xsm4RV4nwC9EOZR8NiT2e5io3MhwuRxqDwB8MJe59ALYTVqM6Z2jxca1QsRjgRMYNzvBKKSenoV4FBKMbpsEp0R+j4s+NFzz9jq0D7f5d6To0V1Rgh7RDIQfc9eLUQx0LuG4wu7a2nA0rn8+wBDj8t5mnuK/SIELRFfABAllnOE57tBvADhn4yHXwEQZjEaoaff8zpk6a53G1orsPd7ErbFpL85BBsGi2BxG4G+fAVElGgcuIbEDgghHAWQSwH4vkRLUbhYuu6KTlqKdmyl+nbVWkWterU0EE8MshBW/JdpKfeyOyd8busQjNhkLUFTvkxJ4bvletIbQpzCkUQV/bIphK+O5ag3hLATbeZfuARzEXy+Aee4F4Qwh/eq32DJLqBC0T0ONtncuMwhSyP+xQjB2eA82sC7kFOpLnO4mKqvszFnkJ6cHhxy0C4IMWj64jkUqKYxhFH0XdEB4WH65avQyw2dXB3o7jcNoc/8hD1kX+Ny10j0QJ8YGkL0die4C/aceCKLnJCNKQlhgNnYcQQ68oV7vSFqTK7Y0BDCDvsoMK/3b6gpj2PxSARI1VK2mGHq4t8AiK8hZ4erIoSdIs/NiI5qKkG6DxPsyqGkTiIVYcfsU6gHXj2tX1+nQ9k5kwXrJRZYnSV4NiSECdt2zD6BsyUUv1mCai02253qpgoCIUbbPK9yFYQs3cmOQSG80fsbK4gNh3XU6WHgngqBWSlK3o2EcHGreEcrw9UrRq4JCmAcd1JUIdCwq9sFhalBQrgUMuy2FYqY74u6vx8AxMO6C0TBweKBj7xkwZW0dKW8jjtFCH5W4vu6Ng4YfTbIujwOq8PUrJQFYYB60PFtUOTTvjLeV6h9iOyO2dOnNoQwSJNOGlUghA3afJdb1fmhvMhKtauqBSEsGsw+dX4Zta2+x03U1YlHJ3KESf52VbUgTFiwuUYtLbqpxgKjqGvaNeSxnCPdpn0tWueQ3XdXJ40w8Y1JHCkw+N2UI+ZhdG/dE61z+CtyeQ0upVI1cx79rj75TyQqaS0uVRTVfbhNog2qf9tCbEYIIRO4fYspdRXir0lvPRvfvs5V6JleHsxhRUaGWxOiX/c+244eVnOJnwxj2vYkp7Dtt1b22+YQS+YDQTUIIuTReoAxTbIcy9jUQBtCpJXc7PXALme4OVG/luvi/kUI9eYcHFaSaA6EJ6MZviNys4JlZrqxFoTck/MlDika3MVDpvWGVuLCrNSFu4WPEMdRyEOamkp5c+Rjws8jd5jDmHsAEN8T6WuMPQ5hXIlprxi8pct2C10vn3AqPk/u7nTgkDAfqb0Lc0dvRyhCNdbeRYJZPXhf3KEEMTfLeXtWqnkOIbyEKeREh1RicVZX4DSlyGePczpCHmcTjDswpg0073GzjoimBivfbVPYvluYb9k4iPCP2h1YaWeC/y5WZbtv09J5lek0ec3/3qpDMNGYlcJhqZ/JNktzmNE2e8HlKmVF4KA/i0vqlY4wlNPK62EtVsGGE1pLQdwL1Wyhw7J6g9NmaQaSFteHCrmR5VoJLkcHhJ6aVUstAUvXCtXDmj0JBVcDXb51nEOG3CfSWufoHeoZPL0lOsNTOkIBWlr5blADrJMQUgv4OyJhjUciWrR0S0ymSFgH+umnsmUCW/BmV343i6UJs4M5A/iEnD9HyF+Ce7pljQXF5jlMd5KUueBq5Ofxe3AKkADwbyefBl7ReEF0GH22jAibIqoxb6EQ1yAscZ8sa0DrUPSCse0JG3qJuKMNjdGxIZTDN9wtqkzuAaxDkk+lmrlSNQjp3CdcpmoalBiR+D24r01WysXz5qFcp3XB+pi4Ulq4UrVaSuU+wSKXTxudWjo+3deLMZ1KJ887DvUsVvkH8P/U8Ls5K9WAkMZ94iIEK4PnPU42Ru/2A6kqbqUFoSZyI1Hm0ywS2botXKm6dUjnPvHoluloIjjt9TDuEL57oVNsgQhhW3tYmL/jg4u7pSFs5krVzSGZ+xSHzwucwpK7BkhH2pU1NdympUKbLbAXn8aamDtu5krVWRoC96nAjiWu40vlmpqwl6zms9YIGAVC6NkB1eBoFhP9LrBlEAKcRq5U/RxauU/oLgoh0SEsDzn88zur020SQhi3aMbQvzw9FMPpW0WIMpq5UnVzSOE+oVrF88fyRoGrho14raNFQYhnxLR3UqoK6uONc7v32MKVqptDCvcJfiFWtzDeJ4/eD7Szzms3UQpCgRlQvZxOz4RdyMdRo4SKTVypOoQE7lMIL+NlexaU1iFY+tST1SwbHaGnB0eW9+78+AihrNDClapBSOM+8Vih3p/mEM3D4lVhefZCLcVzYrgvPhm/B1oCMYBtDlu4UiZCOvcJdEKYB1ix7tkYMdMsDYrg0T0OnHG+iVoVr+NKmQjJ3CekHdya+3PC/mv2gegIPfCTBswv4QPtf6FWxWu4UgZCF+4TpmJNgGzXnFt1mEP0MQ/M9FFT6vGAGq6UiZDMfRIxptONz8JW3/wxOkJt9sfML5Ubg2pusklquVIVLaVyn2KMWU1J31VzKt5BS7UbPSnnfbAoTipT1XKlqraUzH16ruQd2LZtmJ20NBaobMHJBQO9m7xTvNNarlQFYcCJ+TU5ZSfDrFPx4HnUb/aOCLXwIsmfPx7/pdXUOu5HrlQjwgR2HmICMborOY+B/mTsNauSI0JPvZSLgvBN/2X6YHf7Wx25Uqx8ct+cw3RHZHLHMj07pLrgIFqz8K4I5XBfXojwE1EKKCeuVGkvNRBqk0Wyy+rjcApV/OTIj2nO3roijEs6kmjKy4eqRtWf5cSV8pMGhMh9omkpciuOr+BjFhGr/S0NFlwRenJ30lJ0TmEICZN45Eq9lbMhBsI19eQdj0vbPa7C/Xv7+XxnhF52svr5odFUcoIziSW5UK5Zwzq8I3OfMAN70gRdDLcotztC9WLuRpOVJBYUY8/gSnnneaDtOVq0Q3NSBNgsmn3uXFwRhp56NY3+YqyoBwWEfC9xpY5zCBMxohM9IHAqxWGJHuBWcUXItUk05CYiBhiwGOXNmSt1mkO2cWBhRX9K2RSMfG0rxBmh51U8e3SYaWoagi0RZ67UcQ4DNnM48xM9lqJ7pBbYVrDzbgF6UvnI8olO7OFYkCx8rpOl2bgQk7NNwQwpINqW4SVzWE2egjcSUolwIs5OXKmTlk5ptbS8mPVced2Vbf7dbWmopkaUECyqtZBWka8s8A1Ls5xTxwcHkhvfHbAnGzXMGSF48cO98S3sVbn0AQDf3UAYvChySyvO5bD83WCyMpsNuAAhnxsIfXCbXBoBqJdiFRUIcS8kG5pQvlde19qQx11LOS4lQ8bK5cyH3E1yU1Mg3Cj68Agu7039Sa3O0AUIRZaa3zKmZPfPoooBKhAOspD6cbBoYIuN797U1irK4ooQyyJRJVrfRi5ndONowMo7/ofy6GdGhPo0hzFlHRa7S+4qIAu6+UMc3PioUi4bRC6WhsuP3G0rEO4kfJoY3munzZANRUv9U9ZDcxlGtmhIKANhwO6cjhKhsSgjHGJFmzyHclZFaFMf9VDqYaXbA+IcNn8j7HxxVbPvSGH+ScDg628sED7zkOi5Q5gbV+fwl3UO5XRyzlwhQxPWResX8rp16IIwDJ9ZeT9sSeZ+EuHJiqWx21Ket+k6fgD+OOc8bk4ocC6EuVskrrbUy/It/ziHDosY2zUZ3x2wZ5ulATU9xVsBulODTLQzPYRn7haJ3fmtPMCcw+f6sl+DgIqXcj1JwjKr/vDsTR/ACfLMXDq0Toc0fRpMBTmd8kQtLa1Dh0/i60qMTZJTJoo9xTZ+GMTdqWbb+Ojx718t84ERkOmXVgir9neMBSvHFkNJVVOB+SCMLU48KHjnD9uXY0VheLIc+531ZWFIpiZBZrFy6k/FeVFpLRBC7EQ9hSR4Xjk5VdsDn0DUjHkos/XjfjLZv80iadM38Tk+3Lu4zpiz/jC0dByFVG48SvQfO1fMYR0u7Vk65GjISKxWT4DP+lVIH6psh29PVnNmCNi2sqVZZtR+CTESmKI/pa8GpKmVAVcsAi7xqLo9Vo95XJencZFsafil6ZNTmzm95ZfyyofpFU7wmSLfK4bmhuqW5n1dYzDFfklLFzNqxSL/evM8VcBernGEz/yKVxMg5kupn8Vsm7o/GAjZjdMr8h36G8Uc4rYxuHIfPo7UY0MmU/IM6P7K6nclm+h22FfTFI5ailO5p+fLaV8QZpVqNSx16iiiIdNp7/I6pBj8spTP9eoTUlc4uFyWENwmk007IMe/us85vCBLyrtFwAKnfhxqVmIfoQf31v1EuyHRXeXs971qKTGbEgseRngCq4wQBynPCBL7s8RphTkOXhH5MGa7QFjhhcPJqRzv6zqSTpSQIKKLrc5bzVFLA7ceO2FU2a1Qi67SUDHWuQ31Epy0NMHsgIOOoGvxcfiEMMGTag59kuSqQjYBX/M65jQG94fP386HYBKMtpxCJyS+VhEmiWOvK55VaYB31wGIkT8euDyf0EZ2vENtEw8JlblfR0uDKuHQr0w7buYkurxEmyBTWE3Kfbtxv9VWhjr6csI+MRXQP3HpORfzKq8Ni+RXmUVkbI/zuTuOPjo0+u9IXk1scjANpoJL30Dc9DFkP2fQ2FQnzsknh+sFPMrPRydS4pFg/e8Kj9ZkDLn0ftQtfpJTpA924W1OOvXZLmBoKvxC+AIiv7SWC20iJPfvxJjd26Ml98/sNn8bkU59tksc3Zt0dFBWetXpM5+9wmtz6MEq8qOtZ65+whb3EeXUZ7uYpTstfyLaqNWeSajyS6l9dAXEwegcl0IoZFATT322AXx6q57vokcFdedKzDkk90LmYYgEMs3aOyop2vdl1DWM4nf5EdmS3EhyJ5uas0HVOXTqZ40HgCu06kftFcU6CHUGh4vwT/lqAP30dC6pFIW6810mz9uxJ7n8WFSY8T4boYuMFEFne8PhU+pBv8QxT4msQHaLtoF2qrzujF6FI+zYV14NKq4bWnZ0G/COH3eEMZaoSvxXzdlJW4tU5hPqzll+Quh0N0AcVU+Zg70ZaXvqvmXwnN6LjX/O4xUc1rAKqQ+rOytrWhrH+x0gDruv3GyDdNfHyIX5cpKYP+TdUU4uKYLdyjikDljteefKeQvqOfXiifBjxon6OA9bzp0K0rlIOfKLA7fHDTspCPIelblcd2a97uwatdeAfi+0zkn1jqLJfZGctD6G550/BZe7vdn5Qf9pwYn7c3PfgdqTzuSslAA9XeV9d0xZ4LV6+Vk0yxPCPCiX40k5x4x/gukIbunK0NQ7ova0OrXnh4cdMXWsUtENmIy3dUagLeOvYMle/LfIK6cnhAF2KrqLqWZU9/9grKb/Rx1Cet8W/HYcusq+n3ur23dlrdlhMCLVbltEqOfOBfqQ2UBJanaruYdLrZZSe++IHCVGisZzsdYLOjb582Q7GhmHXOEFjoUveeqv4WMl1YHT29KHp6G3Ca1/kn4y96SoEJYx7aPLGvuRyFRzhgp8mCx6SbF5Vn6rcEkXsAWPFFQtbemlVHta3akHlndqg1XbIGZwvxNK1zb56WWKwVFyOLurvpBe0Wi8sMeQgzT2w6rvOODUxwx8bTlc6nGplf1gPJUR1kVjzHPpDVyqLN7dDt6K6SqLvm8U/WO3ho2NPc3qLQ1jDr3owMnmcv5LuyA1T8PFf0gfx6t59pxpeX4Wq/Eg3S/yFVtxijC2SNjk1Yl50dKXrt7SOPUT1LGSnD8mtY2ayj4KS39tNum58unnf+NXfx88x7m11G9IS2/Bekvj1BOSY7wPa7G+fUqQ9x1ixsleHUDouUpKjPji97XbJ134Pa39IesQOvb1DLnmUUq+rR/Eon1NUFS78iY9uLv7QRB8asyJcAe6KY0LhWm6+JQZaENYfNMvB96wRpq9poXvXe6KRZYgV1HYjCPX7Hlbn9ZGhK79dfFknNot9djg/DQt/GYp1vHblHiOtRBbr92WOXTskczxCPv8AZUx70XmLJort51LOtPVI/RLbplD5z7XWBeLxGahXTDnO1915Av+eoixlMPA2npeN/fcc+9Vrrt+SH67ydu0uiKE78OYizver2jrW97SVdCx3zzPz9LzWD1tF80eTovcgZ8GTk9IzDAcx9XSe97S7fqiOwN4xB8m7Ngi60zwNt4i0T/ooOeLdjIQzukd0v0BFoSX3vsQ7bbFfR3JsXNuJcLSwZJ/dHfSm3V+nt+hcEW8A8KC8NK7O7iUT/d660AISZ5nN2NI7bDmo7+53UUwkk4WhnyPh+1+iwvvX4ljLuNMPmwmObaEfTIFhRM32TzMIYaEQBDf14mwQruLxdp1/rI7dHSdFLZitXsYLPNyeM0WudgMXlYKGwiFOhqNq43oW4V4n47t5oAL70HSR/1iZOpG/Gl1/+e/T/dPTZaj2+kOouAQO3iKnDLpVj6m3Ylkv4Wl611WHG8EgJhw/v4xG/+5GY0eZvfrIYSJkZKdSnHEe61sCK93HxkAVSpCUR2hHR+I/XaqhBBnhFe+Uw4bloWY+bvGLYPE++VsCK94L2BxOA4Ld477QpOQ7gi0aul17nbUgMJSjeUqNEbSPY82hNe8n7PYWIs8cneh3dVpt6Xs37hjtSwtPQQvRPgv3JNbFqc7c2kI/427jstCv/eYhPBfuK+6LE53V9Pm8F+4c7wsLveP0+bwn7g3viwOd8hT59CJK9W7NPe2vhChK1eqb2npT34hQmeuVM/S0mO+A0InrlTfQru90gGhK1eqb2m56+FChK5cqb6l5b6OCxEW4sKV6ktsd650QujAlepT2u/N6YTQgSvVnzRzn66BkM6V6k9s91d1QkjnSvUn1jvIOiFEoXKl+hLrPXLdEDpzpfoQy12AnRC6cqV6Edt9jp0QunKl+hDrnZydEDpzpXoQ672qnRAy1/tzry/2u3G7IXS9A/n60sZ9ugbCQtJIVzP/Mjg8AO1Fexdv5kKECRobfXHRX940uAixG4gzx8N9DpPg8KqPIv3d5QjeTDRblPn8vSH0fbzKNu52jtJdQh69TpjB5+8JYZCTpf56HCWi9UQvwfaq/RUQFjTzKf3O5etINM3PLDgvxAsQ5jC3nm6Ahv5Nbxsk9gfLq6rSe/l89KhXhJhdXEdc31uI+PowO/G53BWt9RE5xxXYCSFuupOHZ8mxIh/G/RhWnrOIpMpeDpq16s53vBxhrjKH8U4qiWSYvkJ/JHC8jw96TC+grHZAqA9S4rGf3/fDLJISe8pcVyQ2r1PZ8PZmnyekkfN+AfH44jnUVGf802L/9nK/G/Yi9y9v6SKnK+eNQS951Utt6feRH4TfX34Qfn/5Qfj95Qfh95cfhN9ffhB+f/lB+P3lf1U9UynlLyZKAAAAAElFTkSuQmCC;" vertex="1" parent="1">
          <mxGeometry x="1500" y="537.72" width="125" height="125" as="geometry" />
        </mxCell>
        <mxCell id="-X6ACY5F_YXX9V9hznT9-22" value="" style="shape=image;imageAspect=0;aspect=fixed;verticalLabelPosition=bottom;verticalAlign=top;image=data:image/png,iVBORw0KGgoAAAANSUhEUgAAAOEAAADhCAMAAAAJbSJIAAAAkFBMVEVtsz///////v////1ttD5us0DO5cGAvlZtsj9lsDJusj6/27DC37JqsjposTb9///q8+Ot05ZgrSny+O2SxXKey4F5uU36/Pin0ZLb7NGSxW3M5LmJwmjm8t6jzoiy1p/W6cm826mCvV58ulDq9N9driPt9em42KKUxXj3/PTf7dW/2rGDvGDb7c6azH7C3q4Z63B3AAAWjElEQVR4nO1dDXeiOhMmkChQExC/qtW22q2t3d7u//9370xAJRTIRGS7fU/nnt6792xFnmQymY8nE4/9v4v31S/Qu/wg/P7yg/D7yw/C7y8/CL+//CD8/tINYQA/SXCdN/n88CDBx3d9TCeEvn6PgPWGEX4Sv+NDOiEMYIR9HyH2gzFJOs9gR4QJYuxrArUE3dW04xzqyUvfBv3IW5qD/DqEKL9eprsn4Yk+ZLibvmy6vuClCAO9CtOtzCIpeU8iuYwytU1hNSQJmNbgEqtzIUJtydOHufLi2OtNQDVCHkbzhxQgBoDvEo29GCFjdzslQ3iLHoXD43ko1W6UL/q/iNBn6Xsm4RV4nwC9EOZR8NiT2e5io3MhwuRxqDwB8MJe59ALYTVqM6Z2jxca1QsRjgRMYNzvBKKSenoV4FBKMbpsEp0R+j4s+NFzz9jq0D7f5d6To0V1Rgh7RDIQfc9eLUQx0LuG4wu7a2nA0rn8+wBDj8t5mnuK/SIELRFfABAllnOE57tBvADhn4yHXwEQZjEaoaff8zpk6a53G1orsPd7ErbFpL85BBsGi2BxG4G+fAVElGgcuIbEDgghHAWQSwH4vkRLUbhYuu6KTlqKdmyl+nbVWkWterU0EE8MshBW/JdpKfeyOyd8busQjNhkLUFTvkxJ4bvletIbQpzCkUQV/bIphK+O5ag3hLATbeZfuARzEXy+Aee4F4Qwh/eq32DJLqBC0T0ONtncuMwhSyP+xQjB2eA82sC7kFOpLnO4mKqvszFnkJ6cHhxy0C4IMWj64jkUqKYxhFH0XdEB4WH65avQyw2dXB3o7jcNoc/8hD1kX+Ny10j0QJ8YGkL0die4C/aceCKLnJCNKQlhgNnYcQQ68oV7vSFqTK7Y0BDCDvsoMK/3b6gpj2PxSARI1VK2mGHq4t8AiK8hZ4erIoSdIs/NiI5qKkG6DxPsyqGkTiIVYcfsU6gHXj2tX1+nQ9k5kwXrJRZYnSV4NiSECdt2zD6BsyUUv1mCai02253qpgoCIUbbPK9yFYQs3cmOQSG80fsbK4gNh3XU6WHgngqBWSlK3o2EcHGreEcrw9UrRq4JCmAcd1JUIdCwq9sFhalBQrgUMuy2FYqY74u6vx8AxMO6C0TBweKBj7xkwZW0dKW8jjtFCH5W4vu6Ng4YfTbIujwOq8PUrJQFYYB60PFtUOTTvjLeV6h9iOyO2dOnNoQwSJNOGlUghA3afJdb1fmhvMhKtauqBSEsGsw+dX4Zta2+x03U1YlHJ3KESf52VbUgTFiwuUYtLbqpxgKjqGvaNeSxnCPdpn0tWueQ3XdXJ40w8Y1JHCkw+N2UI+ZhdG/dE61z+CtyeQ0upVI1cx79rj75TyQqaS0uVRTVfbhNog2qf9tCbEYIIRO4fYspdRXir0lvPRvfvs5V6JleHsxhRUaGWxOiX/c+244eVnOJnwxj2vYkp7Dtt1b22+YQS+YDQTUIIuTReoAxTbIcy9jUQBtCpJXc7PXALme4OVG/luvi/kUI9eYcHFaSaA6EJ6MZviNys4JlZrqxFoTck/MlDika3MVDpvWGVuLCrNSFu4WPEMdRyEOamkp5c+Rjws8jd5jDmHsAEN8T6WuMPQ5hXIlprxi8pct2C10vn3AqPk/u7nTgkDAfqb0Lc0dvRyhCNdbeRYJZPXhf3KEEMTfLeXtWqnkOIbyEKeREh1RicVZX4DSlyGePczpCHmcTjDswpg0073GzjoimBivfbVPYvluYb9k4iPCP2h1YaWeC/y5WZbtv09J5lek0ec3/3qpDMNGYlcJhqZ/JNktzmNE2e8HlKmVF4KA/i0vqlY4wlNPK62EtVsGGE1pLQdwL1Wyhw7J6g9NmaQaSFteHCrmR5VoJLkcHhJ6aVUstAUvXCtXDmj0JBVcDXb51nEOG3CfSWufoHeoZPL0lOsNTOkIBWlr5blADrJMQUgv4OyJhjUciWrR0S0ymSFgH+umnsmUCW/BmV343i6UJs4M5A/iEnD9HyF+Ce7pljQXF5jlMd5KUueBq5Ofxe3AKkADwbyefBl7ReEF0GH22jAibIqoxb6EQ1yAscZ8sa0DrUPSCse0JG3qJuKMNjdGxIZTDN9wtqkzuAaxDkk+lmrlSNQjp3CdcpmoalBiR+D24r01WysXz5qFcp3XB+pi4Ulq4UrVaSuU+wSKXTxudWjo+3deLMZ1KJ887DvUsVvkH8P/U8Ls5K9WAkMZ94iIEK4PnPU42Ru/2A6kqbqUFoSZyI1Hm0ywS2botXKm6dUjnPvHoluloIjjt9TDuEL57oVNsgQhhW3tYmL/jg4u7pSFs5krVzSGZ+xSHzwucwpK7BkhH2pU1NdympUKbLbAXn8aamDtu5krVWRoC96nAjiWu40vlmpqwl6zms9YIGAVC6NkB1eBoFhP9LrBlEAKcRq5U/RxauU/oLgoh0SEsDzn88zur020SQhi3aMbQvzw9FMPpW0WIMpq5UnVzSOE+oVrF88fyRoGrho14raNFQYhnxLR3UqoK6uONc7v32MKVqptDCvcJfiFWtzDeJ4/eD7Szzms3UQpCgRlQvZxOz4RdyMdRo4SKTVypOoQE7lMIL+NlexaU1iFY+tST1SwbHaGnB0eW9+78+AihrNDClapBSOM+8Vih3p/mEM3D4lVhefZCLcVzYrgvPhm/B1oCMYBtDlu4UiZCOvcJdEKYB1ix7tkYMdMsDYrg0T0OnHG+iVoVr+NKmQjJ3CekHdya+3PC/mv2gegIPfCTBswv4QPtf6FWxWu4UgZCF+4TpmJNgGzXnFt1mEP0MQ/M9FFT6vGAGq6UiZDMfRIxptONz8JW3/wxOkJt9sfML5Ubg2pusklquVIVLaVyn2KMWU1J31VzKt5BS7UbPSnnfbAoTipT1XKlqraUzH16ruQd2LZtmJ20NBaobMHJBQO9m7xTvNNarlQFYcCJ+TU5ZSfDrFPx4HnUb/aOCLXwIsmfPx7/pdXUOu5HrlQjwgR2HmICMborOY+B/mTsNauSI0JPvZSLgvBN/2X6YHf7Wx25Uqx8ct+cw3RHZHLHMj07pLrgIFqz8K4I5XBfXojwE1EKKCeuVGkvNRBqk0Wyy+rjcApV/OTIj2nO3roijEs6kmjKy4eqRtWf5cSV8pMGhMh9omkpciuOr+BjFhGr/S0NFlwRenJ30lJ0TmEICZN45Eq9lbMhBsI19eQdj0vbPa7C/Xv7+XxnhF52svr5odFUcoIziSW5UK5Zwzq8I3OfMAN70gRdDLcotztC9WLuRpOVJBYUY8/gSnnneaDtOVq0Q3NSBNgsmn3uXFwRhp56NY3+YqyoBwWEfC9xpY5zCBMxohM9IHAqxWGJHuBWcUXItUk05CYiBhiwGOXNmSt1mkO2cWBhRX9K2RSMfG0rxBmh51U8e3SYaWoagi0RZ67UcQ4DNnM48xM9lqJ7pBbYVrDzbgF6UvnI8olO7OFYkCx8rpOl2bgQk7NNwQwpINqW4SVzWE2egjcSUolwIs5OXKmTlk5ptbS8mPVced2Vbf7dbWmopkaUECyqtZBWka8s8A1Ls5xTxwcHkhvfHbAnGzXMGSF48cO98S3sVbn0AQDf3UAYvChySyvO5bD83WCyMpsNuAAhnxsIfXCbXBoBqJdiFRUIcS8kG5pQvlde19qQx11LOS4lQ8bK5cyH3E1yU1Mg3Cj68Agu7039Sa3O0AUIRZaa3zKmZPfPoooBKhAOspD6cbBoYIuN797U1irK4ooQyyJRJVrfRi5ndONowMo7/ofy6GdGhPo0hzFlHRa7S+4qIAu6+UMc3PioUi4bRC6WhsuP3G0rEO4kfJoY3munzZANRUv9U9ZDcxlGtmhIKANhwO6cjhKhsSgjHGJFmzyHclZFaFMf9VDqYaXbA+IcNn8j7HxxVbPvSGH+ScDg628sED7zkOi5Q5gbV+fwl3UO5XRyzlwhQxPWResX8rp16IIwDJ9ZeT9sSeZ+EuHJiqWx21Ket+k6fgD+OOc8bk4ocC6EuVskrrbUy/It/ziHDosY2zUZ3x2wZ5ulATU9xVsBulODTLQzPYRn7haJ3fmtPMCcw+f6sl+DgIqXcj1JwjKr/vDsTR/ACfLMXDq0Toc0fRpMBTmd8kQtLa1Dh0/i60qMTZJTJoo9xTZ+GMTdqWbb+Ojx718t84ERkOmXVgir9neMBSvHFkNJVVOB+SCMLU48KHjnD9uXY0VheLIc+531ZWFIpiZBZrFy6k/FeVFpLRBC7EQ9hSR4Xjk5VdsDn0DUjHkos/XjfjLZv80iadM38Tk+3Lu4zpiz/jC0dByFVG48SvQfO1fMYR0u7Vk65GjISKxWT4DP+lVIH6psh29PVnNmCNi2sqVZZtR+CTESmKI/pa8GpKmVAVcsAi7xqLo9Vo95XJencZFsafil6ZNTmzm95ZfyyofpFU7wmSLfK4bmhuqW5n1dYzDFfklLFzNqxSL/evM8VcBernGEz/yKVxMg5kupn8Vsm7o/GAjZjdMr8h36G8Uc4rYxuHIfPo7UY0MmU/IM6P7K6nclm+h22FfTFI5ailO5p+fLaV8QZpVqNSx16iiiIdNp7/I6pBj8spTP9eoTUlc4uFyWENwmk007IMe/us85vCBLyrtFwAKnfhxqVmIfoQf31v1EuyHRXeXs971qKTGbEgseRngCq4wQBynPCBL7s8RphTkOXhH5MGa7QFjhhcPJqRzv6zqSTpSQIKKLrc5bzVFLA7ceO2FU2a1Qi67SUDHWuQ31Epy0NMHsgIOOoGvxcfiEMMGTag59kuSqQjYBX/M65jQG94fP386HYBKMtpxCJyS+VhEmiWOvK55VaYB31wGIkT8euDyf0EZ2vENtEw8JlblfR0uDKuHQr0w7buYkurxEmyBTWE3Kfbtxv9VWhjr6csI+MRXQP3HpORfzKq8Ni+RXmUVkbI/zuTuOPjo0+u9IXk1scjANpoJL30Dc9DFkP2fQ2FQnzsknh+sFPMrPRydS4pFg/e8Kj9ZkDLn0ftQtfpJTpA924W1OOvXZLmBoKvxC+AIiv7SWC20iJPfvxJjd26Ml98/sNn8bkU59tksc3Zt0dFBWetXpM5+9wmtz6MEq8qOtZ65+whb3EeXUZ7uYpTstfyLaqNWeSajyS6l9dAXEwegcl0IoZFATT322AXx6q57vokcFdedKzDkk90LmYYgEMs3aOyop2vdl1DWM4nf5EdmS3EhyJ5uas0HVOXTqZ40HgCu06kftFcU6CHUGh4vwT/lqAP30dC6pFIW6810mz9uxJ7n8WFSY8T4boYuMFEFne8PhU+pBv8QxT4msQHaLtoF2qrzujF6FI+zYV14NKq4bWnZ0G/COH3eEMZaoSvxXzdlJW4tU5hPqzll+Quh0N0AcVU+Zg70ZaXvqvmXwnN6LjX/O4xUc1rAKqQ+rOytrWhrH+x0gDruv3GyDdNfHyIX5cpKYP+TdUU4uKYLdyjikDljteefKeQvqOfXiifBjxon6OA9bzp0K0rlIOfKLA7fHDTspCPIelblcd2a97uwatdeAfi+0zkn1jqLJfZGctD6G550/BZe7vdn5Qf9pwYn7c3PfgdqTzuSslAA9XeV9d0xZ4LV6+Vk0yxPCPCiX40k5x4x/gukIbunK0NQ7ova0OrXnh4cdMXWsUtENmIy3dUagLeOvYMle/LfIK6cnhAF2KrqLqWZU9/9grKb/Rx1Cet8W/HYcusq+n3ur23dlrdlhMCLVbltEqOfOBfqQ2UBJanaruYdLrZZSe++IHCVGisZzsdYLOjb582Q7GhmHXOEFjoUveeqv4WMl1YHT29KHp6G3Ca1/kn4y96SoEJYx7aPLGvuRyFRzhgp8mCx6SbF5Vn6rcEkXsAWPFFQtbemlVHta3akHlndqg1XbIGZwvxNK1zb56WWKwVFyOLurvpBe0Wi8sMeQgzT2w6rvOODUxwx8bTlc6nGplf1gPJUR1kVjzHPpDVyqLN7dDt6K6SqLvm8U/WO3ho2NPc3qLQ1jDr3owMnmcv5LuyA1T8PFf0gfx6t59pxpeX4Wq/Eg3S/yFVtxijC2SNjk1Yl50dKXrt7SOPUT1LGSnD8mtY2ayj4KS39tNum58unnf+NXfx88x7m11G9IS2/Bekvj1BOSY7wPa7G+fUqQ9x1ixsleHUDouUpKjPji97XbJ134Pa39IesQOvb1DLnmUUq+rR/Eon1NUFS78iY9uLv7QRB8asyJcAe6KY0LhWm6+JQZaENYfNMvB96wRpq9poXvXe6KRZYgV1HYjCPX7Hlbn9ZGhK79dfFknNot9djg/DQt/GYp1vHblHiOtRBbr92WOXTskczxCPv8AZUx70XmLJort51LOtPVI/RLbplD5z7XWBeLxGahXTDnO1915Av+eoixlMPA2npeN/fcc+9Vrrt+SH67ydu0uiKE78OYizver2jrW97SVdCx3zzPz9LzWD1tF80eTovcgZ8GTk9IzDAcx9XSe97S7fqiOwN4xB8m7Ngi60zwNt4i0T/ooOeLdjIQzukd0v0BFoSX3vsQ7bbFfR3JsXNuJcLSwZJ/dHfSm3V+nt+hcEW8A8KC8NK7O7iUT/d660AISZ5nN2NI7bDmo7+53UUwkk4WhnyPh+1+iwvvX4ljLuNMPmwmObaEfTIFhRM32TzMIYaEQBDf14mwQruLxdp1/rI7dHSdFLZitXsYLPNyeM0WudgMXlYKGwiFOhqNq43oW4V4n47t5oAL70HSR/1iZOpG/Gl1/+e/T/dPTZaj2+kOouAQO3iKnDLpVj6m3Ylkv4Wl611WHG8EgJhw/v4xG/+5GY0eZvfrIYSJkZKdSnHEe61sCK93HxkAVSpCUR2hHR+I/XaqhBBnhFe+Uw4bloWY+bvGLYPE++VsCK94L2BxOA4Ld477QpOQ7gi0aul17nbUgMJSjeUqNEbSPY82hNe8n7PYWIs8cneh3dVpt6Xs37hjtSwtPQQvRPgv3JNbFqc7c2kI/427jstCv/eYhPBfuK+6LE53V9Pm8F+4c7wsLveP0+bwn7g3viwOd8hT59CJK9W7NPe2vhChK1eqb2npT34hQmeuVM/S0mO+A0InrlTfQru90gGhK1eqb2m56+FChK5cqb6l5b6OCxEW4sKV6ktsd650QujAlepT2u/N6YTQgSvVnzRzn66BkM6V6k9s91d1QkjnSvUn1jvIOiFEoXKl+hLrPXLdEDpzpfoQy12AnRC6cqV6Edt9jp0QunKl+hDrnZydEDpzpXoQ672qnRAy1/tzry/2u3G7IXS9A/n60sZ9ugbCQtJIVzP/Mjg8AO1Fexdv5kKECRobfXHRX940uAixG4gzx8N9DpPg8KqPIv3d5QjeTDRblPn8vSH0fbzKNu52jtJdQh69TpjB5+8JYZCTpf56HCWi9UQvwfaq/RUQFjTzKf3O5etINM3PLDgvxAsQ5jC3nm6Ahv5Nbxsk9gfLq6rSe/l89KhXhJhdXEdc31uI+PowO/G53BWt9RE5xxXYCSFuupOHZ8mxIh/G/RhWnrOIpMpeDpq16s53vBxhrjKH8U4qiWSYvkJ/JHC8jw96TC+grHZAqA9S4rGf3/fDLJISe8pcVyQ2r1PZ8PZmnyekkfN+AfH44jnUVGf802L/9nK/G/Yi9y9v6SKnK+eNQS951Utt6feRH4TfX34Qfn/5Qfj95Qfh95cfhN9ffhB+f/lB+P3lf1U9UynlLyZKAAAAAElFTkSuQmCC;" vertex="1" parent="1">
          <mxGeometry x="1504.5" y="790" width="125" height="125" as="geometry" />
        </mxCell>
        <mxCell id="-X6ACY5F_YXX9V9hznT9-23" value="port: 8080" style="text;strokeColor=none;fillColor=none;html=1;fontSize=24;fontStyle=1;verticalAlign=middle;align=center;" vertex="1" parent="1">
          <mxGeometry x="1512.5" y="662.72" width="100" height="40" as="geometry" />
        </mxCell>
        <mxCell id="-X6ACY5F_YXX9V9hznT9-25" value="port: 8081" style="text;strokeColor=none;fillColor=none;html=1;fontSize=24;fontStyle=1;verticalAlign=middle;align=center;" vertex="1" parent="1">
          <mxGeometry x="1512.5" y="915" width="100" height="40" as="geometry" />
        </mxCell>
        <mxCell id="-X6ACY5F_YXX9V9hznT9-28" value="port: 80" style="text;strokeColor=none;fillColor=none;html=1;fontSize=24;fontStyle=1;verticalAlign=middle;align=center;" vertex="1" parent="1">
          <mxGeometry x="1120" y="790" width="100" height="40" as="geometry" />
        </mxCell>
        <mxCell id="-X6ACY5F_YXX9V9hznT9-29" value="" style="endArrow=classic;html=1;rounded=0;exitX=0.997;exitY=0.566;exitDx=0;exitDy=0;exitPerimeter=0;entryX=0.001;entryY=0.681;entryDx=0;entryDy=0;entryPerimeter=0;strokeWidth=5;" edge="1" parent="1" source="-X6ACY5F_YXX9V9hznT9-14" target="-X6ACY5F_YXX9V9hznT9-18">
          <mxGeometry width="50" height="50" relative="1" as="geometry">
            <mxPoint x="1260" y="740" as="sourcePoint" />
            <mxPoint x="1310" y="690" as="targetPoint" />
          </mxGeometry>
        </mxCell>
        <mxCell id="-X6ACY5F_YXX9V9hznT9-30" value="" style="endArrow=classic;html=1;rounded=0;dashed=1;dashPattern=1 4;exitX=1.002;exitY=0.565;exitDx=0;exitDy=0;exitPerimeter=0;entryX=-0.003;entryY=0.55;entryDx=0;entryDy=0;entryPerimeter=0;strokeWidth=5;" edge="1" parent="1" source="-X6ACY5F_YXX9V9hznT9-14" target="-X6ACY5F_YXX9V9hznT9-19">
          <mxGeometry width="50" height="50" relative="1" as="geometry">
            <mxPoint x="1280" y="790" as="sourcePoint" />
            <mxPoint x="1330" y="740" as="targetPoint" />
          </mxGeometry>
        </mxCell>
        <mxCell id="-X6ACY5F_YXX9V9hznT9-56" style="edgeStyle=orthogonalEdgeStyle;rounded=0;orthogonalLoop=1;jettySize=auto;html=1;entryX=0.5;entryY=1;entryDx=0;entryDy=0;strokeWidth=5;" edge="1" parent="1" source="-X6ACY5F_YXX9V9hznT9-33" target="-X6ACY5F_YXX9V9hznT9-4">
          <mxGeometry relative="1" as="geometry">
            <Array as="points">
              <mxPoint x="935" y="1140" />
              <mxPoint x="580" y="1140" />
            </Array>
          </mxGeometry>
        </mxCell>
        <mxCell id="-X6ACY5F_YXX9V9hznT9-58" style="edgeStyle=orthogonalEdgeStyle;rounded=0;orthogonalLoop=1;jettySize=auto;html=1;entryX=0.5;entryY=1;entryDx=0;entryDy=0;strokeWidth=5;" edge="1" parent="1">
          <mxGeometry relative="1" as="geometry">
            <mxPoint x="940.0003030303035" y="1230" as="sourcePoint" />
            <mxPoint x="1434.97" y="1027.5" as="targetPoint" />
            <Array as="points">
              <mxPoint x="939.97" y="1140" />
              <mxPoint x="1434.97" y="1140" />
            </Array>
          </mxGeometry>
        </mxCell>
        <mxCell id="-X6ACY5F_YXX9V9hznT9-33" value="" style="whiteSpace=wrap;html=1;aspect=fixed;" vertex="1" parent="1">
          <mxGeometry x="700" y="1230" width="470" height="470" as="geometry" />
        </mxCell>
        <mxCell id="-X6ACY5F_YXX9V9hznT9-35" value="" style="shape=image;imageAspect=0;aspect=fixed;verticalLabelPosition=bottom;verticalAlign=top;image=data:image/png,iVBORw0KGgoAAAANSUhEUgAAANkAAADoCAMAAABVRrFMAAAA8FBMVEX////0dCiZRCAAAACTQB7zdCjrcSmRQB/3dijjczPZcjyVQyH0bhX5vKKiTyr07euRLwDvdzObSCScTzCGhobc3Ny4uLjvezqiUjBSUlJhYWGYQx5mZmampqb39/eQKgDQ0NB2dnYUFBRISEjw497p6enFxcXzaACUlJScnJwTExN9fX0zMzNZWVmvr6+Li4s9PT3+8Oj95tv3oXYfHx/70r37yLCUOAP5spDo19GWPRT1hkkrKytwcHCpZErpYwDbwrjOqp7Hno+/jXv5t5b4qYO3gG383Mz2jVSub1j2l2bex76lWz3oiFjryLj5lF7T6cC/AAAHaklEQVR4nO3deVfaWBgGcOCqg52oMAWUJSkIYQtgtLRIFFtr1Vo70+//beauSVBQLFmA8zx/VAnX5P6yvFl6Tm4igSAIgiAIgiAIgiAIgiDIZubxavTl8FPcvQg+X39lnPfZtJbdMNv1/qicSr3PJpPU9jnu3gQW47rMXEK2QbaDb9KlZJtiu3GUy5Nx254Rd9eWzAfX5Zdtgu1DaraMhtpO4+7eEnlBxmzf19f2oozZztfV9oqM2rbXx9b45Ovqq7L1sTXunJ30Rxe3gIzZbs9i7fQCGd+NnK3dtKZlb+95UV9IRm3p1bYxVzm1tcv72ro4P1tYRttrq2sb32Ucdl4WMnYybv3YcxaVMdvH1bQ9CJcn47i/FpetrM3d73yy5PabZGwf/rl6tkBkK2kLSMZt93FjpvK67J+dhWT08Gz9jt02frg4l50IUMZsP2K1PV5l9g+1Vuv33lnAMma7iO1h0OOvjJM6OkzyM1f61glWxmzxPMT7epRhpy8uY/HOXEHJmC2Gh3iNkdhGriwdgiyWh0GNcjkKWQy2yGTCFsHDIOP+NGpZJA+6jOv3u+nDn5/vTw9SEcpCtx1cH4223qXpfaWWfSd7G5EsGeqDrm9Ho3Lq73dp7tiJXJZMtvbCgR3wx71SllSyfXWVG4FMC0uWSUEGGWSQQQYZZJBBBhlkkEEGGWSQQQYZZJBBBhlkkEEGGWSQQQYZZJBBBhlkkEEGGWSQQQYZZJBBBhlkkEEGGWSQQQYZZJBBBhlkkEEGGWSQQQYZZJBBBhlkkEEGGWSQebKNffua8c3Z0Dfm0a1248i3HLay/0b7/sZk2K/Nbtw4u9rFx72z00bEMk0L+5XZjf9O+bsvI32baAQunzBCWbSv3Y9OFvVwAo2RGAEhbJmWjnyYhK9X3BauLAaXa5NvNNe2f28FLovJJW37h2xwGDbyTcBvoY/TxfL4kL34LjoQrGwFhsZx334cpEzTbldoqKbARuhYMVdwMq21akNrBSNbPVcicZRxnsveNnoRc63isIqPV8LmyjR6wLxhxCna/vsquljGD8wmZGl6P/XpDaOEMVfc/X8pzEZllHUhhrRcVKZtr+z2UhnfZXZa2XN1ml1Ilta212LY0sa57y5xAdmaDsf6qiyikUWCzyuydOtwPV2vyNKti3V1vShba9f8UZy5K+7OLZUbx5kx8jatG2vuSvCHr86T0dKp60dso7YFmcadtEnZprhYpI3LNsnFQm2ZTDnZam2Yi6UxHo/vaeLuB4IgCIIgCIIgCPInMfLVqhnWzPV6vRnWvN3k60Uv9YGaavUIIZdFb/mmXitO9ICsdOalYOb0QvLEn7aYqFNVv9K/JORENhuI74eFIJZZJX2bhLZDqFDZIO9GLK5Diew344SQDp/SpCu5mm8WCakGsMwJaXbUSgwv+eedrRKiy19rRKzbntx76qS4/CJNcmzkSW/q+bthGvKn6Z9omvOe0htPvnr6eaasRCZue0Isf6MmOV5+L9JJLZEoEnUMVyZVozYkw4mRMCdD0q3IJeRrNt3/eyW25PykpmLxLzt1emj0xSw6k5NEgX6ud16RTU3JWezIag6JWCF0c+aXlvXY/AuqhtCV1xkSmxaViil+2nxZ9ADo2uwjWwVNrxR02d/QyT1blYESqevk0h6S6T38uYy2erYLGNJTIN2lt1mV2PRfqpBzor0t0QXSY3pYN3mtGghw3+StSZ22boqUxIFSJ8eUa7RF0wrp9qjBpJvN3/HnMuuFitwP4DiriVU7kcUpITYDowhrkR8MBbV3tH39pZuuJn5UZVfZRqgQsWfnCfGfJflHQ4VNqfO/nhlaNJcu+4bsclPVEEJy/GdXHt4ltpFoO9F5RlQy2le+YmuiBd1MXWapeHNSlU+29oVNuSTWnE4NyNyvFo9O+uIXW65h1Z9jKSxN7Rem5coMW9avunua7bENX1HQP5YNSBA1v0f6HR6bVGR/BjNlRuFkUuS9krKK2gk9AZ/HfNmTalfxiv5U6G5RXP7/gKu+9Siq0RyZLtpUJkrWVg2nZJOXZNXpZbdnVxBdlLBlY5GiLtMTHZktY+tRZ9dE6jgreIfCUBUfKsu9Qdb0F0/z8sSUPZqzKd8Ww1e/dNKbL7NVHdNFd2g/++oPS+o7euoYvEFmHPuKpy5Lcc27OF4qA3Esi34J5UyZtwaKXGbQixT3TNpRMxGnhoVlXlFNsFXH15QeEIzWD1956vMaMls2lNvFEhWkT7peOTDkTRAt+mwGi8tMdYbh882LKcHcT03XK3FFM3tvpJckk0Khc0n4CTxHS0mzICKOPXtQaMsaNF/WLrgRyxiwexb2XUXexbB5dLuiWC113WiJQ0vGYKXAUDJVIfqiozWxOKvAVn3PV1FZa3ohyzIxxaqw58ientD4OiHd4TFRt2dDX4vlZNbUNYxutdm0Kv+Qk9/pllhoXs+1myab3ky0c25Ea6PatgZmYuoP6Jz8V1emlfNFHQRmu0hdtiUZNV+L0O+FQ4+8ikQQBEEQBEEQBEHWOP8DR1lX7mQKQ0QAAAAASUVORK5CYII=;" vertex="1" parent="1">
          <mxGeometry x="650" y="1160" width="137" height="146.47" as="geometry" />
        </mxCell>
        <mxCell id="-X6ACY5F_YXX9V9hznT9-37" value="" style="rounded=0;whiteSpace=wrap;html=1;" vertex="1" parent="1">
          <mxGeometry x="780" y="1310" width="340" height="340" as="geometry" />
        </mxCell>
        <mxCell id="-X6ACY5F_YXX9V9hznT9-36" value="" style="shape=image;imageAspect=0;aspect=fixed;verticalLabelPosition=bottom;verticalAlign=top;image=data:image/png,iVBORw0KGgoAAAANSUhEUgAAAOEAAADhCAMAAAAJbSJIAAABNVBMVEX///8AAAD11LjjKjgpUWDnKjlta23z8/P8/Pz517shISHiKjjY2Ni3t7f107f82r1zsMKWlpa9vb3/LEE6c4ji4uLR0dEkHyDt7e0qKir6488KAACFhYU+Pj7h3dwkHBygoKAAHh7nyK7IyMgTCw0qJSbRtZ4oSFUzZHdVVVViYmIcFRf43cbWuaEAAAraKTfHKDR5dnesrKxMTEytlYMUHR45NTaSJCy6JzJtIigjFxU8eY8kJiqPj486Ojp+fn5lW1Wch3d+bWG6oY1QISVJPzpDICPkzrtEOzdxYlgSHx/BKDNXS0SkJi8ACxE0XW54IykyICJbhZJfIiY3RUomOUKwn5LEsqOMfnSfj4O+q53/79kuFRpIHyJyIiiJJCwOKCwYOUFXfoo+UVlmm6sAEg9IYms8mEF/AAASoUlEQVR4nO2dC1vaSNvHHTUHIpCChoCBJMIEJKMoYOIJBFFUKGpdl67dbuu+Pez3/wjvTA4QBLa2ax9Cr/yvXi2QAPPjvuc+zAS6sBAoUKBAgQIFChQoUKBAgQIFChQoUKBAgQIFChQoUKBAgX6CWCGhNvQill6O5QR21uN5aQmqrgEJugJisS7MekwvqYgOJCSiEjCbrVazjUAJIgjo8KzH9UJiVQCgKCLQfrv+/v36Ov7r8s8HEyAEysysB/cCYiMnAOk0KrX/XB/RHx1sx8z8u2qiCFLlXJxWHrZssC2sENHW1nYTwdSce2qyAWA6Iati+4/3Fl5oMRqNLjoKhfYQ0hKzHuR/UVwEekKuVMGDjTdgcxTl8xCJc2zFGFBiQrxcBW8J4BgfEZ9HKDW3c7ECtIhcoXWNAG5NwLMQsaNm5jT7ywgSQNp89y+Ai6GtByjVZz3WH1MZxJKVIl1tDgCji2OeurX+fr2JwFxORUEzVRNIErjEgAQsitPF5RY/Srj+VoOmiOhZj/YHJOhIBJqergOc6B1zvb3SUnuhkVn4J0AlUu/MX7ARNJzp0rlwIoIzhWXCrfVOqSSKV9kRwndn2/kHDUnqrAf83dIhysTlSoOmxZZtwvUmuNrLb+efBBosPmvC4qwH/L3KAVQN52idJoTW1Nt6CzpRHvNMiqdZbe5yYgOKiQhtCT3wVphpt6OT6GxnPQW5WQ/5+8QUYTlRtgmBHVuyID8VcDGUn7eJmExJqmoD6mDbJttz80T2KWk2G8pezVm+EJAUcUxYFJ0k73BFQ6cOYpR3DYjhe9VZj/n7FIGwYgPikmbUYFvrf7YswmjU/ndx6xLxfEec9Zi/SyoSoeOkdOYhNAq4vo5sI0bb1szEj7TP+A6c9aC/R6okijDmEJqn3jqNVG7rLdt4oVYnZD/yrs23gDrrYT9fFWBcXMA6XSySdGjujVaiGCiLTgli6MwKrzhD5sHZAwSVWQ/8uYoA45y6NzIKhFAr0pkRGy5m81k86UqWf/KoHV3keyUAwOkpFEFk1kN/nnLIuFil7jiImp0rqBSLvZHEtwdQCpeseceIrRB/ilDvjD+FFxyai6yfNI07avWNATuXZMZBjUZZL+F2E/OZdhEQDTVLe3w0m43ymPD1HTKTsx7+M1SE3C42IWquX757i6Mk0ksjtUxocTufd3N+aNsk1gyRsu2GOuDmof6ugI3r1dUdTrxc1wC4WnwHU6XRibjoLb75M6BZuPwDpKj9Df9HGwF0P66urh587b3/I9+70jrbAGhn0+vRRX4PXBFEvvUXtbR0aAC/txg0FKnVVerga+f91vZVNl/azm9P7yisqfgAerhw5Tvn1BK1I0Kfl6dxifgoRR0Yzfdb+R7P48FP5XNW33C0afKL0d4htiF13ZXis4b4N7FVdId9dIXavbtax1GTD21np/HhzG+tbeCUUerwoezJPiZcwiGq6ue104jUfY1NiEf6wfiDj+LefrqDRi/X7dINN79noVC+e2ARHhiSn/N+xjjHgCt4oI9fO1uL0+1HLPeOt/jyHdDLEkO+JoRL1LmRmTXGdOUgMaE1zl3OyYLTpmFor7nI89l8B2p70VCI7/y1s2Q987oL/VvZlKFjQjzQj4a5TZadzvYmI4bypWarc1XSTnGZmj3lT+4tEy4t7XyA5VmDTBMLuvs4zNim2BENPPhsCzTHNyxwjYat1jKveqdn+Hb0oZTPd/cdQuqxC/waayqgSzkmtPzUuAGg1L7cGt2p2NoK5cmyKUbDCmXPWiXwwD/c7LqEu4ZvC5vyzb09C52RHhpdEV6ujxLiHMHze6ikmVdX7XYzryFYai3y3Icd94kr9zc+dVPG7F67TmohLu3ud0u4wXhCmO3k+e2WCUukfcyXSqnTKH9WekMNnrdvmP68QCMMNnYGTmqPleqW3F2ZQerfWjxt8ySKnraaveb26VkWZ43e19dDwtcbPt1rUyXD46T2YM9vWu+txB7Kt9yYGuUfetu8oxCOObjBKJ17n8X5dHWYTMMRExKH67Yv7c3RUG+4XMNflZp7+fw2UZZsWlxtDE2In+XTicgWv+6PEe6IN3/YbhrKi4NGOJRtl0pIwxI13FaEWjeHlPdZj1+LfswXSbN7sEotjYrav+msO/XngxYdIp62U5pmtlukwT9D4usRwmvDl6sZsmjsrq48IVxa+cBduhcp9HrDQpwnqzP4bwwYNZ8SHhiiPGucCUpIxs44IfXRjTXYcmZvvBkOLTaRwnE73nm4a0h+DKYJwFFPpiFOF9d3InCNiCNKe/vJdQr8dhMqfYW781iR2uGAHy8EiwPu6TQkZY2ooOa62+tut7Uz7/UmuOTGLrq8VlA45Xr4ZEzox0afEI7yrTyKhlKrKaUHJ9hgog7o5O21Nvx3dO+qJIqFtbW1whFn7A8R/UooegmJg3aPastrx/2j0tXbLSu7b+/t9VCpfZrPRrP5vQ7EfCInKptrx4UjcWNQuFG+JfRMJer1eVfBfER9BUFw1Tk92xNvbgxOFCHCKpUAMkWj++GDUcOIy4rYfeNvL80BzhMrHkVOKazZ2qwhPVEv60UkPu4f3nUxY6/X7rXOzrSN+93V1UOjsLm2dlsTu85cxIR+bPMTkhvysQEv8AS8dQBvlws1VCcp3CCLxdTBuWH09rK4oUgZuBlZXT0w+su3a8ebomGXNri1lPwYS8PIOHAG+KbLHTkG3LxdJipApRxJAAtodXX3YuMGnZzc3FO4VF9Z2r3r41M2jwvGR8rJ+MiP+VAwDcvJqMcNYsBji295oD6SwMbB6goRtXrwkdu/vvuwskJqhJ0LQri8WXBWMkjV5se1fab6lQyQeo2DY3/tCZ/FWMMdhLuKs487revuo5XnqXOLcLlm2CsZ1P7Xqi9bYNrqELCL2SHmdnlMxIY24PU9t0vtcyuUl5A7d/gPb/y5eVGHd5YNRYUkiXG+5eW/r92VOIq6ONz/S9mhiFYuCtZcNR6dSHUH/XnJcA5skGBKXYi148mE//folubUwREwylXw4c3+9cE+ZxH2Nxwn3dnwZbLADaJi5TPq0VBuJzrpcuGDu2J4jeh4WJbrptH9vQ85e57eOSa87ip+bA9xk6/fHC7ZbloYCzOOm9qRZekRQVqWmbCQu/vt1avftBo5aLhV2+GN7scWf4EsRSnETVfOOXHaRDzE025p97776bOkMjkQTmpfXmHEowKZhk463bnz6UIU2eHesNx0v3t0O5mwcLeDw+jX/pdXX0RNYCKsTfgPiaV90YlC1xv+3ekuGvd2A0vcdGQi9p1/axsbXfgPhnr1CaRZUiZgwi+Wk3bd1ah7w78XZEQkzppoh1xtlLCgONOyUOsrn19ZMk1ZqAgnmPD3vpUr7LIbVww+3iJlNcPejN842hwJNX3x2AXuW35JJh9QY0D+Hd+o2ZHUrtupQ0PzaZwhikmildNw0j8eIawN7romfPWqVpWTOXwvZWXDQV8hSrFZY/yLkqZxb6fE/rE31BQGhIWjo8+OET9JlYX4ZzvMLPe7TiS99+da6UAq7h8oUpvWRoJpoT+wYV8ZMNaKjPrpi2g9zF1YFdzO9Qb06+ahLaaKyEbgDsdtekONhxDfFo9Ei/Gfo5z+2+9OTfqGbMbdXygi8jfhQhx0cf1MXSi3x1MIyT1sx98/vfqCyuY/tWXHSQ/uua4BTQ36Nt87KkPugMIBcXmUaSTwEEblSPlsoproZBPlA8YDZoQVaAn6eiIusAjhuH/d9cy82qiXWurXRFHBf2r9Wq1GbiFg1u2lCxr4OZguWJcIny/hUDMMpphBW7st9PuYBqMgRH40Av8jYikEDiIR6jmcBRmBIdsD5qwZviEVGh9fK8NgWqhhCg5BCUDNrBZ1uoxF68VMChNiZlRM6xKNPTNcLicIZsaXuxZeNaTu4R0Opo4Fj4g3KiYdiyfCSc/6C5Mrw821tT5Oi4yiJ9k6UO1ipgH82eJ7REucKDqEtxjieLM2wSqsrErHa8cF8i3nNJKTuNMIW01FBfhzIcorXRJxunC89HZzc/PvCav0jFzBhGsFSLM4yeCPoKzT6RjxViD5tn1yxdJoNCH+PSGNM3IcbN4uF1CGWUiCCLvgFtyC6MttiycqouURwgkJgJFzwMqFCNsNxNiFhKrGcTBl5eI8fLWkDAtewv6EBVBGTtiEQF5YQGmWjUQilUoOP077dK1tRGlplPBq/BRMKJFjCul4T8pCMskwDMsyArahv6saSzGpfzwEXC5I46dgQkTKbhHWk3KGlh2F5QTM+D6WjhEuT7AKJlQIIYdoQa5W4/FKrF6PJWQ57f98uEBWFmsjq20TZhYmNAlhDVVVGgIAJFzdqDk5hvy71uZRBShi30N4o46dwsrhDDkF120gU69EaEDHYnVaA769gHZEAoSKwg0Z/06PnYIJi32ry0BWxcOWq6IElGpjDgIpUUJXMGPNZeyPL9SzslxGIlJEUtRYYpJYcxBkXMn1lMVobyxpYyPHhA10omtSxcerh99QMgYkxYIsFCZEDxw1cY6ozkVcmSpWNQFEmFKRxsOHTVj2fTf4DbHxRgYBAGFj7JAs13VZjs1H6PxXMYIgqNL4Zb+CHCuGcYMxHmbnUUmojU23pByrhuXwHPS7z1JmvOdLymomLMumz1cPnysVjF1/z8hqKkyCqR8vgPp+4Ybh6UOsXFESibj5ixAymbFr1Vg5LhUzEGq/hpculMeyAoubfJxIqr+GCclS9tiPCMkyUCK/RiAlSmZGu2A2KcuCOYc/tTddaSlTrshJxsr8mC+Ri9dTv0iUsYUnHZSAWKUb9Xq6TOtVTYIT6oB5lpoBQJIk4FHxVzIhEZuoxLD9sBrpulrJ/SJpIlCgQIECBQo0LnZyN8HM77qwI7ZSb9B6sVo9mbQ7WMmkTupzzphMucUoN06oWgfKM0VM1GMe/cjHLeToaYSMwz7T1W8VjOjHOvPqFMKw86rqfxzkfxIrqEXXy+q5H1x6UKcQJp1XnvXOIesg/vgqfGTaPEzb3eLMQ03MJvzxnZSphBYiPftFKYfwxy9Ymk6IA9HMDbjwkwl9oSmEzL+UI6MFzI8QTiqBWGfB7sXNPoGQiTT0arVI12X3vRkhEa+o9ToeWFKli1W9MVxt8hAKOVeM+5xYQ/C+QjqJX75SJq/gzZNsvIErI/yOYab84t9THCe0wj+dsQKhMHjAUnh4e3BhooewPDgxVxncJBtwOc8rRNybww3kyKA0AhxAL+3vTwkF8m7kv2pSB4+H09A+CYb1wVCAOk4oVKzjqJ5YCDegh1BIuwxyY/gK7nVg1kMN/AKCVSD9ZEIL0Kq0GNP50LGSJzahCehK3M5zIJUcIyRfPsHo9k1GHxKS33m1750AvRKvO/TJwXMAsF+s8vMJrYHYW9R2xal7MJwCJea5PUqIK/HiYMFb8BI6HM4bOT5sJWG75uCGw/m5hPZb2zu7jq2sN0x4zxKQ1009hBjQW76PEIY9UO4h632ScOgrC2Tn/OcScp4J4j3iENrDYG2fTT8lFJ78QMskQsH7PtZFxm79GrMPxV88s44QyvadOpMUhGQdDE01SpiZSJjgnrRKkwgdU6WGhMwgkKZiuZ9RA40QOrkAcsiNhE5a+DYhmyN2SXl3LZ5HuOCJruAk9mIWZNyiZYTQMZuuepR4FmHKiUXeq6SeSSgAr17q//ckEaUqTCNUx87/JuFAntLhmYSeesDSi+w+OtGaeUro3BlvFr9NWHadbeinzyVcSNJeQv0lCDNDrJh3HM5ox79I8YxIw9oVAhj+tMDzCJPEZklVRy4h9wJGFOxgbSWnutc1nMidGtvlfE4sdZ1t0Ew/jzDtWD0Zd0vCFyQk2ctexThxQpjHuI7050UaksXST0b4PELP9/YiL0bolJzE4Z01P9U54tRWqUHM1oH1o//PInQqgcHSzHNtOLx2ozrZg35AVptjNWL2NBx+hdXxFNN+03AV2BcZTiJsPCV0z3I+L3bEaacS4mky+E8Ei55P7r9JcD9pZ3hDv3A7AlCsq6oOAWcNiXVmq111hjnPs1jdA+I2iBFynhOw7aTkRrQG64FPkRlAqowTuxZi4UuZ0EpBXD1esaN00ev4jDubhocY2l1VBdXKQpg23Xt6QqAzg1PV4To3qKYbg1YS6kKyMXiFjIqTw+BJeg5/EISrITBMmJx08lLXcgiDtzSfLtGEB616xp5Dbm1MVB60QZatEp47ZFoPlgCg5wBICCOnhT33VEwYyw3yYeolrw9nImSzojLxIwtHKmol/r9ZPmOsJcdwRP2fvWOgQIECBQoUKFCgQIECBQoUKFCgQIECBQoUKFCgQIECBQoUKFCgQIECBQr0svp/IT99ghCKPCwAAAAASUVORK5CYII=;" vertex="1" parent="1">
          <mxGeometry x="848.75" y="1390" width="202.5" height="202.5" as="geometry" />
        </mxCell>
        <mxCell id="-X6ACY5F_YXX9V9hznT9-38" value="" style="shape=image;imageAspect=0;aspect=fixed;verticalLabelPosition=bottom;verticalAlign=top;image=data:image/png,iVBORw0KGgoAAAANSUhEUgAAAPMAAADQCAMAAADlEKeVAAAAbFBMVEX///8kl+0AjuwAkOz8//8XlO2/3PkAkuwble0Ajey72fjb6/uZyPV5ufKUxvXn8fy01ffv9/7n8vymz/aHv/P1+v52t/LK4vrV6PvX6fsvm+5irvGQw/RSp/BCoe+jzfZfrPA6n+5Lpe9ssvFIIBcuAAAOgUlEQVR4nO1da4OqLBBOiMAum+attSyt//8fXy+AyCXtvCrubs/5co6H1McZhmEYhtXKHq7E6YI8Lb7NPHAdGe7J9jtNDaBwhkfb7zQ1NJz/opz/Iue/qNt/kfNHt38hPpz/rG7/Rc5/Ubf/Iudfr9vqvOr3y9nBMty17XeaGr4n49eL+YMfjLWEl5flqz+yN++QbJVgUl4+Q/ky2pWXD/JlmNkm8A/YY3n0QXF5+YDky/i60sYAf6AR2yvk0GGl44y+Vr/FD/vfnH+gHzYf58ifjsV7mE+3n+59OhpvYTY5b6ED0/OETIZjLs5RPT6A65RchmIu3Y6bG8JsAV7MTJx3bGRHRTQpnyGYSbdzvohLUuuk55HzTvghSW2r9zycO7dDtn30WXQ7gt3fhBOT6sEsnD1pIgOSiVm9hoazfl5Vc/7HGGAmpaEQZ2JWr+G5UAKoyO2Vy65XXnbkqxgMsMKRoh7Yrm+SbCVs6ssb+XKtjr58dTtEtTfKHN0Bi5lwTIRQzrAqe4plMzY5HipnB9sepCeGYg8rzt4cT764oAs3L6/uIJBR9dxEbgzgd3k5Vi4/qlvflFsfhAf7UMOZzOGYqMazNiTDY4D6sarKA9ypt8bCk791nJ0hBv9/c1afDP1xfM+demskPDlRzXb1VTY/l/Opl7NmqKpazDBE25OznjPJ/cTbh/Hz8ozDvXeeQtXn5Sz2Z71uOwRijAgihCCEMIRFOLoXbk+39TZMBYI4HNc9s6fb2rHKQBuEY/oq9jhrfRITcDriYpBFzvJU8jXc8bq1vf68+npH0A5cPucBcj4P79DjxhMscl6RN5R7TF/Fom6vrm8oNxxxuLIp55P6OxNGjRppOAM95xcxwH/kzFar+jFydFCJ38HKQdyqwb59efmujwGmagxwXU1TsXy96D57sFsychTY38ioe85Zvto8NdFejvT3OCmX5RlDOEzQ+PeEyZJsGGWU237TcRBtDgQOG6vQY5xHKol7syHyvzf3OIXlhHEQYwePEiILlODcnChNGRrKtwSMx6D8eMfnswwERwn+5m+59lZBYD6K+5UMd34sA8HHSMOyZpVogSAIgudoaWOXJXMmdegPY+DE2xGjQfmCOZNLnl/ia5CMvCS7YM7o0P/6/4QF63a93jcFnssdqor+t/83qFPgpWAc90OH5Y5V0+UYvBdhnRETrkgG+qUx+5gwZ2i7UM5owrJMhiVQ6wC76ThropFLwKTJM5rg7hIw4nKUBou022SkmJcBN9v8dJhWzIt0PicWs2ZZxj4mFvNqszwjRvJpKa9Oy+M85djcYHGc0Sgh7Jd4L3dlBoy5nm7AO8v7cwDvJ6e8OI87nZ7y0rzPeXZVLcoTm8GAVVhShyZonl0nbyWjTQwwQ15+jeXIeSbNXr2RozQ95qK8Spai3GCqlQsNFiJnOGdpkoF5WRMDXWakPHgvxLSYwwETsAS3ZO46TJ59Qc+/k9/6PAPMsgO2A9tRMTjDBFKG5cmVnbocVicaeKrMkddYW+zReDYvW0JgTbuhHSlXSG1Rtph1f7aT+Wm3/p+NKSWBcwUJDLBAGc04e9Ridu3GN+vV4Fb3eW03sGewBVxm7NLWuzLDbTbSMFtK0ah1Os+KHYGBbaotojlIk+UIuUZUTK7e2NnaZikjm3a6geqyekvDYcJxGsHDotSaY4sn0m/kxoutMu/nAzepvgNSynjRNea3zsi9mmC0t+9p9uCOR2SNQLY4W61FkI6i4aVOp/vFdmMFycXF/492Sdi52p4wvonIyyB8Y092lzCGj/3kSX1TINoeHPju6EUQBkWoVKb4STh6hwIOKjpASrYYoss++cl8Gdbf3vVS11vBqC5B0Fa/d1i5PgjTLBx9I6t1nM6b4Ct85o+0dCSB65ZfIC0e+TP8CjbnRfscH3zwwQcffPDBBx988MEHH3zwwTAEt/Qy5Zmdpzi9LeUkVIoYEkLc6RIcjhA5Dpx1w0EfmvNnCJnsAc0mY8unynVBKw1NtyWgOepnjtNbBoNxnmpVZd2sYpMlFVH+cB4fH87LwIfz+PhwXgY+nMfHh/My8OE8Pj6cLcHf7XantuTJa87+sWw8NCOkanyUG/dwXn8bJnT+8XgyFmZZ77qvW3PSv+Z6cyhAcwhP+vSabA8z5yR80MO8yTPom2qerw9Y3xrg/C7e6zXnqwvdh/yyp+CZ1scGAXS563Ks9tWvfJkTQN0nVzgecJvqRBCGdTl+A+foitp8MEIwyF5EUtZ7R0geIwjc2gzHV5zPafVw1K2wvckAT0wiBMFC2b4QVLdEqcLJKV/zIn7AdQzk3C4E8pOB815JgCPwZgqaBVjOEiQ4ZXGRF5xZgri48+ZcKImWkEib3+kbe6tIwwm3yUoJ0mWzEeB5SOW8S7V5ra5WP/2btjGIezgnDnsj1Gbsa/PkpX0bftMG3Te6hMy2qvEXMKSxYboPVuS8UU9upo01G94SUwIsKvwXnEu147/DTHsj/ecr7yVuLqRnepHUsPWNfb7enXEC58BEuXy2I6e5bU0fkx2dpue8EdWO1dg+mY8cJEKlKXaOmaFxqlKuchI1yYstZ0+kLDcmTlfSHZWozu0QDyeq5afjHF0E5UCE2glfpEykewmBU/XsNpETPb2s3f9IMMzCwAuuOZZ+yDknLQsEb+HdC/ZP1L4i6ZSJEUpYlwb2UDWOHd4YhXrOnpgpCw50FBb2sRGM8us9+Ho6sG3Jy33KnDHMryWnrxyVvGFa367d54qdgIlpvS06fYdxjrhdQPjKB+Uka4kIVQfWAuOQK8qZ7eKobZPC2c+Fd8YOHwzaTZow5zL9Fro966hdzrDwuOuyiXO6YNJ+qW6MuVO6gHHmZzrBZ0eLE8L+Q4jO8+3h8NLp59Qku0cN50C0eaCV/pa9DUo7Y+Ix4/8RazjrNx/uqTwJlsfXk2AGKGdeQwzI91o/GEGu3VyBgLwctc4BxvWBixLnk3g0GE4FJ4v1XahU0L/yd/qWORNH6zJHTIWh6sX5ipwLdnvNVhFGGjMXgZV+Vb5PieRO3dUO570gZALEojNMMrqCHcwe0aLFopz12dJ3ejNtYecj/3nDmYkZavf1sbZU0Dsq5tfnPAqcd4Uo5EdHRNRm6wvoHygHcOxyNlUxpj6Hoawg79MNZ9ZBb9rGTJfpqTusxNrrA2lazlfBHBGpGBwrhY31gqPqVw8ELWdTeVsmSWiYELJyJA1n1tjgWdNi7HS9jVqDnsrgjPNF9LGUTcD0vB1kYEH1r/FyWp/E8EiveZLxECiPqX7FmZb4NNZ0Z8Nx/f/sa/acO0Q5d7wmrFTMYt/PNGOm1dzq1VPGGZsW8qkCmiTHK0nVnOkcCxs3n1Mdg9XfqToan0yxVmYNpFCY0WmDc9t6Wmyf9JtsBM7GYtX0MC5sfCdqfGvOofB3LUJhEkZrjWmGgx7OGjHzGrLYAKolte77fQpWkJfa2uXJvqaxMe0JuOrCtAuCnsq6Gs5q0sEWqo10qLso5Wwu9krVyXxUzl0QXSNzYq68SIt01yrGbPxrylrOinJ4hjmkwjkWOBszF4S2eohxkl7OVAdh5bE0RvxFY5VzO7dA3b449CipOiDAOBvr6DVj0Qs5s25ZWUR6+qA5n4bKGQtyRsbGMufS1eTHlZK00yUGy/kqcDbWQ7g1NMwDCu2W9fgd93XRQOjP1J6Bnkgw51zPcDz2L9RxewaezkFqU93LmZkl45ux2FD1d1oN0Hy6YSx0/rvAfwDnounCez5LEjPGuN1WjpEXAZo5SS9netAcNkVqT6IbwhwY492QYNipnqOeBQp5LsljNmItPOYl3I67F6DT+V7OVGuM56hQ0TZvfhJdPN3NGprNRICF4no6tBIz4LEBsZhnQS8NyVLr5cy+oKGmddSddTEX0FBNlb4ZtZjUHzR7bTXU2BAv4CQUbaXGYVCB9V7OzM8i+qkSG2SpsKjUCdZ2/6AzpeOzVH1jBpVzG/hyuS1gHRoMSLbt58xnabp+x4oSs055pAYH6aaxbIbB5rgR6P5bD00M0Ocxt9Y3oSrkONoxo7Na18+5nS2qkwE+XHJ3nR3dpQlXHHn0hkmHHbiqORAxuj/Ds4mzEC4l7MFshNbp4xVAcQllAGc+9ikVNAM+WPL/ObFIL5aTj/nZMK1YeXVfnEnSOVdhV3dv4rzS+CZM0KiQ7Ng6r54sWPkBnNtQJr6JhuwkxFzbqzzghhxxeIsOPMghrnjwxki0euuwaayNezZofRM2++EBRSmEwpa1XO6tDuEctcsBMNs2P42SZxupcUXDceMLsPDGVp3PYespd4KrGbtMcBrQb7G7ssbGdYyV6Jvk9MqV+5/YYbVbou0Dyj1qEOfVuV2aIBCm+fNSiEU3umFLXwhoYOhkz8sNC6sJ3Y4u1tDDkGSX5wO1jetwgmldUvVNuD7WFVyyOK4qRfD7A65egzivNuJ8rjoRXvinA6U52RG/aCx38+4ak9TY/X7BWfBNmC7fOvfqrFaJtm0Y59XGNa74AWVKdjSXH1ED7r6DTI1x3di85s4XCVwmwodxekVQa9lkzkn4pfUQvon+1QjUBO/9Qv9sAjTT9Ehcmeg0bliaOfOO0YbUnob5FS4EVhJn7+u8y7Wko4vmdgTf9KGvULeqjB39FEq7no8QM/t0P4bGJfLZ+N6qmgc1siHdBIfI7fwqP14vR0P8YCOXxCKYGF3lXSY/HOvXNiocczmtA4GQj9iN86ut1krDxeK44cdA6loIZlIkqaivs6BafjrEJ2PMJLnUpYLqPwiC7OW5DN9xaa4RaRpjUNxfedW7A2oa13WGYCqWgttV6Tgw1/7uXNkZ2PX5TiHho0p1s1hxwctfkda0BHv/nL+o8hMl+zgr0iJ7fm36iwGdg0N+S4vH87rtzxJsGqe3Z+hJjY/P4mEKgu+eaaYq23dwyEphpo94n+j87115x/ZXm/DaeeJ/sWToJRlk4p8AAAAASUVORK5CYII=;" vertex="1" parent="1">
          <mxGeometry x="770" y="1300" width="120" height="102.71" as="geometry" />
        </mxCell>
        <mxCell id="-X6ACY5F_YXX9V9hznT9-39" value="" style="shape=image;imageAspect=0;aspect=fixed;verticalLabelPosition=bottom;verticalAlign=top;image=data:image/png,iVBORw0KGgoAAAANSUhEUgAAASwAAACoCAMAAABt9SM9AAAAe1BMVEX///8AAAAQEBB9fX3r6+u6urqnp6eNjY2AgICRkZEpKSmzs7Pb29stLS3z8/Pw8PDh4eH5+fllZWWdnZ3Q0NBfX1/Jycne3t5qamozMzOHh4e2traqqqpBQUFSUlK/v786OjpycnIiIiKfn59MTEwaGhoVFRVNTU1FRUX9/bFcAAAJ60lEQVR4nO1d63qiMBBtKmqtrJdqqba2im67ff8nXAFDbpNAIDgker7+KUJMjmEymVseHu644yawjOJ1csY6jpbYfekxov1ksyUCtpvJPsLuV+8Q7TZEi83uTliJxeRZz1SB58kCu5e9wO5PFVMF/uywe4qNaFCPqQJPt/w6RgZBBWNzq3TNUluqMqQz7H5jYNWEqgwr7J5fHfF3U64I+Y6xe39dPDWnKsMTdv+viOjYjitCjjcj6IdtqcowxB7FdTB2wRUhY+xxXAOvbrgi5BV7JN3j0xVXhHxij6VrbKs5qI8t9mi6hVOuAmfr4JYrQg7YI+oOX665IuQLe0xdwcocUxcD7FF1g2kXXBEyxR5XF3jrhitC3rBH1gHkMQ6Ho4H9HjEdDff/pGvYI3MP2ShaGA6ik42pZlxMokS6vMEcVxeQB0jW5Sd1dXomnORPEpQhdQdl6Nxn6zr+HV6OK9vLa4+mWyhag6gflQvl9uX9NN0n63Wy/xhN0nLSiSaGkdxaUPrDQpkosoFlQ7bvQ8CROk9WX2QrfaC80yQkF+xfZXSKx9QmCiRSmvvrsLPIWCuDI/s27S3V9tbVT3kCYP/cbgFT2zs46WgPAEws52QFM7UgY0Mrf8MMaDAQ84Mqjs84tWkR3GaG4Rx7h4aWtmkR9KW9u+ovKqCRkZ82LcL+bFf9xcQeHFkrwwrcYittpCfQxGC1ETGwKT8E4wPMVauVHlBKw3gP1X1chkm7RiHNLQRLDbgWHtu2Cvo+/F8Pwajt9nMAavXZQXdRAYqXQ/t2wSBL3/NXQJHlYJEHfwTfhRY4A1w0/AK063toLqRltdrqUEBbHt81LUi+O4lwhCwPvkt46C10Yx+AHI5OGkbDHCLLTdOQ0Jq7aRoJcXcvCxTH63c2AaQ5OPLEnICm/dYdoDXLUZTxDmja7+B4aEQdkuV3/qbiaCfOXAtQ0yM3TSMBUuB/u2vabxUeksKOVkPI9tPKZ4QO6F1xpGelwb2GYNCtm6bVYBPfg3FBD5+b+CCoZb9Vh67MWUEatEBHu5NMQdBn4XeUN2RIcZP6BloVPS9jAA3Jia38F2rYQbuYAHPmPtq3C07ZQ/t2UZFCg3Kw4QEVOCf2akSAg3JgKwUTWfzWSXWO9tZx63BojvehkuCoWk8tuDqZkw5jAs7MaSm14Jfb/2z8CTy1Wu3iwCjV1qE5PQAstNptEDVpin67K3JoyGrhtoLsDRkcdhoL2jTypkJex1UIqWG697ChjWCuLdPpveKQQUtWk5ph+hT+R/c9R4CpuJ/lLjE2lBzx21lBwe15j5PdSJRhPxauvkQnrXJ4bp6hYDFahb4gvUqbfR2TzRqM5GXwfRNNwZJ+X4oLS1mt/xzvDXpXlKX+ViGYxF+WLf91mUTg4EFz8/CxkqcM4ZRp4/PJLw4YwCioKYZVr6RwMBNLHHAh0YEoN52SWoerUCRWBsEIXCiPShCMdrx1qiMFshQWEHStQm7J5Xf02+BqrsLQsUrwhoIX9ZJRAa+UWr5HKcsQvK3Fi7gUhLxB6lS+h377VgHwRkC67vExtAZrIBTFy8N/o58CfltH7Q2zVaGebqYmJV5jGKU4dN/3q4NfEXkT/KzSCqhJXKUIaiWk4A1bdjqkkasgzFgqOJ+MXelaE1e+O1a14OoxWCVwGbgK+MwBTmOy8RzqufI9ac4IvlpffbOflqtwbA0ghFyudLgoVIZoPTKtiTfKlSYGiZjXR80jIZkaNND48+3JuolDLODDUazJchA+6AMWkKXYQBaowQe3edYCSNk1DB4gK3jRzuOjHVl+5xVaYynXRzaQJUcmf/mdN94EyY/AgCG4SiIrhAps9tg1ISswc7sFuNxNg6VldqeqwJTWgq+x3XkM1hxTG3EeVmOsqpYbwjZ+58c5QzKtiJ19m96mVL/jjjvuuMM7xB+r96czxqtpEkZx9o4wP8k5y/9WAQXjucQCKilHyMEy82j0/VzgUXhwebn6fKxnxVoe7e6/LrRB16yz09ft31VVBDeLkBcqf3BxIbW6Y3v/NbHUn/Q1km6pCEuoJKtexont/VcEWDPgAvo2lXSa5X74ZIkmPBGXW5jdyixEgifLdDg7DWfgMgToY/PoAj64KnSyYB/gBdRSx3m+qDqh0vcQPlkKQY/bw5YW8qXynFsBIvk5fjyBkyVG/n/u6MRZvn2kbNJwSXP00i2SxUv3H1kxKJc+lrpT2oVvkCw+StRUUJNOQBbAdoNkcWGP38Ybk1zGc/HqN0gWt8xVbQPjvfCW3h5Z3CbMdst6e2RxdZnMu745RXmlfPBnmX+Q77E1ZM0tBy+QtZymeYrQ9wa5hikXw2e8j4XMFFIrHqkmnex6vZnF8qvL5ZYl6CXC/cdI+CLUYsKsJ+YIa5YsMD7/1HBueDa1GFmCl5Bt1XOyWMWQUk6yXy0LB9Sn+mAeoMxS4Mx+dYEs9fxtgKz0tFoVf6vTiVGRk8X2A9ZkYVbYYp0we9btydKgNVmIQbusD6W5fTIW8J4L/h6RhXbMLWf2o4YWJac+L9PUJ7Kw6kYBtm6FrDwPqU9kYZnlF2oPekfW7yiOojWvQCAFLjUj6yE+gz36uIjzC9l9DsjKNE9G1pbKUq5SAlJCdUOycojjv8A5WUz9Yy5gpGPfuemuFfC4ZL2UTQ/FNq4PbjWk090VWa950MQFA/HmRmRxfe2SEgNYB+g+WnEiNiRL2O5IG+lGZHF9RTq4lXWgTA+JkzPWrPMNyTJtpJuRxapKIKmlbP8vqXpMQvSGLFYuEImstOyAZFRmNpnekMVsHUhkcXUaxFisHpLFZhZSlhTn3BFj/ntIFpNZWCdzM7LELvSQLObhdEmADbioEMFj0UOyWE9dEmADPiyE33NZkPXDPdYhWewanrGUI4uvsmChOthH0TCySgNCNVns58MrBiHWaBjHl/ofrOJaNVmcd7YeWUxUl6sK+z4dWcxdgOjiIRXQkcWKI34zraMeWZygLHZZMWeuEskim8s+LJWfQUFV7UIdWXzA4J9N+rrN7Bb1yOICLMhhMBBDDyWyzvhKxVuuyY4MU5ikgSylRnyWfF+PLOPvo5IlAbd+jT6w20SWYlzOXsZ6ZJnCo6vJwj1BxRAGbyBLOXGvPlnGyVxFFpKdlMHUeS1Z8tSyIMtERhVZ+OUz9CHLRbwyRJb8kAVZ0PcdflWy3tUDL3pReXIEpQ58U5WGkcXvt8UjZjIBn5b/CeWeVP+kfCzucUjXSJ6svXKkWF+OfIon4lELvyvWsxm1qA9ES86O/fSvmTqbDOh9os2pNMaz+JMTJykH2XyJ03RwRv5g8XWDrMkPJiOe+1UVYpFMT6vJ5LRL6qYaLuP9dNcslXOWfdlqtK989m0/Op27hC+t7rhDh/9+G3dkj6wn6AAAAABJRU5ErkJggg==;" vertex="1" parent="1">
          <mxGeometry x="1280" y="1387" width="300" height="168" as="geometry" />
        </mxCell>
        <mxCell id="-X6ACY5F_YXX9V9hznT9-41" value="" style="sketch=0;outlineConnect=0;fontColor=#232F3E;gradientColor=none;fillColor=#232F3D;strokeColor=none;dashed=0;verticalLabelPosition=bottom;verticalAlign=top;align=center;html=1;fontSize=12;fontStyle=0;aspect=fixed;pointerEvents=1;shape=mxgraph.aws4.user;" vertex="1" parent="1">
          <mxGeometry x="-310" y="600.01" width="260" height="260" as="geometry" />
        </mxCell>
        <mxCell id="-X6ACY5F_YXX9V9hznT9-42" value="Use&lt;font style=&quot;font-size: 60px;&quot;&gt;r&lt;/font&gt;" style="text;html=1;align=center;verticalAlign=middle;resizable=0;points=[];autosize=1;strokeColor=none;fillColor=none;fontSize=60;" vertex="1" parent="1">
          <mxGeometry x="-250" y="870" width="150" height="90" as="geometry" />
        </mxCell>
        <mxCell id="-X6ACY5F_YXX9V9hznT9-43" value="" style="endArrow=classic;html=1;rounded=0;exitX=0;exitY=0.54;exitDx=0;exitDy=0;exitPerimeter=0;entryX=1.008;entryY=0.525;entryDx=0;entryDy=0;entryPerimeter=0;strokeWidth=5;" edge="1" parent="1" source="-X6ACY5F_YXX9V9hznT9-39" target="-X6ACY5F_YXX9V9hznT9-33">
          <mxGeometry width="50" height="50" relative="1" as="geometry">
            <mxPoint x="1180" y="1420" as="sourcePoint" />
            <mxPoint x="1230" y="1370" as="targetPoint" />
          </mxGeometry>
        </mxCell>
        <mxCell id="-X6ACY5F_YXX9V9hznT9-46" style="edgeStyle=orthogonalEdgeStyle;rounded=0;orthogonalLoop=1;jettySize=auto;html=1;entryX=0;entryY=0.516;entryDx=0;entryDy=0;entryPerimeter=0;strokeWidth=5;" edge="1" parent="1" source="-X6ACY5F_YXX9V9hznT9-41" target="-X6ACY5F_YXX9V9hznT9-1">
          <mxGeometry relative="1" as="geometry" />
        </mxCell>
        <mxCell id="-X6ACY5F_YXX9V9hznT9-48" style="edgeStyle=orthogonalEdgeStyle;rounded=0;orthogonalLoop=1;jettySize=auto;html=1;entryX=-0.007;entryY=0.52;entryDx=0;entryDy=0;entryPerimeter=0;strokeWidth=5;" edge="1" parent="1" source="-X6ACY5F_YXX9V9hznT9-4" target="-X6ACY5F_YXX9V9hznT9-10">
          <mxGeometry relative="1" as="geometry" />
        </mxCell>
<<<<<<< HEAD
=======
        <mxCell id="-X6ACY5F_YXX9V9hznT9-54" style="edgeStyle=orthogonalEdgeStyle;rounded=0;orthogonalLoop=1;jettySize=auto;html=1;strokeWidth=5;" edge="1" parent="1" source="-X6ACY5F_YXX9V9hznT9-49">
          <mxGeometry relative="1" as="geometry">
            <mxPoint x="1590" y="1430.47" as="targetPoint" />
          </mxGeometry>
        </mxCell>
>>>>>>> f0d729b158176bc7844aacfcc1b2bf5e1a6e25d8
        <mxCell id="-X6ACY5F_YXX9V9hznT9-49" value="" style="sketch=0;outlineConnect=0;fontColor=#232F3E;gradientColor=none;fillColor=#232F3D;strokeColor=none;dashed=0;verticalLabelPosition=bottom;verticalAlign=top;align=center;html=1;fontSize=12;fontStyle=0;aspect=fixed;pointerEvents=1;shape=mxgraph.aws4.user;" vertex="1" parent="1">
          <mxGeometry x="1682" y="1306.47" width="248" height="248" as="geometry" />
        </mxCell>
        <mxCell id="-X6ACY5F_YXX9V9hznT9-50" value="Developer" style="text;html=1;align=center;verticalAlign=middle;resizable=0;points=[];autosize=1;strokeColor=none;fillColor=none;fontSize=60;" vertex="1" parent="1">
          <mxGeometry x="1665" y="1592.5" width="300" height="90" as="geometry" />
        </mxCell>
<<<<<<< HEAD
        <mxCell id="-X6ACY5F_YXX9V9hznT9-60" value="" style="endArrow=classic;html=1;rounded=0;entryX=1;entryY=0.5;entryDx=0;entryDy=0;strokeWidth=5;" edge="1" parent="1" target="-X6ACY5F_YXX9V9hznT9-39">
          <mxGeometry width="50" height="50" relative="1" as="geometry">
            <mxPoint x="1680" y="1470" as="sourcePoint" />
            <mxPoint x="1662.5" y="1340" as="targetPoint" />
          </mxGeometry>
        </mxCell>
=======
>>>>>>> f0d729b158176bc7844aacfcc1b2bf5e1a6e25d8
      </root>
    </mxGraphModel>
  </diagram>
</mxfile>
